# Blender 5.1.0
# www.blender.org
mtllib B2.mtl
o B2
v 0.685338 0.083342 1.607452
v 0.904766 0.071287 1.453247
v 0.563435 0.133063 0.925399
v 1.124193 0.059231 1.299046
v 0.536498 0.076316 1.501396
v 0.382152 0.144468 0.921938
v 0.290724 0.069881 1.464444
v 0.193790 0.070485 1.533541
v 0.096857 0.071089 1.602645
v 0.007788 0.160740 0.932515
v 0.000120 0.071705 1.671743
v -0.000076 0.160740 0.932515
v 0.007788 0.169799 0.263514
v -0.000076 0.169799 0.263514
v -0.000076 0.109544 -0.145834
v 0.039051 0.169776 0.234605
v 0.176685 0.101217 -0.054785
v 0.153680 0.042100 -0.174773
v 0.211683 0.045584 -0.128211
v 0.266539 0.099416 0.006730
v 0.102362 0.043366 -0.213910
v 0.058320 0.043679 -0.244910
v 0.081914 0.021752 -0.316157
v 0.163708 0.023935 -0.257796
v 0.245501 0.026119 -0.199429
v 0.294656 0.052669 -0.061748
v 0.327295 0.028302 -0.141062
v 0.378219 0.052228 -0.006434
v 0.409089 0.030486 -0.082701
v 0.491079 0.032669 -0.024334
v 0.471220 0.055120 0.067371
v 0.349513 0.097941 0.064146
v 0.383725 0.152773 0.328448
v 0.455884 0.095735 0.137709
v 0.623797 0.067233 0.166582
v 0.662924 0.071914 0.193093
v 1.309408 0.054527 0.559317
v 1.317863 0.071856 0.705698
v 0.670395 0.096885 0.286404
v 0.595680 0.100299 0.234499
v 0.529813 0.141251 0.393264
v 0.685339 0.135758 0.829737
v 0.510544 -0.015263 0.961229
v 0.462176 -0.021465 0.961235
v 0.506218 -0.056540 0.667180
v 0.553014 -0.003556 0.961223
v 0.545936 -0.031198 0.666666
v 0.543380 -0.035495 0.279111
v 0.654666 0.037048 0.092399
v 0.501893 -0.065088 0.302563
v 0.462176 -0.077667 0.667747
v 0.387460 -0.028097 0.961395
v 0.387460 0.014052 1.074957
v 0.314711 -0.027865 0.961389
v 0.273225 -0.025971 0.961306
v 0.276371 -0.066796 0.665149
v 0.314711 -0.077399 0.667747
v 0.387460 -0.082533 0.667865
v 0.462962 -0.086459 0.324621
v 0.540233 0.029150 1.183198
v 0.302521 -0.077690 0.310955
v 0.234884 -0.047074 0.662349
v 0.237637 -0.021140 0.961235
v 0.246878 0.016189 1.180210
v 0.387460 0.069277 1.395346
v 0.393555 0.052100 1.181704
v 0.527453 0.061868 1.405173
v 0.303504 -0.075959 0.307252
v 0.222497 -0.039444 0.274687
v 0.517229 0.024377 1.167312
v 0.183960 0.028105 1.294339
v 0.186319 -0.044043 0.961773
v 0.186319 -0.075135 0.667700
v 0.185336 -0.074124 0.384151
v 0.142080 0.010474 1.294753
v 0.142080 -0.075146 0.962499
v 0.142080 -0.109478 0.668497
v 0.095677 -0.002766 1.295001
v 0.062056 -0.007899 1.295184
v -0.000076 -0.021569 1.275051
v 0.095874 -0.091708 0.962824
v 0.062056 -0.099374 0.963066
v 0.062056 -0.149652 0.669436
v -0.000076 -0.104391 0.943801
v -0.062011 -0.007899 1.295184
v -0.000076 0.071705 1.671743
v -0.095633 -0.002766 1.295001
v -0.142035 0.010474 1.294753
v 0.102559 -0.135401 0.668964
v -0.062011 -0.099374 0.963066
v -0.096027 -0.091708 0.962824
v -0.062011 -0.149652 0.669436
v -0.000076 -0.154542 0.648772
v 0.062056 -0.165854 0.386295
v 0.102952 -0.147828 0.385728
v 0.142080 -0.118572 0.385191
v 0.160758 -0.083834 0.176769
v 0.230165 -0.035158 0.144990
v 0.325919 -0.028654 0.076218
v 0.227216 -0.030780 0.034765
v 0.200475 -0.025820 -0.075768
v 0.190841 -0.024322 -0.101311
v 0.152107 -0.022870 -0.159813
v 0.158596 -0.072765 0.076784
v 0.137361 -0.056680 -0.074120
v 0.089386 -0.109606 -0.053899
v 0.101969 -0.108015 -0.036754
v 0.083880 -0.123090 -0.030636
v 0.133625 -0.105320 0.077458
v 0.062252 -0.140732 -0.023378
v 0.073656 -0.111569 -0.069177
v 0.053011 -0.113892 -0.082223
v 0.029810 -0.114612 -0.089889
v -0.000076 -0.146272 -0.030364
v -0.000076 -0.115332 -0.093586
v -0.029766 -0.114612 -0.089889
v -0.062208 -0.140732 -0.023378
v -0.052967 -0.113892 -0.082223
v -0.089341 -0.109606 -0.053899
v -0.083836 -0.123090 -0.030636
v -0.101925 -0.108015 -0.036754
v -0.137513 -0.056680 -0.074120
v -0.200431 -0.025820 -0.075768
v -0.190993 -0.024322 -0.101311
v -0.152260 -0.022870 -0.159813
v -0.108217 -0.053091 -0.138682
v -0.109790 -0.023567 -0.213946
v -0.072629 -0.051616 -0.185066
v -0.055130 -0.018678 -0.261511
v -0.029766 -0.051244 -0.208235
v -0.000076 -0.021895 -0.288276
v -0.000076 -0.051233 -0.211737
v 0.029810 -0.051244 -0.208235
v 0.054977 -0.018678 -0.261511
v 0.072673 -0.051616 -0.185066
v 0.109834 -0.023567 -0.213946
v -0.158551 -0.072765 0.076784
v -0.000076 0.019568 -0.374524
v -0.163663 0.023935 -0.257796
v -0.327251 0.028302 -0.141062
v -0.227368 -0.030780 0.034765
v -0.230317 -0.035158 0.144990
v -0.325874 -0.028654 0.076218
v -0.263939 -0.028352 0.274428
v -0.470193 0.006909 0.058961
v -0.491035 0.032669 -0.024334
v -0.654622 0.037048 0.092399
v -0.160911 -0.083834 0.176769
v -0.138496 -0.115309 0.177508
v -0.133581 -0.105320 0.077458
v -0.090521 -0.142799 0.059292
v -0.062011 -0.160093 0.047238
v -0.000076 -0.164286 0.026739
v 0.062056 -0.160093 0.047238
v 0.090565 -0.142800 0.059292
v 0.138540 -0.115309 0.177508
v 0.100789 -0.150964 0.178193
v 0.062056 -0.175354 0.178907
v -0.000076 -0.184692 0.179126
v -0.000076 -0.176527 0.367580
v -0.062011 -0.175354 0.178907
v -0.062011 -0.165854 0.386295
v -0.102515 -0.135401 0.668964
v -0.142035 -0.075146 0.962499
v -0.186275 -0.044043 0.961773
v -0.183915 0.028105 1.294339
v -0.247030 0.016189 1.180210
v -0.387613 0.069278 1.395346
v -0.393512 0.052100 1.181704
v -0.527409 0.061868 1.405173
v -0.536454 0.076316 1.501396
v -0.685295 0.083342 1.607452
v -0.904722 0.071287 1.453247
v -0.540189 0.029150 1.183198
v -0.507354 0.042704 1.182862
v -0.552970 -0.003556 0.961223
v -0.545892 -0.031198 0.666666
v -1.326470 -0.003846 0.852079
v -0.543335 -0.035495 0.279111
v -0.392725 -0.038875 0.237351
v -0.429886 -0.038364 0.260673
v -0.355171 -0.033811 0.265439
v -0.501849 -0.065088 0.302563
v -0.495360 -0.062429 0.299639
v -0.506174 -0.056540 0.667180
v -0.510697 -0.015263 0.961229
v -0.462131 -0.021465 0.961235
v -0.462131 -0.077666 0.667747
v -0.387613 -0.082533 0.667865
v -0.394101 -0.092335 0.275916
v -0.314864 -0.077399 0.667747
v -0.302477 -0.077690 0.310955
v -0.387613 -0.028097 0.961395
v -0.387613 0.014052 1.074957
v -0.314864 -0.027864 0.961389
v -0.273377 -0.025971 0.961306
v -0.276326 -0.066795 0.665149
v -0.234840 -0.047074 0.662349
v -0.222453 -0.039444 0.274687
v -0.237592 -0.021140 0.961235
v -0.186275 -0.075135 0.667700
v -0.185292 -0.074124 0.384151
v -0.142035 -0.118572 0.385191
v -0.142035 -0.109478 0.668497
v -0.102908 -0.147828 0.385728
v -0.100942 -0.150964 0.178193
v 0.495208 -0.062429 0.299639
v 0.470237 0.006909 0.058961
v 0.392769 -0.038875 0.237351
v 0.429930 -0.038364 0.260673
v 0.355215 -0.033811 0.265439
v -0.000076 0.049974 -0.252215
v -0.081870 0.021752 -0.316157
v -0.102515 0.043366 -0.213910
v -0.153636 0.042100 -0.174773
v -0.245457 0.026119 -0.199429
v -0.211639 0.045584 -0.128211
v -0.294612 0.052669 -0.061748
v -0.378175 0.052228 -0.006434
v -0.409241 0.030486 -0.082701
v -0.471176 0.055120 0.067371
v -0.058472 0.077222 -0.182338
v -0.176640 0.101217 -0.054785
v -0.266495 0.099417 0.006730
v -0.349665 0.097942 0.064146
v -0.237592 0.164282 0.263632
v -0.383681 0.152773 0.328448
v -0.382304 0.144468 0.921938
v -0.290680 0.069881 1.464444
v -0.193746 0.070485 1.533541
v -0.097010 0.071089 1.602645
v -0.563391 0.133063 0.925399
v -1.124149 0.059231 1.299046
v -0.670351 0.096885 0.286404
v -0.662880 0.071914 0.193093
v -0.623949 0.067233 0.166582
v -0.456036 0.095735 0.137708
v -0.595636 0.100299 0.234499
v 1.326318 -0.003846 0.852079
v 2.421880 0.043331 1.633651
v 2.520386 0.040578 1.563407
v 1.317863 0.008639 0.705698
v 2.618696 0.049498 1.493164
v 2.520386 0.046420 1.563407
v 1.326318 0.078557 0.852079
v 2.225261 0.037164 1.774143
v 1.343423 0.047175 1.144840
v 0.195560 0.041728 0.963155
v 0.234687 0.155328 0.931783
v 0.198313 0.156164 0.964702
v 0.005036 0.046293 0.930968
v 0.234884 0.049847 0.262084
v 0.005036 0.055352 0.261966
v 0.231934 0.040892 0.930230
v 0.115929 0.044109 0.925641
v 0.115929 0.052971 0.270471
v 0.195560 0.051624 0.232928
v 0.198313 0.166059 0.234475
v 0.036298 0.055340 0.233057
v 0.118682 0.158557 0.927188
v 0.036298 0.045480 0.963072
v 0.039051 0.159915 0.964619
v 0.237637 0.164282 0.263632
v -2.520342 0.040579 1.563407
v -1.317819 0.008639 0.705698
v -1.309364 0.054527 0.559317
v -2.618652 0.049499 1.493164
v -1.343576 0.047176 1.144840
v -1.326470 0.078557 0.852079
v -2.225217 0.037164 1.774143
v -2.422033 0.043331 1.633650
v -2.520342 0.046421 1.563407
v -1.317819 0.071856 0.705698
v -0.198269 0.156164 0.964702
v -0.004992 0.046293 0.930968
v -0.234840 0.049847 0.262084
v -0.195713 0.051624 0.232928
v -0.231890 0.040892 0.930230
v -0.036254 0.045480 0.963072
v -0.004992 0.055352 0.261966
v -0.118638 0.167418 0.272018
v -0.115885 0.052971 0.270471
v -0.039007 0.169776 0.234605
v -0.036254 0.055340 0.233057
v -0.195713 0.041728 0.963155
v -0.007745 0.169799 0.263514
v -0.115885 0.044109 0.925641
v -0.234643 0.155328 0.931783
v 0.046332 0.009754 -0.117132
v -0.000070 0.013668 -0.115626
v -0.000070 0.008756 -0.226602
v 0.529819 0.133609 0.912093
v 0.525493 0.037803 0.911343
v 0.563441 0.138011 0.379037
v 0.685345 0.130439 0.468876
v 0.056950 0.005806 -0.155272
v 0.058326 0.077222 -0.182338
v 0.047905 0.101798 -0.146336
v 0.022935 0.012890 -0.103803
v 0.024311 0.113528 -0.134182
v 0.027063 0.007722 -0.245252
v 0.028637 0.039603 -0.270045
v 0.056950 0.003680 -0.220348
v 0.681019 0.036920 0.828969
v 0.559115 0.022577 0.378493
v 0.681019 0.018314 0.468545
v 0.559312 0.037745 0.924661
v 0.525493 0.026340 0.392590
v -0.525437 0.026340 0.392590
v -0.529762 0.141252 0.393264
v -0.525437 0.037803 0.911343
v -0.559255 0.022577 0.378493
v -0.563384 0.138011 0.379037
v -0.056893 0.003680 -0.220348
v -0.056893 0.005806 -0.155272
v -0.058466 0.043680 -0.244910
v -0.047848 0.101798 -0.146336
v -0.024254 0.113528 -0.134182
v -0.022878 0.012890 -0.103803
v -0.046472 0.009754 -0.117132
v -0.028580 0.039603 -0.270045
v -0.027203 0.007722 -0.245252
v -0.680963 0.018314 0.468545
v -0.680963 0.036921 0.828969
v -0.685288 0.130439 0.468876
v -0.685288 0.135758 0.829737
v -0.559255 0.037745 0.924661
v -0.529762 0.133609 0.912093
v 0.255338 0.020672 1.167265
v 0.262220 0.030010 1.180370
v 0.507404 0.042704 1.182862
v 0.517235 0.034005 0.982744
v 0.333986 -0.048851 0.454974
v 0.333986 -0.080849 0.324491
v 0.394151 -0.092335 0.275916
v 0.527459 -0.040083 0.274652
v 0.263989 -0.028352 0.274428
v 0.315110 -0.032917 0.237369
v 0.388646 -0.004055 0.443434
v 0.421481 -0.005867 0.442908
v 0.463558 -0.037980 0.237127
v 0.496590 -0.040025 0.265150
v 0.515465 -0.037702 0.251844
v 0.498360 -0.006668 0.445359
v 0.272051 0.003448 0.446475
v 0.303510 -0.043962 0.452310
v -0.517179 0.034005 0.982744
v -0.262164 0.030010 1.180370
v -0.255479 0.020672 1.167265
v -0.262164 0.039626 0.985260
v -0.507348 0.052333 0.985739
v -0.517179 0.024377 1.167312
v -0.333930 -0.080849 0.324491
v -0.394096 -0.060338 0.447467
v -0.462912 -0.086458 0.324621
v -0.527600 -0.040083 0.274652
v -0.315054 -0.032917 0.237369
v -0.315841 -0.000141 0.444497
v -0.463502 -0.037980 0.237127
v -0.452688 -0.007075 0.442955
v -0.496534 -0.040025 0.265150
v -0.515409 -0.037702 0.251844
v -0.498304 -0.006668 0.445359
v -0.303454 -0.075959 0.307252
v 0.315897 -0.000141 0.444497
v 0.354041 -0.002127 0.444012
v 0.394152 -0.060338 0.447467
v 0.462968 -0.054461 0.454997
v 0.452744 -0.007075 0.442955
v 0.495214 -0.030443 0.451135
v 0.479681 -0.007237 0.443941
v 0.510943 -0.005902 0.446735
v -0.303454 -0.043962 0.452310
v -0.333930 -0.048851 0.454973
v -0.271995 0.003448 0.446475
v -0.354182 -0.002127 0.444012
v -0.388590 -0.004055 0.443433
v -0.421622 -0.005867 0.442908
v -0.462912 -0.054461 0.454997
v -0.495354 -0.030443 0.451135
v -0.479625 -0.007237 0.443941
v -0.510887 -0.005902 0.446735
v 0.387466 0.023680 0.964974
v 0.507404 0.052332 0.985738
v 0.393562 0.061728 0.985520
v 0.255338 0.030300 0.982738
v 0.262220 0.039626 0.985260
v -0.387607 0.023680 0.964974
v -0.393505 0.061728 0.985520
v -0.255479 0.030300 0.982738
v 0.118688 0.167418 0.272018
v -0.198262 0.166059 0.234475
v -0.118631 0.158557 0.927189
v -0.039000 0.159915 0.964619
v -0.007738 0.160740 0.932516
v 0.108268 -0.053090 -0.138682
v -0.073605 -0.111568 -0.069177
v 0.143659 -0.058166 -0.055092
v -0.143602 -0.058166 -0.055092
vn 0.5814 -0.0000 0.8136
vn 0.5810 -0.0000 0.8139
vn 0.5806 -0.0000 0.8142
vn 0.9997 0.0241 -0.0041
vn 0.4250 0.0224 -0.9049
vn 0.0938 0.9940 0.0557
vn -0.6787 -0.0262 0.7340
vn -0.4257 0.0024 -0.9049
vn -0.4254 0.0027 -0.9050
vn -0.4259 0.0023 -0.9048
vn -0.4262 0.0020 -0.9046
vn -0.0135 0.9971 0.0751
vn -0.4255 -0.0222 0.9047
vn -0.4252 -0.0225 0.9048
vn -0.4257 -0.0220 0.9046
vn -0.1161 0.9885 0.0974
vn -0.1160 0.9885 0.0974
vn -0.4261 -0.0217 0.9044
vn 0.0828 0.9844 0.1554
vn 0.4253 -0.0020 0.9051
vn 0.0829 0.9844 0.1554
vn 0.1105 0.9831 0.1461
vn 0.1502 0.9785 0.1412
vn 0.1122 0.9825 0.1489
vn -0.0403 0.9881 0.1485
vn 0.0995 0.9864 0.1309
vn 0.0782 0.9884 0.1305
vn -0.1261 0.9809 0.1480
vn 0.0920 0.9885 0.1200
vn -0.0134 0.9998 0.0135
vn -0.0121 0.9998 0.0135
vn -0.0123 0.9998 0.0135
vn -0.0000 0.9928 0.1196
vn -0.0000 0.9999 0.0135
vn -0.0000 0.9901 -0.1401
vn -0.0917 0.9852 -0.1450
vn -0.0136 0.9998 0.0135
vn -0.0233 0.9996 0.0135
vn -0.0235 0.9996 0.0135
vn -0.0347 0.9993 0.0136
vn -0.1327 0.9806 -0.1443
vn 0.3749 0.9141 -0.1544
vn 0.1263 0.9771 -0.1714
vn 0.3359 0.8178 -0.4673
vn 0.3288 0.8200 -0.4684
vn 0.3269 0.8214 -0.4674
vn -0.0346 0.9993 0.0135
vn 0.3323 0.8212 -0.4638
vn -0.0354 0.9993 0.0135
vn 0.3335 0.8211 -0.4632
vn 0.1751 0.9578 -0.2278
vn 0.2047 0.9543 -0.2179
vn -0.0353 0.9993 0.0135
vn -0.9997 -0.0240 -0.0003
vn 0.5970 0.0027 0.8022
vn 0.5958 0.0033 0.8031
vn 0.5975 0.0025 0.8019
vn 0.1126 0.9776 -0.1780
vn -0.0834 0.9737 -0.2120
vn 0.5954 0.0035 0.8034
vn -0.7163 -0.0078 -0.6977
vn 0.6721 0.0260 -0.7400
vn 0.6709 0.0252 -0.7412
vn 0.6725 0.0262 -0.7396
vn 0.3515 0.8295 -0.4340
vn 0.2916 0.8272 -0.4803
vn 0.6705 0.0250 -0.7415
vn 0.3209 0.8347 -0.4475
vn 0.0137 0.9996 0.0246
vn 0.1735 0.9560 -0.2368
vn -0.0982 0.9876 -0.1226
vn -0.1064 0.9867 -0.1230
vn -0.1086 0.9864 -0.1230
vn 0.1394 0.9628 -0.2314
vn 0.1696 0.9668 -0.1911
vn 0.1160 0.9731 -0.1989
vn 0.1122 0.9709 -0.2116
vn 0.1120 0.9708 -0.2120
vn 0.1120 0.9708 -0.2122
vn 0.0939 0.9708 -0.2207
vn 0.2922 0.8415 -0.4545
vn -0.0560 0.9972 -0.0490
vn -0.0004 0.9990 0.0445
vn -0.0004 0.9990 0.0444
vn 0.0674 0.9916 0.1102
vn 0.1430 0.9611 -0.2364
vn 0.1575 0.9603 -0.2302
vn 0.1325 0.9661 -0.2218
vn 0.1323 0.9661 -0.2218
vn 0.1324 0.9661 -0.2218
vn -0.0433 -0.9969 -0.0660
vn 0.1322 0.9661 -0.2219
vn 0.1349 0.9688 -0.2080
vn 0.1342 0.9688 -0.2081
vn 0.1296 0.9692 -0.2092
vn 0.1242 0.9697 -0.2105
vn -0.2406 -0.9221 -0.3030
vn -0.0905 -0.9918 -0.0899
vn -0.0075 -0.9987 0.0497
vn -0.0372 -0.9993 0.0082
vn 0.3105 0.8506 -0.4244
vn 0.3105 0.8505 -0.4246
vn 0.3106 0.8508 -0.4239
vn 0.1380 -0.9743 0.1779
vn 0.2916 0.8526 -0.4336
vn -0.9997 0.0241 -0.0041
vn 0.3201 0.8385 -0.4410
vn 0.1714 0.9596 -0.2230
vn 0.1719 0.9596 -0.2227
vn 0.1735 0.9596 -0.2216
vn -0.4250 0.0225 -0.9049
vn 0.1736 0.9596 -0.2215
vn 0.1731 0.9597 -0.2215
vn 0.3106 0.8509 -0.4236
vn 0.2241 0.8643 -0.4502
vn 0.1364 0.9361 -0.3241
vn 0.1139 0.9359 -0.3334
vn 0.2146 0.9174 -0.3352
vn 0.6787 -0.0262 0.7340
vn 0.1064 0.9867 -0.1230
vn 0.0960 0.9878 -0.1225
vn 0.0982 0.9876 -0.1226
vn 0.2102 0.9401 -0.2684
vn 0.1613 0.9682 -0.1913
vn 0.1775 0.9652 -0.1920
vn 0.2294 0.9355 -0.2687
vn 0.4262 0.0020 -0.9046
vn 0.1497 0.9119 -0.3820
vn 0.2153 0.9101 -0.3540
vn 0.4261 -0.0225 0.9044
vn 0.1330 0.9623 -0.2374
vn 0.1584 0.9700 -0.1845
vn 0.4260 -0.0225 0.9044
vn 0.0721 0.9973 0.0147
vn 0.0735 0.9972 0.0144
vn 0.0727 0.9973 0.0146
vn -0.4253 -0.0020 0.9051
vn 0.0733 0.9972 0.0140
vn 0.0739 0.9972 0.0138
vn 0.0743 0.9971 0.0137
vn 0.0134 0.9998 0.0135
vn 0.0123 0.9998 0.0135
vn 0.0121 0.9998 0.0135
vn 0.0136 0.9998 0.0135
vn 0.0233 0.9996 0.0135
vn 0.1113 0.9924 -0.0519
vn 0.0235 0.9996 0.0135
vn 0.0894 0.9959 -0.0147
vn 0.0858 0.9930 0.0817
vn 0.0606 0.9926 0.1052
vn 0.0346 0.9993 0.0136
vn 0.0344 0.9993 0.0135
vn 0.0352 0.9993 0.0135
vn 0.0351 0.9993 0.0135
vn -0.0150 0.9667 -0.2556
vn 0.2090 0.9566 -0.2030
vn 0.9997 -0.0240 -0.0003
vn -0.5955 0.0035 0.8034
vn 0.1237 0.9874 0.0986
vn 0.7163 -0.0078 -0.6977
vn -0.6705 0.0262 -0.7415
vn -0.6705 0.0262 -0.7414
vn 0.1250 -0.9750 0.1835
vn -0.0674 0.9916 0.1102
vn 0.1260 -0.9827 0.1361
vn 0.2635 -0.9558 0.1303
vn 0.5373 -0.8408 0.0660
vn 0.0424 -0.9948 0.0923
vn 0.0004 0.9990 0.0445
vn 0.0004 0.9990 0.0444
vn -0.0064 -0.9851 0.1720
vn 0.0324 -0.9994 0.0109
vn 0.1063 -0.9902 -0.0906
vn 0.2199 -0.9272 -0.3033
vn 0.0560 0.9972 -0.0489
vn 0.2020 -0.9475 -0.2478
vn 0.1086 0.9864 -0.1230
vn 0.3172 -0.9324 -0.1732
vn -0.0137 0.9996 0.0246
vn 0.3579 -0.8342 -0.4196
vn 0.5826 -0.8127 0.0052
vn 0.0433 -0.9969 -0.0660
vn 0.5380 -0.8429 0.0134
vn 0.4326 -0.9014 0.0160
vn 0.4280 -0.8877 0.1700
vn 0.0872 -0.9784 0.1874
vn 0.0872 -0.9784 0.1877
vn 0.0871 -0.9772 0.1936
vn 0.0871 -0.9771 0.1941
vn 0.2406 -0.9221 -0.3030
vn -0.1705 -0.9238 0.3429
vn 0.0904 -0.9918 -0.0898
vn 0.1925 -0.9200 0.3414
vn -0.0031 -0.9735 0.2286
vn -0.0449 -0.9752 0.2169
vn 0.0075 -0.9987 0.0497
vn -0.0454 -0.9897 0.1359
vn 0.0372 -0.9993 0.0082
vn -0.2732 -0.9486 0.1600
vn -0.0032 -0.9861 0.1663
vn -0.0695 -0.9809 0.1819
vn 0.0642 -0.9812 0.1820
vn 0.0663 -0.9975 0.0260
vn 0.0655 -0.9975 0.0258
vn 0.0650 -0.9976 0.0257
vn 0.4912 -0.8707 0.0234
vn -0.1380 -0.9743 0.1779
vn -0.5814 -0.0000 0.8136
vn -0.1236 0.9874 0.0986
vn 0.2617 -0.9493 0.1741
vn 0.1000 -0.9835 0.1507
vn 0.0292 -0.9887 0.1474
vn -0.0721 0.9973 0.0147
vn -0.0726 0.9973 0.0146
vn -0.0735 0.9972 0.0143
vn -0.1584 0.9700 -0.1845
vn 0.0150 0.9667 -0.2556
vn -0.2090 0.9566 -0.2030
vn 0.0667 -0.9974 0.0261
vn -0.1775 0.9652 -0.1920
vn -0.1705 -0.9851 0.0217
vn -0.0704 -0.9975 0.0061
vn -0.1017 -0.9948 0.0043
vn -0.2672 -0.9636 0.0099
vn -0.4293 -0.9032 -0.0039
vn -0.4291 -0.9032 -0.0039
vn -0.4296 -0.9030 -0.0040
vn -0.4328 -0.8937 0.1186
vn -0.1342 -0.9871 0.0869
vn -0.1320 -0.9692 0.2080
vn 0.5926 -0.7978 0.1110
vn 0.6578 -0.7323 0.1763
vn 0.6686 -0.7427 0.0371
vn -0.2294 0.9355 -0.2687
vn 0.0866 -0.9877 0.1299
vn 0.1645 -0.9828 0.0837
vn -0.1501 0.9121 -0.3815
vn -0.0582 -0.9952 0.0784
vn -0.0630 -0.9861 0.1540
vn -0.0631 -0.9861 0.1540
vn -0.2153 0.9103 -0.3535
vn -0.0632 -0.9860 0.1540
vn -0.1331 0.9623 -0.2373
vn 0.0126 -0.9953 0.0958
vn -0.1734 0.9596 -0.2215
vn -0.1730 0.9597 -0.2214
vn -0.1733 0.9597 -0.2214
vn 0.0218 -0.9889 0.1470
vn 0.0279 -0.9927 0.1172
vn -0.3109 0.8502 -0.4249
vn -0.3110 0.8505 -0.4242
vn -0.3110 0.8505 -0.4243
vn -0.2242 0.8641 -0.4507
vn -0.1365 0.9360 -0.3244
vn -0.1145 0.9358 -0.3334
vn 0.0823 -0.9111 -0.4039
vn -0.2146 0.9174 -0.3352
vn -0.2054 -0.8646 -0.4586
vn 0.1257 -0.4903 -0.8624
vn -0.0959 0.9878 -0.1225
vn -0.2102 0.9401 -0.2684
vn -0.1613 0.9682 -0.1912
vn -0.1114 0.9924 -0.0520
vn -0.4297 -0.9030 -0.0040
vn -0.0894 0.9959 -0.0147
vn -0.0857 0.9930 0.0817
vn -0.0606 0.9926 0.1052
vn -0.0938 0.9940 0.0557
vn -0.0828 -0.9922 0.0930
vn -0.3801 -0.9179 0.1134
vn -0.2978 -0.7054 0.6432
vn 0.0135 0.9971 0.0751
vn 0.1161 0.9884 0.0974
vn 0.1161 0.9885 0.0974
vn 0.1162 0.9884 0.0974
vn 0.1327 0.9806 -0.1443
vn 0.1172 -0.9790 0.1668
vn 0.1980 -0.9576 0.2092
vn 0.4049 -0.9040 0.1370
vn 0.4065 -0.9086 0.0961
vn 0.5048 -0.8604 0.0700
vn 0.4999 -0.8661 -0.0048
vn 0.6243 -0.7804 -0.0353
vn 0.6221 -0.7821 -0.0366
vn 0.6236 -0.7809 -0.0357
vn -0.0742 0.9971 0.0137
vn 0.0924 0.9851 -0.1450
vn 0.3819 -0.9026 0.1985
vn 0.5651 -0.7989 0.2059
vn 0.5740 -0.8143 0.0861
vn 0.6117 -0.7858 0.0918
vn 0.6132 -0.7899 -0.0049
vn -0.0918 0.9885 0.1200
vn 0.1261 0.9809 0.1480
vn -0.0782 0.9884 0.1305
vn 0.3878 -0.9216 -0.0171
vn -0.0997 0.9864 0.1309
vn 0.1448 -0.9666 0.2116
vn 0.2708 -0.9458 0.1790
vn 0.1579 -0.9603 0.2299
vn 0.1581 -0.9603 0.2299
vn 0.1571 -0.9605 0.2297
vn 0.0403 0.9881 0.1485
vn 0.1507 -0.9618 0.2284
vn 0.1482 -0.9624 0.2278
vn 0.1387 -0.9641 0.2266
vn -0.1122 0.9825 0.1489
vn -0.1502 0.9785 0.1412
vn -0.1103 0.9831 0.1461
vn -0.0828 0.9844 0.1554
vn 0.2669 -0.9309 0.2494
vn 0.2156 -0.9432 0.2527
vn 0.2192 -0.9617 0.1647
vn -0.0829 0.9844 0.1554
vn 0.0259 -0.9854 0.1684
vn 0.0273 -0.9853 0.1687
vn 0.0232 -0.9855 0.1678
vn -0.0045 -0.9641 0.2655
vn -0.0728 0.9972 0.0141
vn 0.1336 -0.9614 0.2404
vn -0.1341 -0.9614 0.2404
vn -0.1391 -0.9640 0.2267
vn -0.1482 -0.9624 0.2278
vn -0.1577 -0.9604 0.2298
vn -0.1579 -0.9603 0.2298
vn -0.1580 -0.9603 0.2298
vn -0.0723 0.9973 0.0141
vn -0.1582 -0.9603 0.2298
vn -0.2708 -0.9458 0.1790
vn -0.1448 -0.9666 0.2116
vn -0.1716 0.9597 -0.2227
vn -0.1710 0.9597 -0.2231
vn -0.2047 0.9543 -0.2179
vn -0.1751 0.9578 -0.2278
vn 0.1470 -0.9536 0.2627
vn 0.0834 0.9737 -0.2120
vn -0.1126 0.9776 -0.1780
vn -0.3749 0.9141 -0.1544
vn -0.1263 0.9771 -0.1714
vn 0.3294 -0.9143 0.2356
vn 0.3347 -0.9309 0.1460
vn 0.3311 -0.9322 0.1461
vn 0.3334 -0.9314 0.1461
vn 0.3299 -0.9326 0.1462
vn -0.3109 0.8501 -0.4250
vn -0.2919 0.8523 -0.4341
vn -0.3195 0.8386 -0.4413
vn -0.2922 0.8415 -0.4545
vn 0.5467 -0.8317 0.0971
vn -0.3288 0.8200 -0.4684
vn -0.3323 0.8212 -0.4638
vn -0.3335 0.8211 -0.4632
vn -0.3269 0.8214 -0.4674
vn -0.3359 0.8178 -0.4673
vn -0.3520 0.8299 -0.4329
vn -0.1470 -0.9536 0.2627
vn -0.2144 -0.9434 0.2529
vn -0.2669 -0.9308 0.2496
vn -0.2932 0.8277 -0.4785
vn -0.3209 0.8347 -0.4475
vn -0.1318 0.9666 -0.2196
vn -0.1242 0.9697 -0.2105
vn -0.1342 0.9688 -0.2081
vn -0.1348 0.9687 -0.2085
vn 0.0045 -0.9641 0.2655
vn -0.0273 -0.9853 0.1687
vn -0.0260 -0.9854 0.1684
vn -0.0233 -0.9855 0.1678
vn -0.1323 0.9661 -0.2215
vn -0.0219 -0.9856 0.1675
vn 0.0218 -0.9856 0.1675
vn 0.0595 -0.9966 0.0570
vn 0.3320 -0.9417 0.0539
vn 0.4035 -0.9141 0.0413
vn 0.4035 -0.9141 0.0412
vn 0.4035 -0.9141 0.0407
vn 0.5484 -0.8354 0.0374
vn 0.5989 -0.8004 0.0257
vn 0.7167 -0.6970 0.0224
vn 0.7151 -0.6971 -0.0521
vn 0.6214 -0.7826 -0.0370
vn 0.5763 -0.8172 0.0071
vn 0.2581 -0.9660 -0.0167
vn 0.0886 -0.9956 0.0292
vn -0.1132 -0.9930 -0.0339
vn -0.1320 0.9661 -0.2216
vn -0.1575 0.9603 -0.2302
vn -0.1430 0.9611 -0.2364
vn -0.0939 0.9708 -0.2207
vn -0.2180 -0.9620 0.1647
vn -0.1122 0.9709 -0.2115
vn -0.1120 0.9708 -0.2120
vn -0.1120 0.9708 -0.2122
vn -0.1160 0.9731 -0.1989
vn -0.1701 0.9667 -0.1910
vn -0.1396 0.9627 -0.2317
vn -0.2706 -0.8473 -0.4570
vn 0.2922 -0.9553 -0.0458
vn 0.1817 -0.9587 -0.2187
vn 0.3353 -0.9341 -0.1230
vn -0.1737 0.9558 -0.2371
vn 0.3105 -0.9349 -0.1719
vn 0.2563 -0.9103 -0.3252
vn 0.3596 -0.8961 -0.2603
vn 0.2965 -0.8749 -0.3828
vn -0.1497 0.9577 -0.2456
vn -0.0316 0.9800 -0.1966
vn -0.1982 0.9512 -0.2365
vn 0.1968 0.9515 -0.2365
vn 0.5587 -0.8280 -0.0478
vn 0.0320 0.9799 -0.1967
vn 0.4703 -0.8760 -0.1071
vn 0.4486 -0.8814 -0.1481
vn 0.4484 -0.8815 -0.1482
vn 0.4482 -0.8816 -0.1482
vn 0.4479 -0.8817 -0.1483
vn 0.4250 -0.8805 -0.2100
vn 0.4251 -0.8806 -0.2095
vn 0.4249 -0.8802 -0.2114
vn 0.1492 0.9579 -0.2454
vn 0.6587 -0.7013 -0.2728
vn 0.6266 -0.6703 -0.3977
vn 0.5300 -0.7820 -0.3279
vn 0.5389 -0.7778 -0.3233
vn 0.5370 -0.7788 -0.3243
vn 0.6030 -0.7838 -0.1486
vn 0.0388 -0.9922 -0.1181
vn 0.0735 -0.9677 -0.2411
vn -0.0763 -0.9941 0.0773
vn 0.0126 -0.9999 0.0018
vn 0.4248 -0.8801 -0.2119
vn 0.3891 -0.8778 -0.2794
vn 0.0115 -0.9697 -0.2439
vn -0.0736 -0.9578 -0.2778
vn 0.2382 -0.9712 -0.0097
vn 0.2040 -0.9484 -0.2428
vn 0.2046 -0.9484 -0.2423
vn 0.2013 -0.9478 -0.2473
vn 0.5282 -0.7829 -0.3288
vn 0.1997 -0.9491 -0.2436
vn 0.4738 -0.7915 -0.3861
vn 0.1993 -0.9492 -0.2437
vn 0.3664 -0.8235 -0.4332
vn 0.2022 -0.9427 -0.2654
vn 0.1699 -0.8863 -0.4309
vn 0.1266 -0.9007 -0.4155
vn 0.0758 -0.8956 -0.4383
vn 0.2455 -0.9423 -0.2275
vn -0.0763 -0.8956 -0.4383
vn -0.1270 -0.9006 -0.4157
vn -0.1699 -0.8863 -0.4309
vn -0.0032 -0.7433 -0.6689
vn -0.3665 -0.8234 -0.4331
vn 0.0106 -0.7275 -0.6861
vn -0.4736 -0.7915 -0.3862
vn -0.5283 -0.7829 -0.3288
vn -0.5369 -0.7788 -0.3243
vn -0.5300 -0.7820 -0.3279
vn -0.5989 -0.8004 0.0257
vn -0.5389 -0.7779 -0.3233
vn -0.7167 -0.6970 0.0224
vn -0.6266 -0.6702 -0.3977
vn -0.6601 -0.7025 -0.2661
vn -0.4266 -0.8808 -0.2053
vn -0.4265 -0.8807 -0.2061
vn -0.4263 -0.8803 -0.2083
vn -0.6132 -0.7899 -0.0049
vn -0.4262 -0.8801 -0.2091
vn -0.5271 -0.8442 -0.0978
vn -0.3891 -0.8778 -0.2794
vn -0.4603 -0.8500 -0.2561
vn -0.4253 -0.8455 -0.3228
vn -0.3928 -0.8589 -0.3287
vn -0.3024 -0.8483 -0.4347
vn -0.2240 -0.8754 -0.4284
vn -0.2543 -0.8720 -0.4183
vn -0.2529 -0.8740 -0.4151
vn -0.2525 -0.8744 -0.4143
vn -0.0418 -0.9329 -0.3576
vn -0.5478 -0.8300 -0.1050
vn 0.0415 -0.9329 -0.3576
vn 0.2531 -0.8737 -0.4155
vn 0.2544 -0.8719 -0.4184
vn 0.2528 -0.8741 -0.4149
vn 0.2243 -0.8750 -0.4290
vn 0.3019 -0.8482 -0.4353
vn 0.3928 -0.8589 -0.3287
vn 0.4269 -0.8448 -0.3225
vn 0.4622 -0.8492 -0.2555
vn -0.6789 -0.7265 -0.1066
vn -0.6826 -0.7227 -0.1090
vn -0.6833 -0.7218 -0.1095
vn -0.6881 -0.7252 -0.0231
vn -0.5989 -0.8008 0.0064
vn -0.5310 -0.8473 0.0078
vn -0.4475 -0.8819 -0.1485
vn -0.4477 -0.8818 -0.1485
vn -0.4478 -0.8817 -0.1484
vn -0.4034 -0.9141 0.0413
vn -0.4035 -0.9141 0.0412
vn -0.4034 -0.9140 0.0419
vn -0.4035 -0.9141 0.0407
vn -0.5484 -0.8354 0.0374
vn -0.5467 -0.8317 0.0971
vn 0.4502 -0.8253 -0.3409
vn -0.6117 -0.7858 0.0918
vn 0.3485 -0.8179 -0.4578
vn 0.3212 -0.8301 -0.4558
vn 0.3393 -0.8284 -0.4456
vn 0.2546 -0.8716 -0.4190
vn -0.5740 -0.8143 0.0861
vn -0.2546 -0.8716 -0.4190
vn -0.3403 -0.8278 -0.4459
vn -0.3225 -0.8295 -0.4559
vn -0.3485 -0.8179 -0.4578
vn -0.4494 -0.8253 -0.3419
vn -0.2968 -0.8746 -0.3833
vn -0.3601 -0.8958 -0.2606
vn -0.2565 -0.9101 -0.3255
vn -0.3115 -0.9349 -0.1699
vn -0.3350 -0.9341 -0.1236
vn -0.4473 -0.8819 -0.1486
vn -0.8141 -0.5803 -0.0230
vn -0.7151 -0.6971 -0.0514
vn -0.6238 -0.7807 -0.0356
vn -0.6222 -0.7820 -0.0365
vn -0.6227 -0.7816 -0.0363
vn -0.6243 -0.7804 -0.0353
vn -0.1815 -0.9587 -0.2191
vn -0.2922 -0.9553 -0.0458
vn 0.2717 -0.8466 -0.4576
vn -0.0888 -0.9956 0.0293
vn -0.4999 -0.8661 -0.0048
vn 0.1132 -0.9930 -0.0339
vn -0.5048 -0.8604 0.0700
vn -0.2382 -0.9712 -0.0097
vn -0.2046 -0.9484 -0.2424
vn -0.1997 -0.9491 -0.2436
vn -0.2041 -0.9484 -0.2428
vn -0.1993 -0.9492 -0.2437
vn -0.4065 -0.9086 0.0961
vn -0.4049 -0.9041 0.1367
vn -0.6623 -0.7272 0.1803
vn -0.5927 -0.7978 0.1105
vn -0.2016 -0.9478 -0.2470
vn 0.1313 -0.9693 0.2081
vn 0.1335 -0.9872 0.0869
vn 0.2659 -0.9639 0.0100
vn 0.2719 -0.9489 0.1601
vn -0.2582 -0.9660 -0.0163
vn -0.5766 -0.8170 0.0080
vn -0.5587 -0.8280 -0.0478
vn 0.0032 -0.9861 0.1663
vn -0.4688 -0.8766 -0.1081
vn -0.8108 -0.5794 -0.0833
vn -0.7885 -0.6069 -0.0993
vn -0.6779 -0.7275 -0.1059
vn -0.6902 -0.6944 -0.2035
vn 0.0695 -0.9809 0.1819
vn -0.5727 -0.7909 -0.2159
vn -0.5717 -0.7916 -0.2156
vn -0.5724 -0.7911 -0.2158
vn -0.5714 -0.7918 -0.2155
vn 0.4295 -0.9031 -0.0040
vn 0.4294 -0.9031 -0.0040
vn 0.4297 -0.9030 -0.0040
vn -0.1509 -0.9535 -0.2610
vn -0.1180 -0.9470 -0.2987
vn 0.4291 -0.9032 -0.0039
vn 0.1177 -0.9470 -0.2988
vn 0.1505 -0.9535 -0.2610
vn 0.4328 -0.8936 0.1189
vn 0.5714 -0.7918 -0.2155
vn 0.5717 -0.7916 -0.2156
vn 0.5724 -0.7911 -0.2158
vn 0.5726 -0.7909 -0.2159
vn 0.0454 -0.9897 0.1360
vn 0.6902 -0.6944 -0.2035
vn 0.6810 -0.7243 -0.1079
vn 0.6779 -0.7275 -0.1059
vn 0.6786 -0.7268 -0.1064
vn 0.7885 -0.6069 -0.0993
vn 0.0449 -0.9752 0.2169
vn 0.8134 -0.5761 -0.0814
vn 0.0031 -0.9735 0.2286
vn 0.8165 -0.5769 -0.0230
vn 0.6862 -0.7270 -0.0231
vn 0.5989 -0.8008 0.0059
vn 0.5329 -0.8461 0.0072
vn 0.4034 -0.9140 0.0419
vn -0.1924 -0.9200 0.3415
vn 0.1708 -0.9237 0.3428
vn -0.0875 -0.9783 0.1876
vn -0.0874 -0.9772 0.1936
vn -0.0874 -0.9771 0.1940
vn -0.0875 -0.9784 0.1874
vn -0.6030 -0.7838 -0.1486
vn -0.0644 -0.9812 0.1820
vn -0.1257 -0.4903 -0.8624
vn 0.2055 -0.8647 -0.4584
vn -0.0824 -0.9110 -0.4041
vn 0.6816 -0.7237 -0.1083
vn 0.5476 -0.8302 -0.1041
vn 0.5290 -0.8430 -0.0977
vn 0.1473 -0.9825 -0.1139
vn 0.1543 -0.9870 0.0447
vn 0.1503 -0.9877 0.0434
vn 0.1486 -0.9880 0.0428
vn -0.1491 -0.9879 0.0428
vn -0.1508 -0.9876 0.0434
vn -0.1548 -0.9869 0.0447
vn 0.1018 -0.9948 0.0043
vn -0.1564 -0.9867 0.0452
vn -0.1467 -0.9862 0.0771
vn 0.0704 -0.9975 0.0061
vn -0.0597 -0.9966 0.0570
vn -0.3320 -0.9417 0.0539
vn -0.3299 -0.9327 0.1460
vn -0.3315 -0.9321 0.1459
vn -0.3344 -0.9311 0.1458
vn -0.3360 -0.9305 0.1458
vn -0.3306 -0.9139 0.2355
vn -0.5651 -0.7989 0.2059
vn 0.1704 -0.9851 0.0218
vn -0.3819 -0.9026 0.1985
vn -0.3878 -0.9216 -0.0171
vn -0.1171 -0.9790 0.1670
vn -0.0658 -0.9975 0.0258
vn -0.0667 -0.9974 0.0261
vn -0.0663 -0.9975 0.0260
vn -0.6737 -0.7381 0.0360
vn -0.0865 -0.9877 0.1300
vn -0.1644 -0.9828 0.0836
vn -0.0652 -0.9975 0.0257
vn 0.0583 -0.9952 0.0784
vn 0.0631 -0.9861 0.1540
vn 0.0632 -0.9861 0.1540
vn -0.4912 -0.8707 0.0234
vn 0.0632 -0.9860 0.1540
vn -0.4326 -0.9014 0.0160
vn -0.0126 -0.9953 0.0958
vn -0.4280 -0.8877 0.1700
vn -0.0218 -0.9889 0.1470
vn -0.0279 -0.9927 0.1173
vn -0.1255 -0.9827 0.1360
vn -0.1245 -0.9751 0.1836
vn -0.2628 -0.9490 0.1743
vn -0.2646 -0.9555 0.1301
vn 0.1100 -0.9851 -0.1319
vn -0.5373 -0.8408 0.0660
vn -0.1103 -0.9851 -0.1319
vn -0.1477 -0.9825 -0.1139
vn -0.5380 -0.8429 0.0134
vn -0.5826 -0.8127 0.0052
vn -0.3611 -0.8351 -0.4150
vn 0.0033 -0.7433 -0.6690
vn 0.1559 -0.9867 0.0452
vn 0.1462 -0.9862 0.0771
vn -0.0108 -0.7276 -0.6859
vn 0.0762 -0.9941 0.0773
vn 0.0735 -0.9578 -0.2778
vn -0.0388 -0.9922 -0.1181
vn -0.1974 -0.9577 0.2092
vn -0.0126 -0.9999 0.0018
vn -0.0115 -0.9697 -0.2439
vn -0.0735 -0.9677 -0.2411
vn -0.2022 -0.9427 -0.2654
vn 0.0828 -0.9922 0.0930
vn -0.2440 -0.9424 -0.2288
vn 0.3801 -0.9180 0.1134
vn 0.2978 -0.7054 0.6432
vn -0.3202 -0.9318 -0.1712
vn -0.2020 -0.9475 -0.2478
vn -0.2199 -0.9272 -0.3034
vn -0.1064 -0.9902 -0.0907
vn -0.0292 -0.9887 0.1474
vn -0.1000 -0.9835 0.1507
vn -0.0324 -0.9994 0.0109
vn 0.0063 -0.9851 0.1720
vn -0.0424 -0.9948 0.0923
vn -0.3869 -0.0196 0.9219
vn -0.3880 -0.0200 0.9215
vn -0.3841 -0.0185 0.9231
vn -0.3830 -0.0180 0.9236
vn -0.3675 -0.0089 -0.9300
vn -0.3678 -0.0088 -0.9299
vn -0.3666 -0.0092 -0.9303
vn -0.3664 -0.0093 -0.9304
vn 0.6175 0.0330 -0.7859
vn 0.6175 0.0331 -0.7859
vn 0.6176 0.0330 -0.7858
vn 0.6176 0.0329 -0.7858
vn 0.9991 0.0425 -0.0019
vn 0.9993 0.0386 -0.0006
vn 0.9992 0.0397 -0.0009
vn 0.9990 0.0437 -0.0023
vn -0.0104 0.9997 -0.0221
vn -0.0992 0.9947 -0.0276
vn 0.0151 0.9995 -0.0278
vn -0.0729 0.9960 -0.0514
vn 0.4929 0.5473 0.6764
vn 0.6147 0.4302 0.6611
vn 0.5011 -0.2549 -0.8270
vn 0.5355 -0.2373 -0.8105
vn -0.4366 -0.2655 -0.8596
vn -0.4537 -0.2678 -0.8499
vn 0.9680 -0.0626 -0.2429
vn 0.9638 -0.0755 -0.2555
vn 0.9998 0.0184 -0.0098
vn 0.9993 0.0385 -0.0013
vn -0.5170 0.4517 0.7271
vn -0.5839 0.4825 0.6529
vn 0.5926 0.0177 0.8053
vn 0.5941 0.0203 0.8042
vn 0.5925 0.0174 0.8054
vn 0.5942 0.0206 0.8041
vn -0.9991 -0.0432 -0.0003
vn -0.9992 -0.0395 0.0005
vn -0.9990 -0.0451 -0.0007
vn -0.9993 -0.0376 0.0008
vn 0.3855 -0.0190 0.9225
vn 0.3872 -0.0197 0.9218
vn 0.3848 -0.0188 0.9228
vn 0.3879 -0.0200 0.9215
vn 0.3667 -0.0091 -0.9303
vn 0.3676 -0.0088 -0.9300
vn 0.3664 -0.0093 -0.9304
vn 0.3679 -0.0087 -0.9298
vn -0.6176 0.0329 -0.7858
vn -0.6175 0.0330 -0.7859
vn -0.6176 0.0328 -0.7858
vn -0.6175 0.0331 -0.7859
vn -0.9992 0.0397 -0.0010
vn -0.9991 0.0425 -0.0019
vn -0.9990 0.0437 -0.0023
vn -0.9993 0.0386 -0.0006
vn 0.0104 0.9997 -0.0221
vn 0.0997 0.9946 -0.0277
vn -0.0150 0.9995 -0.0278
vn 0.0728 0.9960 -0.0514
vn -0.6179 0.4267 0.6604
vn -0.4894 0.5503 0.6766
vn -0.5355 -0.2373 -0.8105
vn -0.5043 -0.2533 -0.8256
vn 0.4506 -0.2682 -0.8515
vn 0.4335 -0.2658 -0.8610
vn -0.9690 -0.0595 -0.2398
vn -0.9624 -0.0799 -0.2596
vn -0.9998 0.0160 -0.0085
vn -0.9994 0.0336 -0.0011
vn 0.5813 0.4815 0.6560
vn 0.5170 0.4519 0.7270
vn -0.5935 0.0204 0.8046
vn -0.5936 0.0205 0.8045
vn -0.5925 0.0185 0.8054
vn -0.5924 0.0184 0.8054
vn 0.9992 -0.0394 0.0005
vn 0.9993 -0.0376 0.0008
vn 0.9991 -0.0432 -0.0003
vn 0.9990 -0.0451 -0.0007
vn -0.1613 0.9864 -0.0322
vn -0.2024 0.9782 -0.0460
vn -0.1134 0.9930 -0.0328
vn -0.0521 0.9980 -0.0349
vn -0.0077 0.9990 -0.0442
vn 0.0077 0.9990 -0.0442
vn 0.0517 0.9980 -0.0350
vn 0.1143 0.9929 -0.0329
vn 0.2001 0.9787 -0.0456
vn 0.1603 0.9865 -0.0322
vn 0.0134 -0.9998 -0.0135
vn 0.0133 -0.9998 -0.0135
vn 0.0129 -0.9998 -0.0135
vn 0.0241 -0.9996 -0.0135
vn 0.0233 -0.9996 -0.0135
vn 0.0235 -0.9996 -0.0135
vn 0.0346 -0.9993 -0.0136
vn 0.0344 -0.9993 -0.0135
vn 0.0352 -0.9993 -0.0135
vn 0.0351 -0.9993 -0.0135
vn -0.0135 -0.9998 -0.0135
vn -0.0130 -0.9998 -0.0135
vn -0.0133 -0.9998 -0.0135
vn -0.0241 -0.9996 -0.0135
vn -0.0233 -0.9996 -0.0135
vn -0.0235 -0.9996 -0.0135
vn -0.0346 -0.9993 -0.0136
vn -0.0344 -0.9993 -0.0135
vn -0.0352 -0.9993 -0.0135
vn -0.0351 -0.9993 -0.0135
vn -0.0473 -0.2922 0.9552
vn -0.0927 -0.4842 0.8700
vn 0.0405 -0.4699 0.8818
vn 0.1153 -0.2201 0.9686
vn 0.0475 -0.2932 0.9549
vn 0.0927 -0.4846 0.8698
vn -0.0405 -0.4697 0.8819
vn -0.1151 -0.2200 0.9687
vn 0.0286 -0.7391 0.6730
vn -0.0965 -0.2345 -0.9673
vn -0.0335 -0.2751 -0.9608
vn -0.0578 -0.2341 -0.9705
vn 0.0082 -0.2479 -0.9687
vn -0.1197 -0.1427 -0.9825
vn 0.0204 -0.0735 -0.9971
vn 0.0199 -0.0734 -0.9971
vn 0.0209 -0.0735 -0.9971
vn 0.1526 -0.1625 -0.9748
vn 0.0237 -0.2186 -0.9755
vn 0.0628 -0.2321 -0.9707
vn -0.0753 -0.0724 -0.9945
vn -0.0286 -0.7388 0.6733
vn 0.0965 -0.2352 -0.9671
vn 0.0335 -0.2754 -0.9607
vn 0.0581 -0.2341 -0.9705
vn -0.0081 -0.2479 -0.9687
vn 0.1197 -0.1423 -0.9826
vn -0.0204 -0.0735 -0.9971
vn -0.0200 -0.0734 -0.9971
vn -0.0204 -0.0734 -0.9971
vn -0.0208 -0.0735 -0.9971
vn -0.1527 -0.1631 -0.9747
vn -0.0238 -0.2187 -0.9755
vn -0.0628 -0.2321 -0.9707
vn 0.0753 -0.0724 -0.9945
vn -0.8330 0.5358 -0.1380
vn -0.8047 0.5797 -0.1279
vn -0.0380 -0.9794 0.1982
vn 0.3887 -0.9145 0.1123
vn -0.0179 -0.9870 0.1599
vn -0.2558 -0.9463 0.1977
vn 0.1948 -0.9679 0.1591
vn 0.0114 -0.9889 0.1479
vn 0.0387 -0.9885 0.1464
vn -0.1371 -0.9741 0.1799
vn 0.0512 -0.9836 0.1731
vn 0.0895 -0.9824 0.1642
vn 0.0524 -0.9848 0.1653
vn 0.0021 -0.9846 0.1747
vn 0.1422 -0.9748 0.1722
vn 0.0491 -0.9865 0.1563
vn 0.0736 -0.9850 0.1561
vn -0.0425 -0.9828 0.1797
vn 0.6608 0.7214 -0.2075
vn 0.8486 0.5175 -0.1093
vn 0.5995 0.7831 -0.1654
vn 0.6701 0.7209 -0.1769
vn -0.0854 0.9676 -0.2375
vn 0.0638 0.9810 -0.1830
vn -0.0396 0.9823 -0.1832
vn -0.1539 0.9597 -0.2353
vn -0.2790 0.9327 -0.2287
vn -0.1729 0.9618 -0.2122
vn 0.8825 -0.4697 -0.0229
vn 0.8894 -0.4566 -0.0238
vn 0.0818 -0.9955 -0.0487
vn 0.0817 -0.9955 -0.0486
vn 0.0819 -0.9954 -0.0488
vn 0.0821 -0.9954 -0.0489
vn -0.1660 -0.9849 -0.0484
vn -0.1661 -0.9849 -0.0483
vn -0.1660 -0.9849 -0.0485
vn -0.1658 -0.9850 -0.0485
vn -0.8162 -0.5769 -0.0301
vn -0.8306 -0.5562 -0.0274
vn 0.0864 0.9949 0.0519
vn 0.1402 0.9864 0.0864
vn -0.0615 0.9943 0.0870
vn -0.0861 0.9949 0.0519
vn 0.8047 0.5797 -0.1279
vn 0.8330 0.5358 -0.1381
vn 0.0380 -0.9794 0.1982
vn -0.3933 -0.9126 0.1116
vn 0.0179 -0.9870 0.1599
vn 0.2558 -0.9463 0.1977
vn -0.1948 -0.9679 0.1591
vn -0.0114 -0.9889 0.1479
vn -0.0384 -0.9885 0.1464
vn 0.1372 -0.9740 0.1801
vn -0.0515 -0.9836 0.1730
vn -0.0895 -0.9824 0.1642
vn -0.0521 -0.9849 0.1654
vn -0.0021 -0.9846 0.1747
vn -0.1421 -0.9748 0.1720
vn -0.0494 -0.9865 0.1563
vn -0.0736 -0.9850 0.1561
vn 0.0425 -0.9828 0.1797
vn -0.6604 0.7219 -0.2068
vn -0.8456 0.5222 -0.1102
vn -0.6018 0.7814 -0.1650
vn -0.6724 0.7189 -0.1764
vn 0.0855 0.9676 -0.2375
vn -0.0638 0.9810 -0.1830
vn 0.0396 0.9823 -0.1832
vn 0.1539 0.9597 -0.2353
vn 0.2790 0.9327 -0.2287
vn 0.1729 0.9618 -0.2122
vn -0.8894 -0.4565 -0.0238
vn -0.8826 -0.4696 -0.0229
vn -0.0818 -0.9955 -0.0487
vn -0.0819 -0.9954 -0.0488
vn -0.0817 -0.9955 -0.0486
vn -0.0821 -0.9954 -0.0489
vn 0.1660 -0.9849 -0.0484
vn 0.1660 -0.9849 -0.0485
vn 0.1662 -0.9849 -0.0483
vn 0.1658 -0.9850 -0.0485
vn 0.8230 -0.5673 -0.0280
vn 0.8082 -0.5881 -0.0307
vn -0.0863 0.9949 0.0519
vn -0.1399 0.9864 0.0863
vn 0.0615 0.9943 0.0870
vn 0.0861 0.9949 0.0519
vn 0.6354 -0.7003 -0.3253
vn 0.4900 -0.7718 -0.4053
vn 0.3877 -0.7913 -0.4727
vn 0.4733 -0.7907 -0.3883
vn 0.1860 -0.8558 -0.4827
vn 0.2403 -0.8558 -0.4582
vn 0.0794 -0.8788 -0.4705
vn 0.0555 -0.8776 -0.4761
vn -0.0558 -0.8776 -0.4761
vn -0.0799 -0.8788 -0.4705
vn -0.2403 -0.8558 -0.4582
vn -0.1860 -0.8558 -0.4827
vn -0.4733 -0.7907 -0.3883
vn -0.3878 -0.7913 -0.4726
vn -0.4899 -0.7718 -0.4054
vn -0.6336 -0.7014 -0.3265
vn 0.7753 -0.5988 -0.2008
vn 0.7286 -0.6669 -0.1563
vn -0.7287 -0.6668 -0.1564
vn -0.7753 -0.5988 -0.2008
vt 0.792968 0.930734
vt 0.792968 0.930734
vt 0.973484 0.949219
vt 0.973484 0.949219
vt 0.711765 0.941406
vt 0.711765 0.933594
vt 0.918549 0.949219
vt 0.918549 0.949219
s 1
usemtl Material.005
f 243/1/1 244/1/2 241/1/2
f 244/1/2 240/1/3 241/1/2
f 278/2/4 276/1/4 226/1/4
f 288/1/4 278/2/4 226/1/4
f 279/1/5 287/1/5 393/2/5
f 394/1/5 279/1/5 393/2/5
f 1/1/6 2/1/6 3/1/6
f 2/1/6 4/1/6 3/1/6
f 284/1/7 280/1/7 286/1/7
f 283/1/7 284/1/7 286/1/7
f 287/1/8 285/1/9 274/1/10
f 393/2/11 287/1/8 274/1/10
f 3/1/12 292/1/12 1/1/12
f 277/2/13 282/1/14 281/1/15
f 1/1/16 292/1/17 5/1/16
f 392/1/18 277/2/13 281/1/15
f 5/1/16 292/1/17 65/1/17
f 292/1/19 6/1/19 65/1/19
f 282/1/20 284/1/20 283/1/20
f 6/1/19 249/1/21 65/1/19
f 65/1/22 249/1/22 7/1/22
f 249/1/23 250/1/23 7/1/23
f 7/1/24 250/1/24 8/1/24
f 250/1/25 260/1/25 8/1/25
f 8/1/26 260/1/26 9/1/26
f 260/1/27 262/1/27 9/1/27
f 281/1/20 282/1/20 283/1/20
f 262/1/28 10/1/28 9/1/28
f 9/1/29 10/1/29 11/1/29
f 279/1/30 275/2/31 280/1/32
f 11/1/33 10/1/33 12/1/33
f 10/1/34 13/1/34 12/1/34
f 12/1/34 13/1/34 14/1/34
f 13/1/35 300/1/35 14/1/35
f 14/1/36 300/1/36 15/1/36
f 284/1/37 279/1/30 280/1/32
f 282/1/38 279/1/30 284/1/37
f 287/1/39 279/1/30 282/1/38
f 277/2/40 287/1/39 282/1/38
f 13/1/41 16/1/41 300/1/41
f 300/1/42 16/1/42 298/1/42
f 16/1/43 17/1/43 298/1/43
f 298/1/44 17/1/45 18/1/46
f 285/1/47 287/1/39 277/2/40
f 18/1/46 17/1/45 19/1/48
f 278/2/49 285/1/47 277/2/40
f 19/1/48 17/1/45 20/1/50
f 17/1/51 258/1/51 20/1/51
f 20/1/52 258/1/52 263/1/52
f 276/1/53 278/2/49 277/2/40
f 395/1/54 280/1/54 275/2/54
f 286/1/54 280/1/54 395/1/54
f 392/1/55 276/1/56 277/2/57
f 16/1/58 391/1/58 17/1/58
f 17/1/59 391/1/59 258/1/59
f 226/1/60 276/1/56 392/1/55
f 394/1/61 275/2/61 279/1/61
f 395/1/61 275/2/61 394/1/61
f 288/1/62 285/1/63 278/2/64
f 18/1/65 21/1/65 298/1/65
f 298/1/66 21/1/66 297/1/66
f 274/1/67 285/1/63 288/1/62
f 297/1/68 21/1/68 22/1/68
f 272/1/69 266/1/69 267/1/69
f 22/1/70 21/1/70 23/1/70
f 273/1/71 266/1/72 272/1/73
f 23/1/74 21/1/74 24/1/74
f 21/1/75 18/1/75 24/1/75
f 24/1/76 18/1/77 25/1/78
f 18/1/77 19/1/79 25/1/78
f 25/1/80 19/1/80 26/1/80
f 19/1/81 20/1/81 26/1/81
f 269/1/82 273/1/82 272/1/82
f 271/1/83 269/1/83 272/1/83
f 270/1/84 269/1/83 271/1/83
f 268/1/85 269/1/85 270/1/85
f 25/1/86 26/1/86 27/1/86
f 26/1/87 28/1/87 27/1/87
f 27/1/88 28/1/89 29/1/90
f 264/1/91 267/1/91 266/1/91
f 29/1/90 28/1/89 30/1/92
f 28/1/93 31/1/94 30/1/95
f 30/1/95 31/1/94 49/1/96
f 265/1/97 264/1/97 266/1/97
f 178/1/98 264/1/98 265/1/98
f 271/1/99 264/1/99 178/1/99
f 270/1/100 271/1/100 178/1/100
f 31/1/101 28/1/102 32/1/103
f 268/1/104 270/1/104 178/1/104
f 28/1/105 26/1/105 32/1/105
f 263/1/106 254/1/106 249/1/106
f 26/1/107 20/1/107 32/1/107
f 252/1/106 254/1/106 263/1/106
f 20/1/108 263/1/109 32/1/110
f 260/1/111 261/1/111 262/1/111
f 263/1/109 33/1/112 32/1/110
f 255/2/111 261/1/111 260/1/111
f 33/1/112 34/1/113 32/1/110
f 32/1/103 34/1/114 31/1/101
f 34/1/115 35/1/115 31/1/115
f 31/1/116 35/1/116 49/1/116
f 35/1/117 36/1/117 49/1/117
f 49/1/118 36/1/118 37/1/118
f 13/1/119 259/2/119 16/1/119
f 37/1/120 36/1/121 38/1/122
f 36/1/123 39/1/123 38/1/123
f 38/1/124 39/1/124 295/1/124
f 253/2/119 259/2/119 13/1/119
f 295/1/125 39/1/125 40/1/125
f 39/1/126 36/1/126 40/1/126
f 250/1/127 255/2/127 260/1/127
f 36/1/128 35/1/128 40/1/128
f 248/1/127 255/2/127 250/1/127
f 35/1/129 34/1/129 40/1/129
f 391/1/130 257/1/130 258/1/130
f 34/1/131 33/1/131 40/1/131
f 40/1/132 33/1/132 41/1/132
f 256/2/133 257/1/133 391/1/133
f 41/1/134 33/1/135 292/1/136
f 16/1/137 256/2/137 391/1/137
f 292/1/136 33/1/135 6/1/138
f 33/1/135 263/1/139 6/1/138
f 6/1/138 263/1/139 249/1/140
f 259/2/137 256/2/137 16/1/137
f 261/1/141 253/2/142 251/1/143
f 259/2/144 253/2/142 261/1/141
f 256/2/145 259/2/144 261/1/141
f 38/1/146 295/1/146 245/1/146
f 255/2/147 256/2/145 261/1/141
f 295/1/148 42/1/148 245/1/148
f 245/1/149 42/1/149 4/1/149
f 42/1/150 3/1/150 4/1/150
f 257/1/151 256/2/145 255/2/147
f 248/1/152 257/1/151 255/2/147
f 254/1/153 257/1/151 248/1/152
f 252/1/154 257/1/151 254/1/153
f 41/1/155 294/1/155 40/1/155
f 294/1/156 295/1/156 40/1/156
f 253/2/157 13/1/157 10/1/157
f 251/1/157 253/2/157 10/1/157
f 252/1/158 263/1/158 258/1/158
f 257/1/158 252/1/158 258/1/158
f 245/1/159 4/1/159 247/1/159
f 251/1/160 10/1/160 262/1/160
f 261/1/160 251/1/160 262/1/160
f 248/1/161 250/1/161 249/1/161
f 254/1/162 248/1/162 249/1/162
f 70/1/163 44/1/163 43/1/163
f 245/1/164 247/1/164 246/1/164
f 44/1/165 45/1/165 43/1/165
f 43/1/166 45/1/166 46/1/166
f 45/1/167 47/1/167 46/1/167
f 46/1/168 47/1/168 247/1/168
f 240/1/169 245/1/169 246/1/170
f 247/1/171 47/1/171 239/1/171
f 47/1/172 48/1/172 239/1/172
f 239/1/173 48/1/173 242/1/173
f 244/1/169 245/1/169 240/1/169
f 242/1/174 48/1/174 37/1/174
f 38/1/175 245/1/175 244/1/175
f 37/1/176 48/1/176 49/1/176
f 37/1/120 38/1/122 244/1/177
f 49/1/178 48/1/178 336/1/178
f 243/1/179 37/1/179 244/1/179
f 336/1/180 48/1/180 50/1/180
f 48/1/181 47/1/181 50/1/181
f 241/1/182 37/1/182 243/1/182
f 47/1/183 45/1/183 50/1/183
f 50/1/184 45/1/184 51/1/184
f 45/1/185 44/1/185 51/1/185
f 51/1/186 44/1/187 52/1/188
f 44/1/187 70/1/189 52/1/188
f 242/1/190 37/1/190 241/1/190
f 70/1/191 53/1/191 52/1/191
f 239/1/192 242/1/192 241/1/192
f 53/1/193 329/2/193 52/1/193
f 52/1/194 329/2/194 54/1/194
f 329/2/195 55/1/195 54/1/195
f 240/1/196 239/1/196 241/1/196
f 55/1/197 56/1/197 54/1/197
f 246/1/198 239/1/198 240/1/198
f 56/1/199 57/1/199 54/1/199
f 54/1/200 57/1/200 52/1/200
f 57/1/201 58/1/201 52/1/201
f 52/1/202 58/1/202 51/1/202
f 58/1/203 59/1/204 51/1/205
f 51/1/206 59/1/206 50/1/206
f 247/1/207 239/1/207 246/1/207
f 272/1/208 264/1/208 271/1/208
f 267/1/208 264/1/208 272/1/208
f 269/1/209 268/1/209 233/1/209
f 43/1/210 46/1/210 70/1/210
f 70/1/211 46/1/211 60/1/211
f 46/1/212 247/1/212 60/1/212
f 310/1/213 328/1/214 227/1/215
f 238/1/216 310/1/216 227/1/216
f 313/1/217 310/1/217 238/1/217
f 325/1/218 313/1/218 238/1/218
f 59/1/204 58/1/203 335/1/219
f 234/1/220 325/1/220 238/1/220
f 335/1/221 58/1/221 334/1/221
f 58/1/222 57/1/222 334/1/222
f 334/1/223 57/1/223 61/1/223
f 57/1/224 56/1/224 61/1/224
f 61/1/225 56/1/226 62/1/227
f 56/1/228 55/1/228 62/1/228
f 62/1/229 55/1/229 63/1/229
f 55/1/230 329/2/230 63/1/230
f 63/1/231 329/2/231 64/1/231
f 329/2/232 330/1/232 64/1/232
f 64/1/233 330/1/233 7/1/233
f 235/1/234 234/1/234 238/1/234
f 7/1/235 330/1/235 65/2/235
f 330/1/236 66/2/236 65/2/236
f 236/1/237 235/1/237 238/1/237
f 66/2/238 67/1/238 65/2/238
f 65/2/239 67/1/239 5/2/240
f 237/1/241 236/1/241 238/1/241
f 5/2/240 67/1/239 1/2/242
f 227/1/243 237/1/243 238/1/243
f 1/2/244 67/1/244 2/1/244
f 225/1/245 237/1/246 227/1/247
f 2/1/244 67/1/244 4/1/244
f 67/1/248 60/1/248 4/1/248
f 4/1/249 60/1/249 247/1/249
f 221/1/250 237/1/251 225/1/252
f 236/1/253 237/1/253 221/1/253
f 147/1/254 236/1/254 221/1/254
f 235/1/255 236/1/255 147/1/255
f 334/1/256 61/1/256 68/1/256
f 266/1/257 235/1/257 147/1/257
f 61/1/258 69/1/258 68/1/258
f 68/1/259 69/1/259 337/1/259
f 273/1/71 235/1/260 266/1/72
f 234/1/261 235/1/261 273/1/261
f 325/1/262 234/1/262 273/1/262
f 269/1/263 325/1/263 273/1/263
f 62/1/227 69/1/264 61/1/225
f 326/1/265 325/1/265 269/1/265
f 233/1/266 326/1/266 269/1/266
f 232/1/267 326/1/267 233/1/267
f 173/1/268 232/1/268 233/1/268
f 66/2/269 331/1/269 67/1/269
f 172/1/268 232/1/268 173/1/268
f 67/1/270 331/1/270 60/1/270
f 331/1/271 70/1/271 60/1/271
f 328/1/272 232/1/272 172/1/272
f 171/1/273 328/1/273 172/1/274
f 168/1/275 328/1/273 171/1/273
f 318/1/276 283/1/276 286/1/276
f 7/1/277 71/1/277 64/1/277
f 71/1/278 72/1/278 64/1/278
f 64/1/279 72/1/279 63/1/279
f 72/1/280 73/1/280 63/1/280
f 63/1/281 73/1/281 62/1/281
f 73/1/282 74/1/282 62/1/282
f 62/1/283 74/1/284 69/1/285
f 226/1/286 228/1/286 288/1/286
f 14/1/287 15/1/287 318/1/287
f 286/1/35 14/1/35 318/1/35
f 12/1/34 14/1/34 286/1/34
f 71/1/288 75/1/288 72/1/288
f 395/1/34 12/1/34 286/1/34
f 75/1/289 76/1/289 72/1/289
f 72/1/290 76/1/290 73/1/290
f 76/1/291 77/1/291 73/1/291
f 73/1/292 77/1/292 74/1/292
f 86/1/33 12/1/33 395/1/33
f 231/1/293 86/1/293 395/1/293
f 394/1/294 231/1/294 395/1/294
f 393/1/295 231/1/295 394/1/295
f 71/1/296 7/1/296 75/1/296
f 230/1/297 231/1/297 393/1/297
f 7/1/298 8/1/298 75/1/298
f 75/1/299 8/1/299 78/1/299
f 8/1/300 9/1/301 78/1/302
f 274/1/303 230/1/303 393/1/303
f 9/1/301 11/1/304 78/1/302
f 78/1/302 11/1/304 79/2/305
f 11/1/306 80/1/306 79/2/306
f 229/1/307 230/1/307 274/1/307
f 288/1/308 229/1/308 274/1/308
f 168/1/309 229/1/309 288/1/309
f 228/1/310 168/1/310 288/1/310
f 75/1/311 78/1/311 81/1/311
f 78/1/312 82/1/312 81/1/312
f 81/1/313 82/1/313 83/1/313
f 328/1/314 168/1/310 228/1/310
f 83/1/315 82/1/316 84/1/317
f 82/1/318 79/2/318 84/1/318
f 227/1/215 328/1/214 228/1/319
f 79/2/320 80/1/320 84/1/320
f 84/1/321 80/1/321 85/1/321
f 80/1/322 86/1/322 85/1/322
f 85/1/323 86/1/323 87/1/323
f 86/1/324 231/1/325 87/1/326
f 226/1/327 227/1/215 228/1/319
f 231/1/325 230/1/328 87/1/326
f 87/1/329 230/1/329 88/1/329
f 230/1/330 229/2/330 88/1/330
f 225/1/245 227/1/247 226/1/331
f 224/1/332 225/1/245 226/1/331
f 392/1/333 224/1/333 226/1/333
f 223/1/334 224/1/334 392/1/334
f 78/1/335 79/2/335 82/1/335
f 281/1/336 223/1/336 392/1/336
f 283/1/337 223/1/337 281/1/337
f 317/1/338 283/1/338 318/1/338
f 223/1/339 283/1/339 317/1/339
f 75/1/340 81/1/340 76/1/340
f 76/1/341 81/1/342 89/1/343
f 81/1/342 83/1/344 89/1/343
f 225/1/252 219/1/345 221/1/250
f 218/1/346 219/1/346 225/1/346
f 224/1/347 218/1/347 225/1/347
f 217/1/348 218/1/348 224/1/348
f 76/1/349 89/1/349 77/1/349
f 223/1/350 217/1/351 224/1/352
f 215/1/353 217/1/351 223/1/350
f 317/1/354 215/1/353 223/1/350
f 214/1/355 215/1/355 317/1/355
f 85/1/356 87/1/356 90/1/356
f 90/1/357 87/1/357 91/1/357
f 87/1/358 88/1/358 91/1/358
f 222/1/359 214/1/359 317/1/359
f 316/1/360 214/1/360 222/1/360
f 146/1/361 147/1/362 221/1/363
f 219/1/364 146/1/361 221/1/363
f 85/1/365 90/1/365 84/1/365
f 90/1/366 92/1/367 84/1/368
f 220/1/369 146/1/361 219/1/364
f 92/1/367 93/1/370 84/1/368
f 84/1/317 93/1/371 83/1/315
f 93/1/372 94/1/372 83/1/372
f 83/1/373 94/1/373 89/1/373
f 94/1/374 95/1/375 89/1/376
f 89/1/377 95/1/377 77/1/377
f 95/1/378 96/1/378 77/1/378
f 77/1/379 96/1/379 74/1/379
f 96/1/380 97/1/380 74/1/380
f 74/1/284 97/1/381 69/1/285
f 97/1/382 98/1/382 69/1/382
f 69/1/383 98/1/383 337/1/383
f 98/1/384 99/1/384 337/1/384
f 337/1/385 99/1/385 338/1/385
f 140/1/386 220/1/386 219/1/386
f 218/1/387 140/1/387 219/1/387
f 216/1/388 140/1/388 218/1/388
f 217/1/389 216/1/389 218/1/389
f 91/1/390 92/1/390 90/1/390
f 215/1/391 216/1/392 217/1/393
f 139/1/394 216/1/392 215/1/391
f 214/1/395 139/1/395 215/1/395
f 213/1/396 139/1/396 214/1/396
f 99/1/397 98/1/397 29/1/397
f 98/1/398 100/1/398 29/1/398
f 29/1/399 100/1/399 27/1/399
f 100/1/400 101/1/400 27/1/400
f 316/1/401 213/1/401 214/1/401
f 101/1/402 102/1/402 27/1/402
f 27/1/403 102/1/403 25/1/403
f 102/1/404 103/1/404 25/1/404
f 25/1/405 103/1/405 24/1/405
f 138/1/406 213/1/406 316/1/406
f 321/1/407 138/1/407 316/1/407
f 212/1/408 138/1/408 321/1/408
f 302/1/409 138/1/409 212/1/409
f 98/1/410 97/1/410 100/1/410
f 22/1/411 138/1/411 302/1/411
f 97/1/412 104/1/412 100/1/412
f 100/1/413 104/1/414 101/1/415
f 104/1/414 398/1/416 101/1/415
f 101/1/417 398/1/418 105/1/419
f 23/1/420 138/1/420 22/1/420
f 105/1/421 398/1/421 106/1/421
f 398/1/422 107/1/422 106/1/422
f 106/1/423 107/1/424 108/1/425
f 107/1/426 109/1/426 108/1/426
f 343/1/427 342/1/427 341/1/427
f 208/1/428 343/1/428 341/1/428
f 211/1/429 338/1/429 209/1/429
f 209/1/430 341/1/430 210/1/430
f 101/1/417 105/1/419 102/1/431
f 105/1/432 103/1/432 102/1/432
f 208/1/433 341/1/433 209/1/433
f 338/1/434 208/1/434 209/1/434
f 99/1/435 208/1/435 338/1/435
f 30/1/436 99/1/437 29/1/438
f 108/1/425 110/1/439 106/1/423
f 208/1/440 99/1/437 30/1/436
f 106/1/441 110/1/441 111/1/441
f 49/1/442 208/1/440 30/1/436
f 111/1/443 110/1/443 112/1/443
f 343/1/444 208/1/444 49/1/444
f 112/1/445 110/1/445 113/1/445
f 110/1/446 114/1/446 113/1/446
f 113/1/447 114/1/447 115/1/447
f 336/1/448 343/1/448 49/1/448
f 115/1/449 114/1/449 116/1/449
f 114/1/450 117/1/450 116/1/450
f 116/1/451 117/1/451 118/1/451
f 50/1/452 207/1/452 336/1/452
f 118/1/453 117/1/453 397/1/453
f 59/1/454 207/1/454 50/1/454
f 397/1/455 117/1/455 119/1/455
f 117/1/456 120/1/457 119/1/458
f 204/1/459 203/1/459 205/1/459
f 120/1/457 121/1/460 119/1/458
f 202/1/461 203/1/461 204/1/461
f 121/1/462 399/1/462 119/1/462
f 119/1/463 399/1/463 122/1/463
f 399/1/464 123/1/465 122/1/466
f 201/1/467 202/1/467 204/1/467
f 123/1/465 124/1/468 122/1/466
f 206/1/469 152/1/469 161/1/469
f 124/1/470 125/1/470 122/1/470
f 122/1/471 125/1/471 126/1/471
f 125/1/472 127/1/472 126/1/472
f 126/1/473 127/1/473 128/1/473
f 127/1/474 129/1/474 128/1/474
f 128/1/475 129/1/475 130/1/475
f 129/1/476 131/1/477 130/1/478
f 130/1/479 131/1/479 132/1/479
f 151/1/480 152/1/480 206/1/480
f 132/1/481 131/1/481 133/1/481
f 131/1/482 134/1/483 133/1/484
f 133/1/485 134/1/485 135/1/485
f 134/1/486 136/1/486 135/1/486
f 135/1/487 136/1/487 396/1/487
f 136/1/488 103/1/488 396/1/488
f 396/1/489 103/1/489 105/1/489
f 149/1/490 151/1/491 206/1/492
f 203/1/493 149/1/493 206/1/493
f 205/1/494 203/1/494 206/1/494
f 161/1/495 205/1/495 206/1/495
f 137/1/496 123/1/497 399/1/498
f 162/1/499 205/1/500 161/1/501
f 163/1/502 205/1/500 162/1/499
f 204/1/503 205/1/503 163/1/503
f 164/2/504 204/1/504 163/1/504
f 103/1/505 136/1/505 24/1/505
f 201/1/506 204/1/506 164/2/506
f 24/1/507 136/1/507 23/1/507
f 136/1/508 134/1/508 23/1/508
f 23/1/509 134/1/509 138/1/509
f 134/1/483 131/1/482 138/1/510
f 165/2/511 201/1/511 164/2/511
f 131/1/477 129/1/476 138/1/512
f 138/1/513 129/1/513 213/1/513
f 129/1/514 127/1/514 213/1/514
f 213/1/515 127/1/515 139/1/515
f 127/1/516 125/1/516 139/1/516
f 139/1/517 125/1/517 216/1/517
f 125/1/518 124/1/518 216/1/518
f 216/1/519 124/1/519 140/1/519
f 124/1/520 123/1/520 140/1/520
f 140/1/521 123/1/521 141/1/521
f 123/1/497 137/1/496 141/1/522
f 148/1/523 149/1/523 203/1/523
f 202/1/524 148/1/524 203/1/524
f 199/1/525 148/1/526 202/1/527
f 198/1/528 199/1/525 202/1/527
f 140/1/529 141/1/529 220/1/529
f 141/1/530 142/1/530 220/1/530
f 220/1/531 142/1/531 143/1/531
f 142/1/532 144/1/532 143/1/532
f 201/1/533 198/1/533 202/1/533
f 144/1/534 357/1/534 143/1/534
f 200/2/535 198/1/535 201/1/535
f 357/1/536 145/1/536 143/1/536
f 143/1/537 145/1/538 146/1/539
f 145/1/538 147/1/540 146/1/539
f 165/2/541 200/2/541 201/1/541
f 167/1/542 200/2/542 165/2/542
f 349/1/543 167/1/543 348/1/543
f 200/2/544 167/1/544 349/1/544
f 146/1/539 220/1/545 143/1/537
f 196/2/546 200/2/546 349/1/546
f 198/1/547 200/2/547 196/2/547
f 191/1/548 192/1/548 197/1/548
f 195/1/549 191/1/549 197/1/549
f 144/1/550 142/1/550 199/1/550
f 199/1/551 142/1/551 148/1/551
f 142/1/552 141/1/552 148/1/552
f 193/1/553 191/1/553 195/1/553
f 141/1/554 137/1/554 148/1/554
f 148/1/555 137/1/555 149/1/555
f 137/1/556 150/1/556 149/1/556
f 149/1/490 150/1/557 151/1/491
f 150/1/558 120/1/558 151/1/558
f 189/1/559 191/1/559 193/1/559
f 120/1/560 117/1/561 151/1/562
f 151/1/562 117/1/561 152/1/563
f 198/1/564 192/1/565 199/1/566
f 152/1/567 117/1/567 153/1/567
f 117/1/568 114/1/568 153/1/568
f 197/1/569 192/1/565 198/1/564
f 114/1/570 110/1/570 153/1/570
f 153/1/571 110/1/571 154/1/571
f 196/2/572 197/1/572 198/1/572
f 154/1/573 110/1/574 155/1/575
f 110/1/574 108/1/576 155/1/575
f 195/1/577 197/1/577 196/2/577
f 108/1/578 109/1/578 155/1/578
f 155/1/579 109/1/580 156/1/581
f 109/1/582 104/1/582 156/1/582
f 349/1/583 195/1/583 196/2/583
f 104/1/584 97/1/584 156/1/584
f 193/1/585 195/1/585 349/1/585
f 97/1/586 96/1/586 156/1/586
f 156/1/587 96/1/587 157/1/587
f 96/1/588 95/1/588 157/1/588
f 157/1/589 95/1/589 158/1/589
f 95/1/375 94/1/374 158/1/590
f 194/1/591 193/1/591 349/1/591
f 352/1/592 193/1/592 194/1/592
f 187/1/593 193/1/594 352/1/595
f 188/1/596 193/1/594 187/1/593
f 150/1/597 121/1/597 120/1/597
f 189/1/598 193/1/598 188/1/598
f 364/1/599 144/1/599 199/1/599
f 192/1/600 364/1/600 199/1/600
f 353/1/601 364/1/601 192/1/601
f 156/1/581 157/1/602 155/1/579
f 155/1/603 157/1/603 154/1/603
f 157/1/604 158/1/604 154/1/604
f 154/1/605 158/1/605 159/1/605
f 158/1/606 160/1/607 159/1/608
f 159/1/609 160/1/610 161/1/611
f 191/1/612 353/1/612 192/1/612
f 161/1/611 160/1/610 162/1/613
f 160/1/614 93/1/614 162/1/614
f 189/1/615 353/1/615 191/1/615
f 93/1/616 92/1/616 162/1/616
f 162/1/617 92/1/617 163/1/617
f 92/1/618 91/1/619 163/1/620
f 163/1/620 91/1/619 164/2/621
f 91/1/622 88/1/622 164/2/622
f 164/2/623 88/1/623 165/2/623
f 190/1/624 353/1/624 189/1/624
f 165/2/625 88/1/625 166/1/625
f 88/1/626 229/2/626 166/1/626
f 166/1/627 229/2/627 167/1/627
f 355/1/628 190/1/629 189/1/630
f 167/1/631 229/2/631 348/1/631
f 229/2/632 168/1/632 348/1/632
f 348/1/633 168/1/633 169/1/633
f 188/1/634 355/1/628 189/1/630
f 169/1/635 168/1/635 170/1/635
f 168/1/636 171/1/637 170/1/636
f 183/1/638 355/1/638 188/1/638
f 171/1/637 172/1/639 170/1/636
f 185/1/640 183/1/640 188/1/640
f 172/1/641 173/1/641 170/1/641
f 187/1/642 185/1/642 188/1/642
f 173/1/641 233/1/641 170/1/641
f 170/1/643 233/1/643 174/1/643
f 233/1/644 268/1/644 174/1/644
f 186/1/645 185/1/645 187/1/645
f 352/1/646 186/1/646 187/1/646
f 176/1/647 186/1/647 352/1/647
f 185/1/648 186/1/648 176/1/648
f 154/1/649 159/1/649 153/1/649
f 177/2/650 185/1/650 176/1/650
f 153/1/651 159/1/651 152/1/651
f 159/1/652 161/1/652 152/1/652
f 183/1/653 185/1/653 177/2/653
f 179/1/654 183/1/654 177/2/654
f 356/1/655 183/1/655 179/1/655
f 184/1/656 183/1/656 356/1/656
f 158/1/606 94/1/657 160/1/607
f 94/1/658 93/1/658 160/1/658
f 355/1/659 183/1/659 184/1/659
f 357/1/660 182/1/660 180/1/660
f 145/1/661 357/1/661 180/1/661
f 361/1/662 362/1/662 359/1/662
f 167/1/663 165/2/663 166/1/663
f 359/1/664 180/1/664 181/1/664
f 145/1/665 180/1/665 359/1/665
f 362/1/666 145/1/666 359/1/666
f 147/1/667 145/1/667 362/1/667
f 169/1/668 170/1/668 175/2/668
f 356/1/669 147/1/669 362/1/669
f 170/1/670 174/1/670 175/2/670
f 175/2/671 174/1/671 352/1/671
f 179/1/672 147/1/672 356/1/672
f 266/1/673 147/1/673 179/1/673
f 265/1/674 266/1/674 179/1/674
f 178/1/675 265/1/675 179/1/675
f 268/1/676 176/1/676 174/1/676
f 174/1/677 176/1/677 352/1/677
f 177/2/678 178/1/678 179/1/678
f 268/1/679 178/1/679 177/2/679
f 176/1/680 268/1/680 177/2/680
f 309/3/681 310/3/682 313/3/683
f 312/3/684 309/3/681 313/3/683
f 327/3/685 232/3/686 328/3/687
f 311/3/688 327/3/685 328/3/687
f 324/3/689 326/3/690 232/3/691
f 327/3/692 324/3/689 232/3/691
f 323/3/693 325/3/694 326/3/695
f 324/3/696 323/3/693 326/3/695
f 327/3/697 311/3/697 309/3/697
f 312/3/698 327/3/698 309/3/698
f 324/3/699 327/3/699 312/3/699
f 323/3/700 324/3/700 312/3/700
f 314/3/701 322/3/701 321/3/701
f 316/3/702 314/3/702 321/3/702
f 319/3/703 320/3/703 317/3/703
f 318/3/704 319/3/704 317/3/704
f 290/3/705 319/3/705 318/3/705
f 15/3/706 290/3/706 318/3/706
f 222/3/707 317/3/707 320/3/707
f 315/3/708 222/3/708 320/3/708
f 316/3/709 222/3/709 315/3/709
f 314/3/710 316/3/710 315/3/710
f 212/3/711 322/3/711 291/3/711
f 321/3/712 322/3/712 212/3/712
f 325/3/713 312/3/714 313/3/715
f 323/3/716 312/3/714 325/3/713
f 310/3/717 311/3/718 328/3/719
f 309/3/720 311/3/718 310/3/717
f 294/3/721 308/3/722 305/3/723
f 41/3/724 308/3/722 294/3/721
f 292/3/725 307/3/726 293/4/727
f 3/3/728 307/3/726 292/3/725
f 3/3/729 304/3/730 307/3/731
f 42/3/732 304/3/730 3/3/729
f 42/3/733 306/3/734 304/3/735
f 295/3/736 306/3/734 42/3/733
f 307/3/737 308/3/737 293/4/737
f 305/3/738 308/3/738 307/3/738
f 304/3/739 305/3/739 307/3/739
f 306/3/740 305/3/740 304/3/740
f 302/3/741 303/3/741 22/3/741
f 301/3/742 303/3/742 302/3/742
f 298/3/743 299/3/743 300/3/743
f 289/3/744 299/3/744 298/3/744
f 300/3/745 290/3/745 15/3/745
f 299/3/746 290/3/746 300/3/746
f 297/3/747 289/3/747 298/3/747
f 296/3/748 289/3/748 297/3/748
f 22/3/749 296/3/749 297/3/749
f 303/3/750 296/3/750 22/3/750
f 301/3/751 302/3/751 212/3/751
f 291/3/752 301/3/752 212/3/752
f 305/3/753 306/3/754 295/3/755
f 294/3/756 305/3/753 295/3/755
f 293/4/757 308/3/758 41/3/759
f 292/3/760 293/4/757 41/3/759
f 322/3/761 314/3/761 315/3/761
f 320/3/762 322/3/762 315/3/762
f 319/3/763 322/3/763 320/3/763
f 290/3/764 322/3/764 319/3/764
f 291/3/765 322/3/765 290/3/765
f 301/3/766 291/3/766 290/3/766
f 299/3/767 301/3/767 290/3/767
f 289/3/768 301/3/768 299/3/768
f 296/3/769 301/3/769 289/3/769
f 303/3/770 301/3/770 296/3/770
f 283/3/771 286/3/772 395/3/773
f 394/3/774 283/3/771 395/3/773
f 281/4/775 283/3/771 394/3/774
f 393/3/776 281/4/775 394/3/774
f 392/3/777 281/4/775 393/3/776
f 274/3/778 392/3/777 393/3/776
f 288/3/779 392/3/777 274/3/778
f 226/3/780 392/3/777 288/3/779
f 16/3/781 10/3/782 13/3/783
f 262/3/784 10/3/782 16/3/781
f 391/3/785 262/3/784 16/3/781
f 260/3/786 262/3/784 391/3/785
f 258/3/787 260/3/786 391/3/785
f 250/3/788 260/3/786 258/3/787
f 249/4/789 250/3/788 258/3/787
f 263/3/790 249/4/789 258/3/787
f 389/5/791 390/5/791 350/5/791
f 388/5/792 390/5/792 389/5/792
f 351/5/793 388/5/793 389/5/793
f 347/5/794 388/5/794 351/5/794
f 385/5/795 387/5/795 386/5/795
f 383/5/796 385/5/796 386/5/796
f 384/5/797 385/5/797 383/5/797
f 332/5/798 384/5/798 383/5/798
f 381/6/799 382/6/799 363/6/799
f 380/6/800 382/6/800 381/6/800
f 360/6/801 380/6/801 381/6/801
f 379/6/802 380/6/802 360/6/802
f 378/6/803 379/6/803 360/6/803
f 354/6/804 379/6/804 378/6/804
f 377/6/805 354/6/805 378/6/806
f 376/6/807 354/6/805 377/6/805
f 374/6/808 354/6/808 376/6/808
f 358/6/809 374/6/809 376/6/809
f 375/6/810 374/6/810 358/6/810
f 373/6/811 374/6/811 375/6/811
f 371/6/812 344/6/812 372/6/812
f 370/6/813 371/6/813 372/6/813
f 369/6/814 371/6/814 370/6/814
f 368/6/815 369/6/815 370/6/815
f 340/6/816 369/6/816 368/6/816
f 367/6/817 340/6/817 368/6/817
f 339/6/818 340/6/819 367/6/820
f 366/6/821 339/6/818 367/6/820
f 333/6/822 366/6/822 367/6/822
f 365/6/823 366/6/823 333/6/823
f 345/6/824 365/6/824 333/6/824
f 346/6/825 345/6/825 333/6/825
f 373/6/826 375/6/826 144/6/826
f 364/6/827 373/6/827 144/6/827
f 363/6/828 382/6/828 356/6/828
f 362/6/829 363/6/829 356/6/829
f 381/6/830 363/6/830 362/6/830
f 361/6/831 381/6/831 362/6/831
f 359/6/832 381/6/832 361/6/832
f 360/6/833 381/6/833 359/6/833
f 378/6/834 360/6/834 359/6/834
f 181/6/835 378/6/835 359/6/835
f 377/6/836 378/6/836 181/6/836
f 180/6/837 377/6/837 181/6/837
f 376/6/838 377/6/838 180/6/838
f 182/6/839 376/6/839 180/6/839
f 357/6/840 376/6/840 182/6/840
f 358/6/841 376/6/841 357/6/841
f 375/6/842 358/6/842 357/6/842
f 144/6/843 375/6/843 357/6/843
f 184/6/844 356/6/844 382/6/844
f 380/6/845 184/6/845 382/6/845
f 379/6/846 184/6/846 380/6/846
f 355/6/847 184/6/847 379/6/847
f 190/6/848 355/6/848 379/6/848
f 354/6/849 190/6/849 379/6/849
f 353/6/850 190/6/850 354/6/850
f 374/6/851 353/6/851 354/6/851
f 364/6/852 353/6/852 374/6/852
f 373/6/853 364/6/853 374/6/853
f 347/5/854 351/5/854 175/5/854
f 352/5/855 347/5/855 175/5/855
f 169/5/856 175/5/857 351/5/858
f 389/5/859 169/5/856 351/5/858
f 348/5/860 169/5/861 389/5/862
f 350/5/863 348/5/860 389/5/862
f 350/5/864 390/5/864 349/5/864
f 348/5/865 350/5/865 349/5/865
f 388/5/866 347/5/866 352/5/866
f 194/5/867 388/5/867 352/5/867
f 390/5/868 388/5/868 194/5/868
f 349/5/869 390/5/869 194/5/869
f 337/6/870 346/6/870 68/6/870
f 345/6/871 346/6/871 337/6/871
f 344/6/872 336/6/872 372/6/872
f 343/6/873 336/6/873 344/6/873
f 371/6/874 343/6/874 344/6/874
f 342/6/875 343/6/875 371/6/875
f 341/6/876 342/6/876 371/6/876
f 369/6/877 341/6/877 371/6/877
f 340/6/878 341/6/878 369/6/878
f 210/6/879 341/6/879 340/6/879
f 339/6/880 210/6/880 340/6/880
f 209/6/881 210/6/881 339/6/881
f 366/6/882 209/6/882 339/6/882
f 211/6/883 209/6/883 366/6/883
f 338/6/884 211/6/884 366/6/884
f 365/6/885 338/6/885 366/6/885
f 345/6/886 338/6/886 365/6/886
f 337/6/887 338/6/887 345/6/887
f 207/6/888 372/6/888 336/6/888
f 370/6/889 372/6/889 207/6/889
f 368/6/890 370/6/890 207/6/890
f 59/6/891 368/6/891 207/6/891
f 335/6/892 368/6/892 59/6/892
f 367/6/893 368/6/893 335/6/893
f 334/6/894 367/6/894 335/6/894
f 333/6/895 367/6/895 334/6/895
f 68/6/896 333/6/896 334/6/896
f 346/6/897 333/6/897 68/6/897
f 331/5/898 332/5/898 70/5/898
f 384/5/899 332/5/899 331/5/899
f 66/5/900 384/5/901 331/5/902
f 385/5/903 384/5/901 66/5/900
f 330/5/904 385/5/905 66/5/906
f 387/5/907 385/5/905 330/5/904
f 329/5/908 387/5/908 330/5/908
f 386/5/909 387/5/909 329/5/909
f 383/5/910 70/5/910 332/5/910
f 53/5/911 70/5/911 383/5/911
f 386/5/912 53/5/912 383/5/912
f 329/5/913 53/5/913 386/5/913
f 105/7/914 106/7/914 396/7/914
f 106/7/915 111/7/915 396/7/915
f 111/7/916 112/7/916 396/7/916
f 396/7/917 112/7/917 135/7/917
f 112/7/918 113/7/918 135/7/918
f 135/7/919 113/7/919 133/7/919
f 113/7/920 115/7/920 133/7/920
f 133/7/921 115/7/921 132/7/921
f 132/7/922 115/7/922 130/7/922
f 115/7/923 116/7/923 130/7/923
f 130/7/924 116/7/924 128/7/924
f 116/7/925 118/8/925 128/7/925
f 128/7/926 118/8/926 126/7/926
f 118/8/927 397/7/927 126/7/927
f 397/7/928 119/7/928 126/7/928
f 126/7/929 119/7/929 122/7/929
f 109/7/930 107/7/930 104/7/930
f 104/7/931 107/7/931 398/7/931
f 399/7/932 121/7/932 137/7/932
f 137/7/933 121/7/933 150/7/933
