# Blender 4.5.4 LTS
# www.blender.org
mtllib BlueBullet.mtl
o BlueBullet
v 0.000000 -0.481636 -3.503014
v 0.000000 -0.481636 -3.503014
v 0.000000 -0.481636 -3.503014
v 0.000000 -0.481636 -3.503014
v 0.000000 -0.507857 1.496918
v 0.000000 -0.507857 1.496918
v 0.000000 -0.507857 1.496918
v 0.000000 -0.507857 1.496918
v 0.000000 -1.502599 0.491687
v 0.000000 -1.502599 0.491687
v 0.000000 -1.502599 0.491687
v 0.000000 -1.502599 0.491687
v -1.000000 -0.502613 0.496931
v -1.000000 -0.502613 0.496931
v -1.000000 -0.502613 0.496931
v -1.000000 -0.502613 0.496931
v 0.000000 0.497374 0.502176
v 0.000000 0.497374 0.502176
v 0.000000 0.497374 0.502176
v 0.000000 0.497374 0.502176
v 1.000000 -0.502613 0.496932
v 1.000000 -0.502613 0.496932
v 1.000000 -0.502613 0.496932
v 1.000000 -0.502613 0.496932
vn -0.5774 -0.5804 0.5743
vn -0.6963 -0.6954 -0.1777
vn -0.5774 0.5743 0.5804
vn -0.6963 0.6972 -0.1704
vn 0.5774 0.5743 0.5804
vn 0.6963 0.6972 -0.1704
vn 0.5774 -0.5804 0.5743
vn 0.6963 -0.6954 -0.1777
vt 0.500000 1.000000
vt 1.006250 0.753125
vt -0.006250 0.753125
vt 0.500000 0.000000
s 1
usemtl Blue
f 6/1/1 14/2/1 9/3/1
f 2/4/2 10/3/2 16/2/2
f 5/1/3 17/2/3 13/3/3
f 1/4/4 15/3/4 18/2/4
f 7/1/5 21/2/5 19/3/5
f 3/4/6 20/3/6 23/2/6
f 8/1/7 11/2/7 22/3/7
f 4/4/8 24/3/8 12/2/8
