# Blender 5.1.1
# www.blender.org
mtllib Cactus.mtl
o Cactus
v 0.540402 0.000033 -1.372899
v 0.722097 0.000033 0.716781
v 1.272162 7.455699 -1.265643
v 1.272159 7.543986 0.995814
v 0.319125 0.303855 -0.679593
v 0.484776 2.087079 -0.275241
v 0.772926 2.038524 0.650412
v 1.272159 8.363826 1.162584
v 1.680936 5.884812 0.425553
v 1.244586 9.550917 -1.353024
v 1.272300 9.458652 0.973749
v 1.449084 9.599841 -0.175908
v 1.283079 5.106885 -1.268070
v 1.200987 5.013534 1.032840
v 1.398177 1.943025 0.448059
v 1.486590 2.293725 -0.354336
v 1.467180 5.150052 0.117756
v 1.500162 4.526952 0.000000
v 1.272159 4.421721 0.862302
v 1.272159 4.421721 -1.272000
v 0.446454 4.245654 -1.420002
v 0.446454 4.011075 1.191672
v 0.191454 4.011075 -0.010896
v 1.458084 0.000033 -1.304127
v 1.614141 0.000033 0.490656
v 1.779090 0.000033 -0.507576
v 1.255113 2.754462 0.528825
v 0.615291 2.728137 -0.986988
v 0.433290 2.520030 -0.224187
v 1.414683 2.914056 -0.173265
v 1.263816 2.627292 -0.857559
v 0.633033 2.528898 0.676827
v 2.886783 6.186660 -0.756498
v 1.760832 5.720325 -0.302688
v 2.362008 6.295647 0.606729
v 2.739039 6.307233 -0.037968
v 1.744902 8.026402 -0.124350
v 1.677606 7.908618 0.460239
v 1.639032 8.030287 -0.697740
v 1.113861 10.128480 -1.112034
v 1.113858 10.199853 0.716154
v 1.277130 10.179285 -0.198531
v 1.141629 7.411578 -0.087030
v 1.199058 7.520052 0.486360
v 1.429746 7.465770 -0.671616
v 2.203599 5.775825 -0.933255
v 2.847750 3.873087 1.042518
v 3.638193 3.214650 -0.061239
v 2.795091 3.846492 0.428232
v 3.036222 3.348402 1.135575
v 3.057954 3.143325 0.555510
v 3.415545 3.656130 -0.163050
v 3.334557 3.870609 -0.465225
v 4.063371 4.076904 0.841593
v 3.666177 4.102743 1.293108
v 2.793741 3.970494 0.380391
v 4.279974 3.978870 -0.121767
v 2.788908 4.058208 1.104591
v 1.488999 7.138500 -0.079818
v 1.272162 8.310255 -1.398531
v 1.488999 8.407314 -0.129351
v 0.446454 3.835689 -0.935496
v 1.320732 3.844887 -0.806067
v 1.754235 0.303855 -0.793437
v 0.343980 0.000033 -0.393729
v 0.633078 2.020941 -1.324785
v 1.365213 1.431381 -0.924348
v 0.872571 1.596039 0.457041
v 1.434129 1.841973 -0.399372
v 0.528387 1.390101 -0.394647
v 1.162854 2.012097 -1.274187
v 1.276407 1.662006 0.294432
v 0.594870 1.492476 -0.990534
v 0.224073 3.564831 -0.016383
v 1.532292 3.857169 0.008937
v 0.677154 3.082650 -0.686763
v 1.108413 3.122652 -0.604530
v 1.278918 3.272163 0.750393
v 0.503367 3.380727 0.956403
v 1.372392 1.021425 0.169011
v 1.499142 0.491109 0.397398
v 0.806328 1.003200 0.358617
v 0.769977 0.495786 0.603972
v 1.050012 6.201021 1.031826
v 1.380912 6.480858 0.066825
v 0.315000 8.354049 1.569954
v 0.315000 8.977026 1.476135
v 0.376320 8.982168 1.098531
v 0.376320 8.670609 1.556745
v 0.376320 8.237923 1.210611
v 0.486207 8.610042 1.154571
v 0.845799 9.370705 1.264287
v 0.880314 9.648177 1.062156
v 0.876045 9.128778 1.147653
v 3.707916 5.007159 -0.389889
v 3.456144 5.188989 0.486648
v 2.393667 4.457265 0.193869
v 3.059613 4.319055 -0.560103
v 2.380215 4.430769 1.051149
v 3.002877 5.113860 1.312752
v 3.287442 5.456640 0.303825
v 2.397834 4.620945 0.070077
v 2.287587 4.797090 0.783993
v 3.445908 5.324550 -0.309684
v 2.823180 4.739562 -0.473307
v 2.893017 5.376813 1.012881
v 3.230937 3.926991 1.631172
v 2.800956 3.831933 1.350771
v 2.460474 3.961341 1.380396
v 2.627496 4.233567 1.720806
v 2.972232 3.497268 1.836669
v 2.688384 3.320958 1.666620
v 2.528367 3.427860 1.704972
v 2.611167 3.684942 1.915005
v 3.331029 3.979926 1.264659
v 3.871749 3.689835 -0.126066
v 3.464010 4.048188 0.645225
v 2.211753 6.785586 0.424677
v 2.363970 6.858282 -0.063213
v 2.310042 6.809772 -0.575205
v 1.641357 6.424470 -0.582288
v 1.414617 6.307854 -0.080592
v 1.547655 6.400284 0.419658
v 1.095579 6.815043 -1.066239
v 1.125477 7.068687 1.083402
v 1.471791 6.809514 0.017388
v 1.044945 6.351537 -0.934590
v 1.125468 5.700252 1.026783
v 1.406535 5.733078 0.042357
v 1.183455 5.684337 -1.091940
v 1.981635 7.659690 -0.115278
v 1.360839 7.226592 -0.639360
v 1.283943 7.213575 0.475089
v 1.873155 7.571592 0.447795
v 1.862082 7.643649 -0.666654
v 1.163451 7.130313 -0.076287
v 1.411647 0.715707 -1.180128
v 0.567636 0.746253 -1.247610
v 0.347019 8.979712 1.278957
v 0.347019 8.293406 1.382313
v 0.433701 8.638987 1.346736
v 0.971970 6.675150 0.781062
v 1.459692 7.129245 1.192881
v 1.209744 6.593766 0.681870
v 1.098975 6.855888 0.569250
v 0.904728 5.850357 0.905655
v 1.400988 6.281541 1.331661
v 1.135383 5.804979 0.772476
v 0.994470 6.069882 0.712221
v 1.112691 9.611799 0.436653
v 1.618743 10.197165 0.558831
v 1.324464 9.523719 0.293850
v 1.149153 9.735240 0.158994
v 0.405711 9.767118 0.937356
v 0.805866 10.382757 1.210362
v 0.658659 9.687927 0.884964
v 0.535398 9.886095 0.686982
v 1.316274 9.549657 -0.579180
v 1.631070 10.189119 -0.904239
v 1.116381 9.623247 -0.745389
v 1.136049 9.776871 -0.481431
v 0.872775 9.552456 -1.196514
v 1.127298 10.193013 -1.568772
v 0.679296 9.580533 -1.382997
v 0.657147 9.761333 -1.137066
v 1.202304 8.572551 -0.869847
v 1.847427 9.003717 -0.762219
v 1.108374 8.817617 -0.934020
v 1.129278 8.754945 -0.635196
v 1.216230 8.652699 0.337908
v 1.753470 9.157098 0.603663
v 1.068597 8.791405 0.516693
v 1.250640 8.573883 0.631617
v 2.704602 6.022281 0.354669
v 2.596788 6.399450 1.032747
v 2.442546 6.084858 0.334470
v 2.510460 5.841975 0.507840
v 2.749956 6.227451 -0.355980
v 2.891760 6.630312 -0.995529
v 2.525622 6.192645 -0.473070
v 2.561391 6.460398 -0.331209
v 3.221250 5.476833 -0.223611
v 3.450534 6.225339 -0.252489
v 3.031242 5.579763 -0.385788
v 2.993412 5.627802 -0.085917
v 3.067998 5.436003 0.464001
v 3.148143 6.202461 0.604656
v 2.879199 5.535897 0.298548
v 2.802117 5.514054 0.593916
v 2.643237 6.360075 0.031266
v 2.571249 7.095207 0.292170
v 2.428095 6.441264 -0.110580
v 2.375397 6.358551 0.179322
v 1.070658 7.487028 -1.109589
v 1.471794 7.872885 -1.660836
v 1.149060 7.704408 -0.969603
v 1.358379 7.484022 -1.005336
v 0.677565 8.733897 -1.380078
v 1.025442 9.192789 -1.911183
v 0.611367 8.977802 -1.284549
v 0.893796 8.879400 -1.219653
v 0.895938 5.704419 -1.092894
v 1.370037 6.300531 -1.276059
v 0.820341 5.885598 -0.907266
v 1.077459 5.730591 -0.847890
v 1.201626 2.710281 0.526092
v 1.232253 3.240414 1.102014
v 1.084860 2.921304 0.404313
v 0.907518 2.760006 0.594558
v 1.135917 2.101722 0.466185
v 0.781896 2.420085 1.088265
v 0.902202 2.179128 0.354909
v 0.895851 1.918227 0.514758
v 1.287633 2.060067 0.437436
v 1.542726 2.654814 0.878880
v 1.327260 2.248158 0.247572
v 1.067988 2.271210 0.408531
v 0.943068 2.388369 0.493296
v 0.823158 2.821011 1.135254
v 1.080930 2.611416 0.428169
v 0.777381 2.624703 0.391530
v 0.705030 0.088611 0.388602
v 0.530727 0.753975 0.763542
v 0.873009 0.259953 0.264414
v 0.581733 0.264501 0.170607
v 0.986628 0.229518 0.485814
v 1.282674 0.806985 0.924630
v 1.214400 0.281844 0.350247
v 0.980337 0.472446 0.299784
v 1.442172 0.285558 0.056001
v 1.968564 0.858993 0.144024
v 1.508052 0.331233 -0.202014
v 1.309095 0.527112 -0.076680
v 1.041567 2.338548 -0.920139
v 0.882555 2.738073 -1.574937
v 0.829209 2.199021 -1.011981
v 0.766134 2.460321 -0.865674
v 3.831783 4.014021 0.974934
v 3.911667 4.658922 1.412418
v 3.723333 4.198509 0.810009
v 3.543417 4.096614 1.035642
v 3.978747 4.236228 0.307458
v 4.622127 4.436352 0.048930
v 4.073115 4.034964 0.277638
v 3.994356 4.140486 0.021525
v 3.668007 4.390485 0.529938
v 4.310400 4.813080 0.679635
v 3.743640 4.282305 0.765681
v 3.894438 4.184958 0.517797
v 3.120291 4.454697 1.150182
v 3.562152 4.814499 1.687743
v 2.968032 4.418655 1.370445
v 3.205290 4.228161 1.337577
v -0.540402 0.000033 -1.372899
v -0.722097 0.000033 0.716781
v 0.000000 4.230114 -1.348089
v -1.272162 7.455699 -1.265643
v 0.000000 4.011075 1.204152
v -1.148937 7.677216 0.995814
v -0.319125 0.303855 -0.679593
v -0.484776 2.087079 -0.275241
v -0.772926 2.038524 0.650412
v 0.000000 7.446804 -1.493469
v 0.000003 7.865397 1.401633
v -1.385598 8.340288 1.162584
v -1.681119 5.884812 0.425691
v 0.000000 4.011075 0.000000
v -1.237929 9.553885 -1.353024
v -1.272300 9.458652 0.973749
v 0.000000 9.545650 -1.564017
v 0.000000 9.557577 1.215963
v -1.449084 9.599841 -0.175908
v -1.283079 5.106885 -1.268070
v -1.200987 5.013534 1.032840
v -1.398177 1.943025 0.448059
v 0.000000 4.980579 -1.463271
v -1.486590 2.293725 -0.354336
v 0.000000 4.710288 1.305168
v -1.467180 5.150052 0.117756
v -1.500162 4.526952 0.000000
v -1.272159 4.421721 0.862302
v -1.272159 4.421721 -1.272000
v -0.446454 4.245654 -1.420002
v -0.446454 4.011075 1.191672
v -0.191454 4.011075 -0.010896
v -1.458084 0.000033 -1.304127
v -1.614141 0.000033 0.490656
v -1.779090 0.000033 -0.507576
v -1.255113 2.754462 0.528825
v -0.615291 2.728137 -0.986988
v -0.433290 2.520030 -0.224187
v -1.414683 2.914056 -0.173265
v -1.263816 2.627292 -0.857559
v -0.633033 2.528898 0.676827
v -2.884623 6.186660 -0.758259
v -1.760781 5.720325 -0.302619
v -2.363226 6.295647 0.605991
v -2.738367 6.307233 -0.041316
v -1.745040 8.026080 -0.124350
v -1.677621 7.908531 0.460239
v -1.639197 8.026005 -0.697740
v -1.113861 10.128480 -1.112034
v -1.113858 10.199853 0.716154
v -1.277130 10.179285 -0.198531
v 0.000000 10.019208 -1.271865
v 0.000000 10.103375 0.884016
v 0.000000 10.657980 -0.217221
v -1.141563 7.411590 -0.087030
v -1.198998 7.520055 0.486360
v -1.412274 7.467609 -0.671616
v -2.202924 5.775825 -0.933249
v -2.847750 3.873087 1.042518
v -3.638187 3.214650 -0.061242
v -2.795091 3.846492 0.428232
v -3.036222 3.348402 1.135575
v -3.057954 3.143325 0.555510
v -3.415542 3.656136 -0.163050
v -3.334557 3.870609 -0.465222
v -4.063371 4.076904 0.841593
v -3.666177 4.102743 1.293108
v -2.793744 3.970494 0.380391
v -4.279974 3.978870 -0.121767
v -2.788908 4.058208 1.104591
v 0.024177 8.395601 1.380954
v -1.175010 7.278909 -0.079818
v -1.282161 8.308653 -1.398531
v -1.547163 8.356740 -0.129351
v -0.446454 3.835689 -0.935496
v -1.320732 3.844887 -0.806067
v -1.754235 0.303855 -0.793437
v -0.343980 0.000033 -0.393729
v 0.000000 8.301363 -1.626360
v -0.633078 2.020941 -1.324785
v -1.365213 1.431381 -0.924348
v -0.872571 1.596039 0.457041
v -1.434129 1.841973 -0.399372
v -0.528387 1.390101 -0.394647
v -1.162854 2.012097 -1.274187
v -1.276407 1.662006 0.294432
v -0.594870 1.492476 -0.990534
v -0.224073 3.564831 -0.016383
v -1.532292 3.857169 0.008937
v -0.677154 3.082650 -0.686763
v -1.108413 3.122652 -0.604530
v -1.278918 3.272163 0.750393
v -0.503367 3.380727 0.956403
v -1.372392 1.021425 0.169011
v -1.499142 0.491109 0.397398
v -0.806328 1.003200 0.358617
v -0.769977 0.495786 0.603972
v -0.930534 6.306039 1.031826
v 0.000000 6.353430 -1.182456
v 0.002937 6.122094 1.372842
v -1.380912 6.480858 0.066825
v -0.315000 8.354049 1.569954
v -0.315000 8.977026 1.476135
v -0.376320 8.982168 1.098531
v -0.376320 8.670609 1.556745
v -0.376320 8.237923 1.210611
v 0.000000 9.042735 1.500705
v 0.000000 8.298486 1.612785
v 0.000000 9.090828 1.082166
v 0.000000 8.129262 1.226976
v 0.000000 8.679705 1.617135
v -0.486207 8.610042 1.154571
v -0.061023 9.039459 1.296576
v -0.049851 9.255590 1.414992
v -1.010469 9.346558 1.264287
v -1.009848 9.618933 1.062156
v -0.976020 9.118982 1.147653
v -3.707916 5.007159 -0.389889
v -3.456144 5.188989 0.486648
v -2.393667 4.457265 0.193869
v -3.059613 4.319055 -0.560103
v -2.380215 4.430769 1.051149
v -3.002880 5.113860 1.312752
v -3.287442 5.456640 0.303825
v -2.397834 4.620945 0.070077
v -2.287587 4.797090 0.783993
v -3.445908 5.324550 -0.309684
v -2.823180 4.739562 -0.473307
v -2.893017 5.376813 1.012881
v -3.230937 3.926988 1.631172
v -2.800956 3.831933 1.350771
v -2.460474 3.961341 1.380396
v -2.627496 4.233567 1.720806
v -2.972232 3.497268 1.836669
v -2.688384 3.320958 1.666620
v -2.528367 3.427860 1.704972
v -2.611167 3.684942 1.915005
v -3.331029 3.979926 1.264659
v -3.871749 3.689838 -0.126066
v -3.464010 4.048188 0.645225
v -2.215530 6.785586 0.424143
v -2.361198 6.858282 -0.080865
v -2.303823 6.809772 -0.578349
v -1.640421 6.424470 -0.581724
v -1.414539 6.307854 -0.080283
v -1.548030 6.400284 0.420294
v -1.149984 6.766200 -1.066239
v -1.125477 7.068687 1.083402
v 0.000000 6.726435 -1.299969
v -1.463214 6.813813 0.017388
v 0.000039 7.168416 1.341258
v -1.044825 6.351639 -0.934590
v 0.000000 5.526573 1.282953
v -1.065483 5.745435 1.026783
v 0.000000 5.583219 -1.314828
v -1.326258 5.779269 0.042357
v -1.183455 5.684337 -1.091940
v -1.981620 7.658769 -0.115278
v -1.360578 7.226511 -0.639360
v -1.283841 7.213539 0.475089
v -1.873089 7.571259 0.447795
v -1.861899 7.642986 -0.666654
v -1.163400 7.130304 -0.076287
v -1.411647 0.715707 -1.180128
v -0.567636 0.746253 -1.247610
v -0.347019 8.979712 1.278957
v -0.347019 8.293406 1.382313
v 0.000000 9.067844 1.282152
v 0.000000 8.210118 1.411323
v -0.433701 8.638987 1.346736
v -0.971970 6.675150 0.781062
v -1.459692 7.129245 1.192881
v -1.209744 6.593766 0.681870
v -1.098975 6.855888 0.569250
v -0.904728 5.850357 0.905655
v -1.400988 6.281541 1.331661
v -1.135383 5.804979 0.772476
v -0.994470 6.069882 0.712221
v -1.112691 9.611799 0.436653
v -1.618743 10.197165 0.558831
v -1.324464 9.523719 0.293850
v -1.149153 9.735240 0.158994
v -0.405711 9.767118 0.937356
v -0.805866 10.382757 1.210362
v -0.658659 9.687927 0.884964
v -0.535398 9.886095 0.686982
v -1.316274 9.549657 -0.579180
v -1.631070 10.189119 -0.904239
v -1.116381 9.623247 -0.745389
v -1.136049 9.776871 -0.481431
v -0.872775 9.552456 -1.196514
v -1.127298 10.193013 -1.568772
v -0.679296 9.580533 -1.382997
v -0.657147 9.761333 -1.137066
v -1.202304 8.572551 -0.869847
v -1.847427 9.003717 -0.762219
v -1.108374 8.817617 -0.934020
v -1.129278 8.754945 -0.635196
v -1.216230 8.652699 0.337908
v -1.753470 9.157098 0.603663
v -1.068597 8.791405 0.516693
v -1.250640 8.573883 0.631617
v -2.704602 6.022281 0.354669
v -2.596788 6.399450 1.032747
v -2.442546 6.084858 0.334470
v -2.510460 5.841975 0.507840
v -2.749956 6.227451 -0.355980
v -2.891760 6.630312 -0.995529
v -2.525622 6.192645 -0.473070
v -2.561391 6.460398 -0.331209
v -3.221250 5.476833 -0.223611
v -3.450534 6.225339 -0.252489
v -3.031242 5.579763 -0.385788
v -2.993412 5.627802 -0.085917
v -3.067998 5.436003 0.464001
v -3.148143 6.202461 0.604656
v -2.879199 5.535897 0.298548
v -2.802117 5.514054 0.593916
v -2.643237 6.360075 0.031266
v -2.571249 7.095207 0.292170
v -2.428095 6.441264 -0.110580
v -2.375397 6.358551 0.179322
v -1.070658 7.487028 -1.109589
v -1.471794 7.872885 -1.660836
v -1.149060 7.704408 -0.969603
v -1.358379 7.484022 -1.005336
v -0.677565 8.733897 -1.380078
v -1.025442 9.192789 -1.911183
v -0.611367 8.977802 -1.284549
v -0.893796 8.879400 -1.219653
v -0.895938 5.704419 -1.092894
v -1.370037 6.300531 -1.276059
v -0.820341 5.885598 -0.907266
v -1.077459 5.730591 -0.847890
v -1.201626 2.710281 0.526092
v -1.232253 3.240414 1.102014
v -1.084860 2.921304 0.404313
v -0.907518 2.760006 0.594558
v -1.135917 2.101722 0.466185
v -0.781896 2.420085 1.088265
v -0.902202 2.179128 0.354909
v -0.895851 1.918227 0.514758
v -1.287633 2.060067 0.437436
v -1.542726 2.654814 0.878880
v -1.327260 2.248158 0.247572
v -1.067988 2.271210 0.408531
v -0.943068 2.388369 0.493296
v -0.823158 2.821011 1.135254
v -1.080930 2.611416 0.428169
v -0.777381 2.624703 0.391530
v -0.705030 0.088611 0.388602
v -0.530727 0.753975 0.763542
v -0.873009 0.259953 0.264414
v -0.581733 0.264501 0.170607
v -0.986628 0.229518 0.485814
v -1.282674 0.806985 0.924630
v -1.214400 0.281844 0.350247
v -0.980337 0.472446 0.299784
v -1.442172 0.285558 0.056001
v -1.968564 0.858993 0.144024
v -1.508052 0.331233 -0.202014
v -1.309095 0.527112 -0.076680
v -1.041567 2.338548 -0.920139
v -0.882555 2.738073 -1.574937
v -0.829209 2.199021 -1.011981
v -0.766134 2.460321 -0.865674
v -3.831783 4.014021 0.974934
v -3.911667 4.658922 1.412418
v -3.723333 4.198509 0.810009
v -3.543417 4.096614 1.035642
v -3.978747 4.236228 0.307458
v -4.622127 4.436352 0.048930
v -4.073115 4.034964 0.277638
v -3.994356 4.140486 0.021525
v -3.668007 4.390485 0.529938
v -4.310400 4.813080 0.679635
v -3.743640 4.282305 0.765681
v -3.894438 4.184958 0.517797
v -3.120291 4.454694 1.150182
v -3.562149 4.814499 1.687743
v -2.968032 4.418655 1.370445
v -3.205290 4.228161 1.337577
v 0.971970 6.675150 0.781062
v 1.459692 7.129245 1.192881
v 1.459692 7.129245 1.192881
v 1.209744 6.593766 0.681870
v 1.098975 6.855888 0.569250
v 0.904728 5.850357 0.905655
v 1.400988 6.281541 1.331661
v 1.400988 6.281541 1.331661
v 1.135383 5.804979 0.772476
v 0.994470 6.069882 0.712221
v 1.112691 9.611799 0.436653
v 1.618743 10.197165 0.558831
v 1.618743 10.197165 0.558831
v 1.324464 9.523719 0.293850
v 1.149153 9.735240 0.158994
v 0.405711 9.767118 0.937356
v 0.805866 10.382757 1.210362
v 0.805866 10.382757 1.210362
v 0.658659 9.687927 0.884964
v 0.535398 9.886095 0.686982
v 1.316274 9.549657 -0.579180
v 1.631070 10.189119 -0.904239
v 1.631070 10.189119 -0.904239
v 1.116381 9.623247 -0.745389
v 1.136049 9.776871 -0.481431
v 0.872775 9.552456 -1.196514
v 1.127298 10.193013 -1.568772
v 1.127298 10.193013 -1.568772
v 0.679296 9.580533 -1.382997
v 0.657147 9.761333 -1.137066
v 1.202304 8.572551 -0.869847
v 1.847427 9.003717 -0.762219
v 1.847427 9.003717 -0.762219
v 1.108374 8.817617 -0.934020
v 1.129278 8.754945 -0.635196
v 1.216230 8.652699 0.337908
v 1.753470 9.157098 0.603663
v 1.753470 9.157098 0.603663
v 1.068597 8.791405 0.516693
v 1.250640 8.573883 0.631617
v 2.704602 6.022281 0.354669
v 2.596788 6.399450 1.032747
v 2.596788 6.399450 1.032747
v 2.442546 6.084858 0.334470
v 2.510460 5.841975 0.507840
v 2.749956 6.227451 -0.355980
v 2.891760 6.630312 -0.995529
v 2.891760 6.630312 -0.995529
v 2.525622 6.192645 -0.473070
v 2.561391 6.460398 -0.331209
v 3.221250 5.476833 -0.223611
v 3.450534 6.225339 -0.252489
v 3.450534 6.225339 -0.252489
v 3.031242 5.579763 -0.385788
v 2.993412 5.627802 -0.085917
v 3.067998 5.436003 0.464001
v 3.148143 6.202461 0.604656
v 3.148143 6.202461 0.604656
v 2.879199 5.535897 0.298548
v 2.802117 5.514054 0.593916
v 2.643237 6.360075 0.031266
v 2.571249 7.095207 0.292170
v 2.571249 7.095207 0.292170
v 2.428095 6.441264 -0.110580
v 2.375397 6.358551 0.179322
v 1.070658 7.487028 -1.109589
v 1.471794 7.872885 -1.660836
v 1.471794 7.872885 -1.660836
v 1.149060 7.704408 -0.969603
v 1.358379 7.484022 -1.005336
v 0.677565 8.733897 -1.380078
v 1.025442 9.192789 -1.911183
v 1.025442 9.192789 -1.911183
v 0.611367 8.977802 -1.284549
v 0.893796 8.879400 -1.219653
v 0.895938 5.704419 -1.092894
v 1.370037 6.300531 -1.276059
v 1.370037 6.300531 -1.276059
v 0.820341 5.885598 -0.907266
v 1.077459 5.730591 -0.847890
v 1.201626 2.710281 0.526092
v 1.232253 3.240414 1.102014
v 1.232253 3.240414 1.102014
v 1.084860 2.921304 0.404313
v 0.907518 2.760006 0.594558
v 1.135917 2.101722 0.466185
v 0.781896 2.420085 1.088265
v 0.781896 2.420085 1.088265
v 0.902202 2.179128 0.354909
v 0.895851 1.918227 0.514758
v 1.287633 2.060067 0.437436
v 1.542726 2.654814 0.878880
v 1.542726 2.654814 0.878880
v 1.327260 2.248158 0.247572
v 1.067988 2.271210 0.408531
v 0.943068 2.388369 0.493296
v 0.823158 2.821011 1.135254
v 0.823158 2.821011 1.135254
v 1.080930 2.611416 0.428169
v 0.777381 2.624703 0.391530
v 0.705030 0.088611 0.388602
v 0.530727 0.753975 0.763542
v 0.530727 0.753975 0.763542
v 0.873009 0.259953 0.264414
v 0.581733 0.264501 0.170607
v 0.986628 0.229518 0.485814
v 1.282674 0.806985 0.924630
v 1.282674 0.806985 0.924630
v 1.214400 0.281844 0.350247
v 0.980337 0.472446 0.299784
v 1.442172 0.285558 0.056001
v 1.968564 0.858993 0.144024
v 1.968564 0.858993 0.144024
v 1.508052 0.331233 -0.202014
v 1.309095 0.527112 -0.076680
v 1.041567 2.338548 -0.920139
v 0.882555 2.738073 -1.574937
v 0.882555 2.738073 -1.574937
v 0.829209 2.199021 -1.011981
v 0.766134 2.460321 -0.865674
v 3.831783 4.014021 0.974934
v 3.911667 4.658922 1.412418
v 3.911667 4.658922 1.412418
v 3.723333 4.198509 0.810009
v 3.543417 4.096614 1.035642
v 3.978747 4.236228 0.307458
v 4.622127 4.436352 0.048930
v 4.622127 4.436352 0.048930
v 4.073115 4.034964 0.277638
v 3.994356 4.140486 0.021525
v 3.668007 4.390485 0.529938
v 4.310400 4.813080 0.679635
v 4.310400 4.813080 0.679635
v 3.743640 4.282305 0.765681
v 3.894438 4.184958 0.517797
v 3.120291 4.454697 1.150182
v 3.562152 4.814499 1.687743
v 3.562152 4.814499 1.687743
v 2.968032 4.418655 1.370445
v 3.205290 4.228161 1.337577
v -0.971970 6.675150 0.781062
v -1.459692 7.129245 1.192881
v -1.459692 7.129245 1.192881
v -1.209744 6.593766 0.681870
v -1.098975 6.855888 0.569250
v -0.904728 5.850357 0.905655
v -1.400988 6.281541 1.331661
v -1.400988 6.281541 1.331661
v -1.135383 5.804979 0.772476
v -0.994470 6.069882 0.712221
v -1.112691 9.611799 0.436653
v -1.618743 10.197165 0.558831
v -1.618743 10.197165 0.558831
v -1.324464 9.523719 0.293850
v -1.149153 9.735240 0.158994
v -0.405711 9.767118 0.937356
v -0.805866 10.382757 1.210362
v -0.805866 10.382757 1.210362
v -0.658659 9.687927 0.884964
v -0.535398 9.886095 0.686982
v -1.316274 9.549657 -0.579180
v -1.631070 10.189119 -0.904239
v -1.631070 10.189119 -0.904239
v -1.116381 9.623247 -0.745389
v -1.136049 9.776871 -0.481431
v -0.872775 9.552456 -1.196514
v -1.127298 10.193013 -1.568772
v -1.127298 10.193013 -1.568772
v -0.679296 9.580533 -1.382997
v -0.657147 9.761333 -1.137066
v -1.202304 8.572551 -0.869847
v -1.847427 9.003717 -0.762219
v -1.847427 9.003717 -0.762219
v -1.108374 8.817617 -0.934020
v -1.129278 8.754945 -0.635196
v -1.216230 8.652699 0.337908
v -1.753470 9.157098 0.603663
v -1.753470 9.157098 0.603663
v -1.068597 8.791405 0.516693
v -1.250640 8.573883 0.631617
v -2.704602 6.022281 0.354669
v -2.596788 6.399450 1.032747
v -2.596788 6.399450 1.032747
v -2.442546 6.084858 0.334470
v -2.510460 5.841975 0.507840
v -2.749956 6.227451 -0.355980
v -2.891760 6.630312 -0.995529
v -2.891760 6.630312 -0.995529
v -2.525622 6.192645 -0.473070
v -2.561391 6.460398 -0.331209
v -3.221250 5.476833 -0.223611
v -3.450534 6.225339 -0.252489
v -3.450534 6.225339 -0.252489
v -3.031242 5.579763 -0.385788
v -2.993412 5.627802 -0.085917
v -3.067998 5.436003 0.464001
v -3.148143 6.202461 0.604656
v -3.148143 6.202461 0.604656
v -2.879199 5.535897 0.298548
v -2.802117 5.514054 0.593916
v -2.643237 6.360075 0.031266
v -2.571249 7.095207 0.292170
v -2.571249 7.095207 0.292170
v -2.428095 6.441264 -0.110580
v -2.375397 6.358551 0.179322
v -1.070658 7.487028 -1.109589
v -1.471794 7.872885 -1.660836
v -1.471794 7.872885 -1.660836
v -1.149060 7.704408 -0.969603
v -1.358379 7.484022 -1.005336
v -0.677565 8.733897 -1.380078
v -1.025442 9.192789 -1.911183
v -1.025442 9.192789 -1.911183
v -0.611367 8.977802 -1.284549
v -0.893796 8.879400 -1.219653
v -0.895938 5.704419 -1.092894
v -1.370037 6.300531 -1.276059
v -1.370037 6.300531 -1.276059
v -0.820341 5.885598 -0.907266
v -1.077459 5.730591 -0.847890
v -1.201626 2.710281 0.526092
v -1.232253 3.240414 1.102014
v -1.232253 3.240414 1.102014
v -1.084860 2.921304 0.404313
v -0.907518 2.760006 0.594558
v -1.135917 2.101722 0.466185
v -0.781896 2.420085 1.088265
v -0.781896 2.420085 1.088265
v -0.902202 2.179128 0.354909
v -0.895851 1.918227 0.514758
v -1.287633 2.060067 0.437436
v -1.542726 2.654814 0.878880
v -1.542726 2.654814 0.878880
v -1.327260 2.248158 0.247572
v -1.067988 2.271210 0.408531
v -0.943068 2.388369 0.493296
v -0.823158 2.821011 1.135254
v -0.823158 2.821011 1.135254
v -1.080930 2.611416 0.428169
v -0.777381 2.624703 0.391530
v -0.705030 0.088611 0.388602
v -0.530727 0.753975 0.763542
v -0.530727 0.753975 0.763542
v -0.873009 0.259953 0.264414
v -0.581733 0.264501 0.170607
v -0.986628 0.229518 0.485814
v -1.282674 0.806985 0.924630
v -1.282674 0.806985 0.924630
v -1.214400 0.281844 0.350247
v -0.980337 0.472446 0.299784
v -1.442172 0.285558 0.056001
v -1.968564 0.858993 0.144024
v -1.968564 0.858993 0.144024
v -1.508052 0.331233 -0.202014
v -1.309095 0.527112 -0.076680
v -1.041567 2.338548 -0.920139
v -0.882555 2.738073 -1.574937
v -0.882555 2.738073 -1.574937
v -0.829209 2.199021 -1.011981
v -0.766134 2.460321 -0.865674
v -3.831783 4.014021 0.974934
v -3.911667 4.658922 1.412418
v -3.911667 4.658922 1.412418
v -3.723333 4.198509 0.810009
v -3.543417 4.096614 1.035642
v -3.978747 4.236228 0.307458
v -4.622127 4.436352 0.048930
v -4.622127 4.436352 0.048930
v -4.073115 4.034964 0.277638
v -3.994356 4.140486 0.021525
v -3.668007 4.390485 0.529938
v -4.310400 4.813080 0.679635
v -4.310400 4.813080 0.679635
v -3.743640 4.282305 0.765681
v -3.894438 4.184958 0.517797
v -3.120291 4.454694 1.150182
v -3.562149 4.814499 1.687743
v -3.562149 4.814499 1.687743
v -2.968032 4.418655 1.370445
v -3.205290 4.228161 1.337577
vn 0.7808 -0.0702 0.6208
vn 0.9993 -0.0304 0.0208
vn 0.9992 0.0288 0.0267
vn 0.0001 0.6764 -0.7365
vn 0.6692 0.2287 -0.7070
vn 0.0012 0.2877 -0.9577
vn 0.5224 0.6622 -0.5372
vn 0.9866 0.1631 -0.0065
vn 0.7668 -0.2271 0.6003
vn -0.3793 -0.3050 0.8736
vn 0.7540 -0.3140 0.5770
vn 0.7603 -0.1352 0.6354
vn -0.4220 -0.2833 0.8612
vn -0.9210 -0.3558 -0.1587
vn 0.4691 -0.7099 -0.5254
vn 0.9214 -0.2650 -0.2841
vn -0.7305 -0.6678 -0.1429
vn 0.6445 -0.4913 0.5858
vn -0.4034 -0.4889 0.7735
vn -0.0000 0.0965 -0.9953
vn 0.0069 -0.5275 -0.8496
vn -0.0000 -0.7403 -0.6723
vn -0.0006 0.7120 0.7022
vn 0.2325 0.4968 0.8362
vn 0.5371 0.6875 0.4887
vn 0.8650 0.3180 -0.3882
vn 0.6456 0.0171 -0.7635
vn 0.9525 0.3044 0.0047
vn -0.7992 0.4271 0.4230
vn -0.2801 -0.7050 0.6516
vn -0.2592 0.0712 0.9632
vn -0.9354 -0.3413 -0.0929
vn -0.7717 -0.2667 0.5774
vn -0.6233 -0.1491 0.7676
vn 0.8421 0.2413 0.4823
vn 0.7256 -0.1954 0.6598
vn 0.6999 0.2603 0.6652
vn 0.9941 0.0409 -0.1008
vn 0.9961 0.0129 -0.0875
vn 0.9949 -0.0655 -0.0765
vn 0.5089 -0.0039 -0.8608
vn -0.0158 0.0541 0.9984
vn 0.2935 -0.0721 0.9532
vn -0.0065 -0.1698 0.9855
vn 0.6919 0.1594 -0.7042
vn 0.6506 -0.2441 -0.7191
vn -0.6407 -0.7639 -0.0775
vn -0.5827 -0.4891 -0.6491
vn -0.9912 -0.1028 0.0838
vn 0.4972 0.2542 -0.8296
vn -0.4609 -0.6650 -0.5877
vn -0.5231 0.2341 -0.8195
vn 0.6822 0.0140 0.7311
vn -0.0153 -0.4266 0.9043
vn 0.6855 0.3413 0.6432
vn 0.7258 -0.6372 -0.2595
vn 0.9929 0.0861 0.0821
vn -0.0000 -0.7502 0.6612
vn -0.0051 -0.0493 0.9988
vn 0.6966 0.0778 0.7132
vn -0.0000 -0.9970 -0.0776
vn -0.9926 -0.1108 -0.0489
vn -0.5413 -0.2796 0.7930
vn 0.7206 -0.2936 -0.6281
vn 0.7006 -0.2123 0.6813
vn -0.9639 -0.1368 0.2286
vn -0.4363 0.3692 0.8206
vn 0.0857 0.6348 0.7679
vn 0.5063 0.3421 0.7916
vn 0.7823 0.5892 0.2018
vn 0.8668 0.4904 0.0905
vn -0.5925 -0.1389 -0.7935
vn -0.8123 -0.4913 -0.3142
vn -0.0000 -0.0208 0.9998
vn 0.5427 0.4472 -0.7110
vn -0.2629 -0.2191 -0.9396
vn -0.0000 0.9992 -0.0390
vn 0.7510 0.6598 -0.0258
vn 0.8864 -0.0673 0.4579
vn -0.3502 -0.9365 -0.0162
vn 0.6446 0.4455 -0.6213
vn 0.9191 -0.1415 -0.3677
vn 0.6444 0.3912 -0.6570
vn 0.6075 -0.1645 -0.7771
vn 0.9720 0.2348 -0.0068
vn 0.6317 -0.2796 -0.7230
vn 0.2500 0.4214 0.8717
vn 0.2054 -0.8583 -0.4702
vn -0.4246 -0.9030 -0.0657
vn -0.2471 -0.9169 -0.3134
vn -0.3546 0.2680 -0.8958
vn -0.8621 -0.3212 -0.3920
vn -0.1567 -0.7017 -0.6950
vn -0.3155 -0.2519 -0.9149
vn -0.8616 -0.4323 -0.2659
vn 0.0959 -0.3406 -0.9353
vn 0.7538 0.5861 0.2970
vn 0.6519 -0.0944 0.7524
vn -0.8440 0.3953 -0.3625
vn -0.0529 -0.0361 0.9979
vn 0.6483 0.0460 0.7600
vn 0.8385 0.5446 0.0191
vn -0.6153 0.7863 -0.0554
vn 0.0035 -0.2171 -0.9761
vn 0.0016 -0.0528 -0.9986
vn 0.9950 0.0988 0.0173
vn 0.3272 0.0928 0.9404
vn 0.7808 0.2080 0.5891
vn -0.7359 -0.0167 -0.6769
vn -0.9867 0.0483 0.1551
vn -0.5212 0.0709 -0.8505
vn -0.5408 0.4746 -0.6945
vn 0.7895 0.1168 -0.6026
vn -0.5217 -0.0386 -0.8523
vn -0.4964 0.1820 0.8488
vn 0.6773 0.3930 -0.6219
vn -0.9842 -0.1704 -0.0491
vn 0.5231 0.0183 -0.8521
vn -0.5216 -0.3427 0.7814
vn 0.7974 0.2153 0.5637
vn -0.4310 0.3247 0.8419
vn -0.0107 -0.0297 0.9995
vn 0.6863 0.0086 0.7273
vn 0.6388 -0.0697 0.7663
vn 0.9680 0.0374 0.2481
vn 0.5567 -0.4586 0.6927
vn 0.6870 -0.6440 0.3366
vn 0.6870 0.7146 0.1319
vn -0.0000 0.9952 0.0979
vn -0.0000 0.9946 0.1039
vn -0.0000 -0.9222 0.3866
vn -0.0000 -0.9199 0.3923
vn -0.0000 0.1489 0.9888
vn 0.6860 0.1084 0.7195
vn 0.5567 0.6423 0.5269
vn 0.0012 0.5409 0.8411
vn 0.1172 0.6212 0.7749
vn 0.7531 0.6080 0.2513
vn -0.8255 -0.4145 -0.3830
vn -0.3135 -0.2290 -0.9216
vn -0.8985 -0.0852 0.4307
vn 0.7285 0.4530 -0.5138
vn -0.9050 -0.3351 -0.2619
vn -0.4188 -0.0074 0.9080
vn 0.7434 -0.4209 0.5198
vn 0.1643 -0.6615 -0.7317
vn -0.0373 -0.9881 -0.1495
vn 0.6629 -0.5697 0.4859
vn -0.7802 -0.6205 0.0786
vn -0.5886 -0.1883 0.7862
vn 0.5796 0.2783 0.7659
vn 0.8722 0.4888 0.0166
vn 0.5842 0.2568 -0.7699
vn -0.6047 -0.0972 -0.7905
vn -0.9760 -0.2089 -0.0609
vn 0.6298 -0.3168 -0.7092
vn 0.9922 -0.1194 0.0356
vn 0.9881 -0.1518 0.0254
vn 0.6956 -0.0202 -0.7182
vn -0.0000 0.2344 -0.9721
vn 0.6847 0.2959 -0.6661
vn -0.0000 -0.0702 -0.9975
vn -0.0119 -0.0361 0.9993
vn 0.0067 -0.2827 -0.9592
vn 0.0059 0.0054 1.0000
vn 0.9695 0.0365 0.2422
vn 0.6887 0.7148 0.1216
vn -0.0000 -0.5699 0.8217
vn -0.0000 0.7867 0.6174
vn 0.6887 -0.6473 0.3267
vn 0.8350 0.1223 -0.5366
vn 0.0554 -0.7027 0.7093
vn -0.7325 0.6681 0.1308
vn 0.7601 0.2699 -0.5911
vn 0.1830 -0.7895 0.5859
vn -0.7596 0.5763 0.3016
vn 0.6313 0.0291 -0.7750
vn 0.3498 -0.4714 0.8096
vn -0.7625 0.6224 0.1766
vn 0.8685 0.0471 -0.4935
vn 0.0511 -0.4324 0.9002
vn -0.8012 0.5821 -0.1384
vn -0.7469 0.5974 -0.2920
vn 0.3956 -0.5634 -0.7253
vn 0.5854 0.1194 0.8019
vn -0.7918 0.4559 -0.4065
vn 0.5236 -0.5740 -0.6296
vn 0.4973 0.2797 0.8213
vn -0.2853 0.9338 0.2158
vn 0.2596 -0.1503 -0.9539
vn 0.3501 -0.6837 0.6404
vn -0.2620 0.2703 0.9265
vn -0.2561 0.6498 -0.7156
vn 0.7260 -0.6382 -0.2563
vn -0.9634 -0.0889 0.2529
vn 0.2404 0.8640 -0.4424
vn 0.7729 -0.4943 0.3978
vn -0.8809 0.3080 -0.3593
vn 0.3574 -0.8239 -0.4398
vn 0.7049 0.5192 0.4833
vn -0.8046 0.5621 -0.1916
vn 0.5688 -0.2050 -0.7965
vn 0.4612 -0.1073 0.8808
vn -0.8750 0.4429 -0.1956
vn 0.6766 0.0639 -0.7335
vn 0.3804 -0.2053 0.9018
vn -0.9580 0.2696 -0.0972
vn 0.6026 0.3187 -0.7316
vn 0.4690 -0.2543 0.8458
vn 0.6807 0.5723 0.4573
vn -0.8351 0.4773 -0.2735
vn 0.1656 -0.8605 -0.4818
vn 0.2051 0.8762 0.4361
vn -0.8328 -0.0093 -0.5535
vn 0.6478 -0.7326 -0.2087
vn 0.1398 0.5479 0.8248
vn -0.6909 0.3562 -0.6291
vn 0.6476 -0.6414 -0.4113
vn -0.7447 0.6524 -0.1411
vn 0.8939 0.3051 -0.3284
vn 0.0329 -0.7362 0.6759
vn -0.9880 -0.0626 -0.1415
vn 0.4015 0.8876 -0.2258
vn 0.5565 -0.5673 0.6070
vn -0.2188 0.8526 -0.4745
vn 0.9413 -0.3167 -0.1173
vn -0.4740 -0.3846 0.7921
vn 0.0734 0.9632 -0.2587
vn 0.8231 -0.3876 0.4150
vn -0.8404 -0.5090 0.1861
vn 0.2089 0.7629 -0.6118
vn 0.7055 -0.1986 0.6803
vn -0.9059 -0.3616 0.2206
vn 0.5845 0.5631 -0.5843
vn 0.4863 -0.6729 0.5574
vn -0.9189 0.2246 0.3244
vn 0.0070 0.5440 -0.8390
vn 0.7300 -0.6802 0.0660
vn -0.4179 0.2496 0.8735
vn -0.9713 -0.1191 -0.2061
vn 0.6151 -0.5978 -0.5141
vn 0.4358 0.8115 0.3893
vn -0.7104 0.6485 -0.2736
vn 0.8986 0.1646 -0.4067
vn 0.0130 -0.5624 0.8267
vn 0.3965 -0.7995 -0.4513
vn 0.3639 0.0327 0.9309
vn -0.3940 0.8649 -0.3111
vn 0.6015 -0.5481 0.5812
vn -0.5563 0.6731 0.4873
vn 0.1101 0.1790 -0.9777
vn -0.2039 -0.4075 0.8901
vn -0.4737 0.8607 -0.1867
vn 0.8123 -0.1593 -0.5610
vn -0.7808 -0.0702 0.6208
vn -0.9993 -0.0304 0.0208
vn -0.7006 -0.2123 0.6813
vn -0.6653 0.2331 -0.7092
vn -0.9837 0.1797 -0.0113
vn -0.5242 0.6606 -0.5374
vn -0.7668 -0.2271 0.6003
vn 0.3793 -0.3050 0.8736
vn 0.4220 -0.2833 0.8612
vn -0.7603 -0.1352 0.6354
vn 0.5413 -0.2796 0.7930
vn 0.9210 -0.3558 -0.1587
vn -0.4691 -0.7099 -0.5254
vn 0.4609 -0.6650 -0.5877
vn -0.6445 -0.4913 0.5858
vn 0.7305 -0.6678 -0.1429
vn 0.4034 -0.4889 0.7735
vn -0.0069 -0.5275 -0.8496
vn -0.3014 0.5040 0.8094
vn -0.5357 0.6913 0.4849
vn -0.8706 0.2957 -0.3933
vn -0.9519 0.3060 -0.0171
vn -0.6458 0.0136 -0.7634
vn 0.7992 0.4271 0.4230
vn 0.2592 0.0712 0.9632
vn 0.2801 -0.7050 0.6516
vn 0.7714 -0.2666 0.5778
vn 0.9354 -0.3414 -0.0921
vn 0.6222 -0.1489 0.7685
vn -0.6287 -0.2660 0.7307
vn -0.8446 0.1731 0.5066
vn -0.3315 -0.6864 0.6473
vn -0.9941 0.0409 -0.1008
vn -0.9961 0.0129 -0.0875
vn -0.9949 -0.0655 -0.0765
vn -0.5089 -0.0039 -0.8608
vn -0.7895 0.1168 -0.6026
vn -0.3278 -0.1022 0.9392
vn -0.9992 0.0288 0.0267
vn -0.6919 0.1594 -0.7042
vn -0.6506 -0.2441 -0.7191
vn 0.6407 -0.7639 -0.0775
vn 0.5827 -0.4891 -0.6491
vn 0.9912 -0.1028 0.0838
vn -0.4972 0.2542 -0.8296
vn 0.5231 0.2341 -0.8195
vn 0.0153 -0.4266 0.9043
vn -0.6865 0.0366 0.7263
vn -0.6855 0.3413 0.6432
vn -0.9214 -0.2650 -0.2841
vn -0.7258 -0.6372 -0.2595
vn -0.9872 0.1328 0.0878
vn -0.6977 0.1373 0.7031
vn 0.9926 -0.1108 -0.0489
vn -0.7206 -0.2936 -0.6281
vn 0.5216 -0.3427 0.7814
vn 0.4363 0.3692 0.8206
vn 0.9639 -0.1368 0.2286
vn -0.0857 0.6348 0.7679
vn -0.7821 0.5908 0.1982
vn -0.5128 0.3478 0.7849
vn -0.8671 0.4925 0.0741
vn 0.8124 -0.4915 -0.3138
vn 0.5946 -0.1402 -0.7917
vn 0.2636 -0.2204 -0.9391
vn -0.5380 0.4442 -0.7165
vn -0.7510 0.6598 -0.0258
vn -0.8864 -0.0673 0.4579
vn -0.6519 -0.0944 0.7524
vn -0.6446 0.4455 -0.6213
vn -0.7538 0.5861 0.2970
vn -0.3501 -0.5587 -0.7519
vn -0.9694 0.2418 0.0417
vn 0.3606 0.8708 0.3343
vn -0.2517 0.4215 0.8712
vn -0.2054 -0.8583 -0.4702
vn -0.9191 -0.1415 -0.3677
vn 0.4246 -0.9030 -0.0657
vn 0.8616 -0.4323 -0.2659
vn 0.3502 -0.9365 -0.0162
vn 0.3546 0.2680 -0.8958
vn 0.8440 0.3953 -0.3625
vn 0.8621 -0.3212 -0.3920
vn 0.1567 -0.7017 -0.6950
vn 0.3155 -0.2519 -0.9149
vn -0.0959 -0.3406 -0.9353
vn -0.8525 0.5225 0.0154
vn -0.6614 -0.3027 -0.6862
vn 0.7359 -0.0167 -0.6769
vn -0.8200 0.2292 0.5244
vn -0.4520 0.0388 0.8912
vn -0.6700 -0.0392 0.7414
vn 0.5217 -0.0386 -0.8523
vn 0.5212 0.0709 -0.8505
vn 0.5408 0.4746 -0.6945
vn 0.4964 0.1820 0.8488
vn 0.9867 0.0483 0.1551
vn 0.4310 0.3247 0.8419
vn -0.6773 0.3930 -0.6219
vn 0.9842 -0.1704 -0.0491
vn -0.5231 0.0183 -0.8521
vn -0.7974 0.2153 0.5637
vn -0.7540 -0.3140 0.5770
vn -0.6524 -0.0271 0.7574
vn -0.9680 0.0374 0.2481
vn -0.5567 -0.4586 0.6927
vn -0.6860 0.1084 0.7195
vn -0.6870 0.7146 0.1319
vn -0.6887 0.7148 0.1216
vn -0.6870 -0.6440 0.3366
vn -0.5567 0.6423 0.5269
vn -0.1171 0.6211 0.7749
vn -0.7530 0.6082 0.2510
vn 0.8255 -0.4145 -0.3830
vn 0.3135 -0.2290 -0.9216
vn -0.7283 0.4534 -0.5138
vn 0.8985 -0.0851 0.4306
vn -0.6434 0.3911 -0.6581
vn 0.4188 -0.0074 0.9080
vn 0.9050 -0.3351 -0.2619
vn 0.2471 -0.9169 -0.3134
vn -0.7434 -0.4209 0.5198
vn 0.0373 -0.9881 -0.1495
vn 0.7802 -0.6205 0.0786
vn -0.1643 -0.6615 -0.7317
vn -0.6629 -0.5697 0.4859
vn 0.5887 -0.1884 0.7861
vn -0.5811 0.2774 0.7651
vn -0.8737 0.4862 0.0166
vn -0.5843 0.2573 -0.7696
vn 0.6005 -0.1161 -0.7911
vn 0.9760 -0.2089 -0.0607
vn -0.7152 -0.2708 -0.6444
vn -0.7119 -0.0151 0.7021
vn -0.9826 -0.1748 0.0633
vn -0.9927 0.1203 -0.0106
vn -0.7007 -0.0787 -0.7091
vn -0.6930 0.3063 -0.6527
vn -0.9908 0.1259 0.0495
vn -0.9695 0.0365 0.2422
vn -0.8350 0.1223 -0.5366
vn -0.0554 -0.7027 0.7093
vn 0.7325 0.6681 0.1308
vn -0.7601 0.2699 -0.5911
vn -0.1830 -0.7895 0.5859
vn 0.7596 0.5763 0.3016
vn -0.6313 0.0291 -0.7750
vn -0.3498 -0.4714 0.8096
vn 0.7625 0.6224 0.1766
vn -0.8685 0.0471 -0.4935
vn -0.0511 -0.4324 0.9002
vn 0.8012 0.5821 -0.1384
vn 0.7469 0.5974 -0.2920
vn -0.3956 -0.5634 -0.7253
vn -0.5854 0.1194 0.8019
vn 0.7918 0.4559 -0.4065
vn -0.5236 -0.5740 -0.6296
vn -0.4973 0.2797 0.8213
vn 0.2853 0.9338 0.2158
vn -0.2596 -0.1503 -0.9539
vn -0.3501 -0.6837 0.6404
vn 0.2620 0.2703 0.9265
vn 0.2561 0.6498 -0.7156
vn -0.7260 -0.6382 -0.2563
vn 0.9634 -0.0889 0.2529
vn -0.2404 0.8640 -0.4424
vn -0.7729 -0.4943 0.3978
vn 0.8809 0.3080 -0.3593
vn -0.3574 -0.8239 -0.4398
vn -0.7049 0.5192 0.4833
vn 0.8046 0.5621 -0.1916
vn -0.5688 -0.2050 -0.7965
vn -0.4612 -0.1073 0.8808
vn 0.8750 0.4429 -0.1956
vn -0.6766 0.0639 -0.7335
vn -0.3804 -0.2053 0.9018
vn 0.9580 0.2696 -0.0972
vn -0.6026 0.3187 -0.7316
vn -0.4690 -0.2543 0.8458
vn -0.6807 0.5723 0.4573
vn 0.8351 0.4773 -0.2735
vn -0.1656 -0.8605 -0.4818
vn -0.2051 0.8762 0.4361
vn 0.8328 -0.0093 -0.5535
vn -0.6478 -0.7326 -0.2087
vn -0.1398 0.5479 0.8248
vn 0.6909 0.3562 -0.6291
vn -0.6476 -0.6414 -0.4113
vn 0.7447 0.6524 -0.1411
vn -0.8939 0.3051 -0.3284
vn -0.0329 -0.7362 0.6759
vn 0.9880 -0.0626 -0.1415
vn -0.4015 0.8876 -0.2258
vn -0.5565 -0.5673 0.6070
vn 0.2188 0.8526 -0.4745
vn -0.9413 -0.3167 -0.1173
vn 0.4740 -0.3846 0.7921
vn -0.0734 0.9632 -0.2587
vn -0.8231 -0.3876 0.4150
vn 0.8404 -0.5090 0.1861
vn -0.2089 0.7629 -0.6118
vn -0.7055 -0.1986 0.6803
vn 0.9059 -0.3616 0.2206
vn -0.5845 0.5631 -0.5843
vn -0.4863 -0.6729 0.5574
vn 0.9189 0.2246 0.3244
vn -0.0070 0.5440 -0.8390
vn -0.7300 -0.6802 0.0660
vn 0.4179 0.2496 0.8735
vn 0.9713 -0.1191 -0.2061
vn -0.6151 -0.5978 -0.5141
vn -0.4358 0.8115 0.3893
vn 0.7104 0.6485 -0.2736
vn -0.8986 0.1646 -0.4067
vn -0.0130 -0.5624 0.8267
vn -0.3965 -0.7995 -0.4513
vn -0.3639 0.0327 0.9309
vn 0.3940 0.8649 -0.3111
vn -0.6015 -0.5481 0.5812
vn 0.5563 0.6731 0.4873
vn -0.1101 0.1790 -0.9777
vn 0.2039 -0.4075 0.8901
vn 0.4737 0.8607 -0.1867
vn -0.8123 -0.1593 -0.5610
vn -0.6887 -0.6473 0.3267
vt 0.666992 0.408203
vt 0.731445 0.365234
vt 0.728516 0.415039
vt 0.368164 0.927734
vt 0.316406 0.845703
vt 0.398438 0.887695
vt 0.300781 0.876953
vt 0.250000 0.842773
vt 0.680664 0.208984
vt 0.637695 0.177734
vt 0.679688 0.182617
vt 0.677734 0.278320
vt 0.632812 0.221680
vt 0.435547 0.116211
vt 0.482422 0.208984
vt 0.435547 0.229492
vt 0.402344 0.116211
vt 0.325195 0.208984
vt 0.312500 0.138672
vt 0.439453 0.485352
vt 0.402344 0.417969
vt 0.442383 0.416992
vt 0.149414 0.942383
vt 0.167969 0.867188
vt 0.205078 0.882812
vt 0.283203 0.749023
vt 0.331055 0.768555
vt 0.247070 0.772461
vt 0.965820 0.590820
vt 0.935547 0.613281
vt 0.923828 0.559570
vt 0.565430 0.625000
vt 0.615234 0.664062
vt 0.569336 0.666992
vt 0.208008 0.752930
vt 0.158203 0.712891
vt 0.206055 0.711914
vt 0.748047 0.224609
vt 0.746094 0.281250
vt 0.745117 0.185547
vt 0.810547 0.193359
vt 0.061523 0.799805
vt 0.150391 0.833008
vt 0.083008 0.852539
vt 0.330078 0.490234
vt 0.218750 0.451172
vt 0.329102 0.432617
vt 0.948242 0.323242
vt 0.877930 0.414062
vt 0.879883 0.362305
vt 0.561523 0.202148
vt 0.800781 0.088867
vt 0.866211 0.050781
vt 0.856445 0.099609
vt 0.132812 0.500977
vt 0.062500 0.419922
vt 0.142578 0.450195
vt 0.768555 0.059570
vt 0.679688 0.067383
vt 0.750000 0.037109
vt 0.213867 0.505859
vt 0.024414 0.421875
vt 0.038086 0.315430
vt 0.034180 0.554688
vt 0.135742 0.559570
vt 0.807617 0.041992
vt 0.443359 0.293945
vt 0.459961 0.295898
vt 0.552734 0.234375
vt 0.621094 0.259766
vt 0.821289 0.424805
vt 0.802734 0.372070
vt 0.669922 0.324219
vt 0.759766 0.477539
vt 0.814453 0.493164
vt 0.768555 0.550781
vt 0.570312 0.732422
vt 0.622070 0.790039
vt 0.568359 0.778320
vt 0.556641 0.583008
vt 0.612305 0.606445
vt 0.027344 0.484375
vt 0.568359 0.823242
vt 0.619141 0.903320
vt 0.556641 0.887695
vt 0.260742 0.980469
vt 0.252930 0.878906
vt 0.861328 0.629883
vt 0.936523 0.647461
vt 0.763672 0.692383
vt 0.843750 0.698242
vt 0.626953 0.842773
vt 0.280273 0.708984
vt 0.241211 0.675781
vt 0.330078 0.705078
vt 0.619141 0.729492
vt 0.922852 0.707031
vt 0.761719 0.895508
vt 0.798828 0.826172
vt 0.810547 0.883789
vt 0.976562 0.715820
vt 0.873047 0.823242
vt 0.921875 0.871094
vt 0.869141 0.879883
vt 0.808594 0.758789
vt 0.772461 0.755859
vt 0.746094 0.825195
vt 0.858398 0.741211
vt 0.759766 0.621094
vt 0.868164 0.574219
vt 0.991211 0.637695
vt 0.912109 0.751953
vt 0.939453 0.819336
vt 0.049805 0.737305
vt 0.160156 0.776367
vt 0.245117 0.759766
vt 0.242188 0.697266
vt 0.434570 0.706055
vt 0.428711 0.782227
vt 0.903320 0.085938
vt 0.224609 0.555664
vt 0.152344 0.851562
vt 0.184570 0.843750
vt 0.897461 0.205078
vt 0.851562 0.156250
vt 0.895508 0.158203
vt 0.847656 0.281250
vt 0.842773 0.239258
vt 0.897461 0.235352
vt 0.787109 0.149414
vt 0.838867 0.195312
vt 0.680664 0.029297
vt 0.563477 0.155273
vt 0.626953 0.121094
vt 0.928711 0.074219
vt 0.616211 0.036133
vt 0.794922 0.239258
vt 0.602539 0.380859
vt 0.519531 0.342773
vt 0.533203 0.311523
vt 0.800781 0.296875
vt 0.927734 0.300781
vt 0.610352 0.332031
vt 0.683594 0.118164
vt 0.623047 0.072266
vt 0.537109 0.061523
vt 0.044922 0.677734
vt 0.135742 0.603516
vt 0.142578 0.675781
vt 0.250000 0.245117
vt 0.216797 0.204102
vt 0.242188 0.190430
vt 0.242188 0.297852
vt 0.228516 0.364258
vt 0.201172 0.340820
vt 0.228516 0.124023
vt 0.203125 0.145508
vt 0.158203 0.243164
vt 0.216797 0.243164
vt 0.216797 0.284180
vt 0.109375 0.900391
vt 0.739258 0.561523
vt 0.730469 0.627930
vt 0.733398 0.814453
vt 0.735352 0.756836
vt 0.724609 0.875977
vt 0.732422 0.683594
vt 0.724609 0.493164
vt 0.709961 0.727539
vt 0.704102 0.837891
vt 0.713867 0.602539
vt 0.716797 0.660156
vt 0.714844 0.902344
vt 0.707031 0.548828
vt 0.703125 0.789062
vt 0.803711 0.459961
vt 0.841797 0.472656
vt 0.807617 0.918945
vt 0.861328 0.518555
vt 0.927734 0.502930
vt 0.901367 0.493164
vt 0.868164 0.454102
vt 0.862305 0.479492
vt 0.834961 0.901367
vt 0.853516 0.951172
vt 0.500977 0.677734
vt 0.500000 0.731445
vt 0.498047 0.777344
vt 0.495117 0.822266
vt 0.491211 0.875977
vt 0.498047 0.630859
vt 0.328125 0.646484
vt 0.227539 0.621094
vt 0.231445 0.649414
vt 0.325195 0.602539
vt 0.434570 0.540039
vt 0.327148 0.541016
vt 0.427734 0.608398
vt 0.038086 0.605469
vt 0.430664 0.642578
vt 0.470703 0.633789
vt 0.473633 0.679688
vt 0.471680 0.730469
vt 0.470703 0.775391
vt 0.491211 0.586914
vt 0.463867 0.873047
vt 0.466797 0.822266
vt 0.090820 0.873047
vt 0.283203 0.245117
vt 0.269531 0.309570
vt 0.175781 0.176758
vt 0.173828 0.311523
vt 0.269531 0.178711
vt 0.578125 0.457031
vt 0.574219 0.484375
vt 0.507812 0.457031
vt 0.558594 0.507812
vt 0.539062 0.523438
vt 0.493164 0.138672
vt 0.020508 0.317383
vt 0.608398 0.547852
vt 0.850586 0.452148
vt 0.463867 0.588867
vt 0.400391 0.229492
vt 0.870117 0.943359
s 1
usemtl MobileCactus
f 19/1/1 75/2/2 18/3/3
f 305/4/4 10/5/5 270/6/6
f 40/7/7 12/8/8 10/5/5
f 15/9/9 68/10/10 72/11/11
f 27/12/12 7/13/13 15/9/9
f 5/14/14 24/15/15 64/16/16
f 65/17/17 25/18/18 2/19/19
f 276/20/20 21/21/21 256/22/22
f 306/23/23 93/24/24 41/25/25
f 39/26/26 60/27/27 61/28/28
f 47/29/29 50/30/30 115/31/31
f 122/32/32 9/33/33 123/34/34
f 38/35/35 4/36/36 44/37/37
f 60/27/27 270/6/6 10/5/5
f 27/12/12 16/38/38 30/39/39
f 69/40/40 71/41/41 16/38/38
f 324/42/42 94/43/43 366/44/44
f 13/45/45 18/46/3 20/47/46
f 23/48/47 21/49/21 62/50/48
f 6/51/49 68/10/10 7/13/13
f 137/52/50 1/53/51 138/54/52
f 14/55/53 22/56/54 19/57/1
f 64/58/16 81/59/55 26/60/56
f 17/61/57 19/57/1 18/46/3
f 258/62/58 23/63/47 22/56/54
f 406/64/59 14/55/53 128/65/60
f 64/58/16 24/66/15 137/52/50
f 256/22/22 23/67/47 267/68/61
f 29/69/62 7/13/13 32/70/63
f 20/71/46 62/50/48 21/49/21
f 75/2/2 30/39/39 63/72/64
f 27/12/12 30/39/39 78/73/65
f 78/73/65 32/70/63 27/12/12
f 99/74/66 110/75/67 100/76/68
f 13/45/45 21/21/21 276/20/20
f 118/77/69 36/78/70 119/79/71
f 121/80/72 34/81/73 122/32/32
f 258/62/58 22/56/54 278/82/74
f 120/83/75 46/84/76 121/85/72
f 307/86/77 306/23/23 41/25/25
f 307/86/77 42/87/78 40/7/7
f 54/88/79 50/30/30 51/89/80
f 95/90/81 54/88/79 57/91/82
f 120/83/75 36/78/70 33/92/83
f 45/93/84 59/94/85 3/95/86
f 123/34/34 35/96/87 118/77/69
f 54/88/79 48/97/88 57/91/82
f 99/98/66 56/99/89 58/100/90
f 51/89/80 52/101/91 48/97/88
f 117/102/92 47/103/29 115/104/31
f 95/90/81 53/105/93 98/106/94
f 98/106/94 56/99/89 97/107/95
f 53/105/93 57/91/82 116/108/96
f 96/109/97 55/110/98 54/88/79
f 50/30/30 49/111/99 51/89/80
f 117/102/92 52/112/91 49/113/99
f 264/114/100 8/115/101 324/42/42
f 38/35/35 37/116/102 61/28/28
f 44/37/37 59/94/85 43/117/103
f 60/27/27 263/118/104 332/119/105
f 12/8/8 61/28/28 60/27/27
f 39/26/26 3/95/86 60/27/27
f 64/16/16 65/17/17 5/14/14
f 5/120/14 138/54/52 1/53/51
f 128/65/60 17/61/57 129/121/106
f 93/24/24 92/122/107 11/123/108
f 10/5/5 12/8/8 60/27/27
f 37/116/102 39/26/26 61/28/28
f 8/115/101 38/35/35 61/28/28
f 6/124/49 73/125/109 70/126/110
f 12/8/8 41/25/25 11/123/108
f 76/127/111 28/128/112 29/129/62
f 42/87/78 307/86/77 41/25/25
f 305/4/4 307/86/77 40/7/7
f 67/130/113 64/58/16 137/52/50
f 71/41/41 73/125/109 66/131/114
f 25/132/18 26/60/56 81/59/55
f 68/10/10 70/133/110 82/134/115
f 15/9/9 69/40/40 16/38/38
f 70/126/110 5/120/14 65/135/17
f 81/59/55 2/136/19 25/132/18
f 67/130/113 138/54/52 73/125/109
f 31/137/116 16/38/38 71/41/41
f 28/128/112 71/41/41 66/131/114
f 28/128/112 6/124/49 29/129/62
f 18/3/3 63/72/64 20/71/46
f 22/138/54 23/139/47 74/140/117
f 77/141/118 63/72/64 30/39/39
f 76/127/111 31/137/116 28/128/112
f 31/137/116 77/141/118 30/39/39
f 74/142/117 76/127/111 29/129/62
f 30/39/39 75/2/2 78/73/65
f 79/143/119 29/69/62 32/70/63
f 74/140/117 29/69/62 79/143/119
f 68/10/10 80/144/120 72/11/11
f 82/134/115 81/59/55 80/144/120
f 83/145/121 65/146/17 2/136/19
f 65/146/17 82/134/115 70/133/110
f 69/40/40 72/11/11 80/144/120
f 80/144/120 67/130/113 69/40/40
f 404/147/122 84/148/123 125/149/124
f 141/150/125 86/151/126 140/152/127
f 139/153/128 362/154/129 421/155/130
f 363/156/131 140/152/127 422/157/132
f 364/158/133 86/151/126 89/159/134
f 87/160/135 364/158/133 89/159/134
f 87/160/135 141/150/125 139/153/128
f 271/161/136 92/122/107 93/24/24
f 11/123/108 41/25/25 93/24/24
f 61/28/28 11/123/108 8/115/101
f 94/43/43 8/115/101 11/123/108
f 106/162/137 96/109/97 101/163/138
f 102/164/139 98/106/94 97/107/95
f 105/165/140 95/90/81 98/106/94
f 103/166/141 97/107/95 99/98/66
f 104/167/142 96/109/97 95/90/81
f 103/168/141 100/76/68 106/162/137
f 9/33/33 106/169/137 35/96/87
f 36/78/70 104/170/142 33/92/83
f 9/33/33 102/171/139 103/172/141
f 46/84/76 104/170/142 105/173/140
f 34/81/73 105/174/140 102/171/139
f 35/96/87 101/175/138 36/78/70
f 109/176/143 114/177/144 110/75/67
f 58/100/90 109/178/143 99/98/66
f 100/76/68 107/179/145 55/110/98
f 58/180/90 107/179/145 108/181/146
f 114/177/144 112/182/147 111/183/148
f 108/184/146 113/185/149 109/178/143
f 107/179/145 114/177/144 111/183/148
f 108/181/146 111/183/148 112/182/147
f 53/105/93 117/102/92 56/99/89
f 116/108/96 48/97/88 52/112/91
f 57/91/82 48/97/88 116/108/96
f 58/100/90 117/102/92 115/104/31
f 55/110/98 58/180/90 115/31/31
f 50/30/30 55/110/98 115/31/31
f 133/186/150 118/77/69 134/187/151
f 131/188/152 120/83/75 135/189/153
f 132/190/154 120/83/75 121/85/72
f 136/191/155 121/80/72 122/32/32
f 134/187/151 119/79/71 131/188/152
f 136/191/155 123/34/34 133/186/150
f 4/36/36 404/147/122 125/149/124
f 124/192/156 263/118/104 3/95/86
f 59/94/85 124/192/156 3/95/86
f 125/149/124 59/94/85 4/36/36
f 125/149/124 85/193/157 126/194/158
f 126/194/158 127/195/159 124/192/156
f 13/45/45 408/196/160 130/197/161
f 130/197/161 17/61/57 13/45/45
f 127/195/159 129/121/106 130/197/161
f 127/195/159 408/196/160 352/198/162
f 84/148/123 129/121/106 85/193/157
f 353/199/163 128/65/60 84/148/123
f 127/195/159 402/200/164 124/192/156
f 43/201/103 133/186/150 44/202/37
f 38/203/35 131/188/152 37/204/102
f 43/201/103 132/205/154 136/191/155
f 45/206/84 135/189/153 132/190/154
f 37/204/102 135/189/153 39/207/26
f 44/202/37 134/187/151 38/203/35
f 22/138/54 74/140/117 79/143/119
f 22/138/54 78/73/65 19/1/1
f 62/50/48 74/142/117 23/48/47
f 76/127/111 63/72/64 77/141/118
f 62/50/48 76/127/111 74/142/117
f 11/123/108 92/122/107 94/43/43
f 366/44/44 92/122/107 367/208/165
f 139/153/128 91/209/166 88/210/167
f 422/157/132 86/151/126 361/211/168
f 87/160/135 421/155/130 360/212/169
f 91/209/166 140/152/127 90/213/170
f 144/214/171 145/215/171 538/216/171
f 537/216/172 536/217/172 539/218/172
f 143/216/173 540/215/173 142/217/173
f 148/214/174 149/215/174 543/216/174
f 542/216/175 541/217/175 544/218/175
f 147/216/176 545/215/176 146/217/176
f 152/214/177 153/215/177 548/216/177
f 547/216/178 546/217/178 549/218/178
f 151/216/179 550/215/179 150/217/179
f 156/214/180 157/215/180 553/216/180
f 552/216/181 551/217/181 554/218/181
f 155/216/182 555/215/182 154/217/182
f 160/214/183 161/215/183 558/216/183
f 557/216/184 556/217/184 559/218/184
f 159/216/185 560/215/185 158/217/185
f 164/214/186 165/215/186 563/216/186
f 562/216/187 561/217/187 564/218/187
f 163/216/188 565/215/188 162/217/188
f 168/214/189 169/215/189 568/216/189
f 567/216/190 566/217/190 569/218/190
f 167/216/191 570/215/191 166/217/191
f 172/214/192 173/215/192 573/216/192
f 572/216/193 571/217/193 574/218/193
f 171/216/194 575/215/194 170/217/194
f 176/214/195 177/215/195 578/216/195
f 577/216/196 576/217/196 579/218/196
f 175/216/197 580/215/197 174/217/197
f 180/214/198 181/215/198 583/216/198
f 582/216/199 581/217/199 584/218/199
f 179/216/200 585/215/200 178/217/200
f 184/214/201 185/215/201 588/216/201
f 587/216/202 586/217/202 589/218/202
f 183/216/203 590/215/203 182/217/203
f 188/214/204 189/215/204 593/216/204
f 592/216/205 591/217/205 594/218/205
f 187/216/206 595/215/206 186/217/206
f 192/214/207 193/215/207 598/216/207
f 597/216/208 596/217/208 599/218/208
f 191/216/209 600/215/209 190/217/209
f 196/214/210 197/215/210 603/216/210
f 602/216/211 601/217/211 604/218/211
f 195/216/212 605/215/212 194/217/212
f 200/214/213 201/215/213 608/216/213
f 607/216/214 606/217/214 609/218/214
f 199/216/215 610/215/215 198/217/215
f 204/214/216 205/215/216 613/216/216
f 612/216/217 611/217/217 614/218/217
f 203/216/218 615/215/218 202/217/218
f 208/214/219 209/215/219 618/216/219
f 617/216/220 616/217/220 619/218/220
f 207/216/221 620/215/221 206/217/221
f 212/214/222 213/215/222 623/216/222
f 622/216/223 621/217/223 624/218/223
f 211/216/224 625/215/224 210/217/224
f 216/214/225 217/215/225 628/216/225
f 627/216/226 626/217/226 629/218/226
f 215/216/227 630/215/227 214/217/227
f 220/214/228 221/215/228 633/216/228
f 632/216/229 631/217/229 634/218/229
f 219/216/230 635/215/230 218/217/230
f 224/214/231 225/215/231 638/216/231
f 637/216/232 636/217/232 639/218/232
f 223/216/233 640/215/233 222/217/233
f 228/214/234 229/215/234 643/216/234
f 642/216/235 641/217/235 644/218/235
f 227/216/236 645/215/236 226/217/236
f 232/214/237 233/215/237 648/216/237
f 647/216/238 646/217/238 649/218/238
f 231/216/239 650/215/239 230/217/239
f 236/214/240 237/215/240 653/216/240
f 652/216/241 651/217/241 654/218/241
f 235/216/242 655/215/242 234/217/242
f 240/214/243 241/215/243 658/216/243
f 657/216/244 656/217/244 659/218/244
f 239/216/245 660/215/245 238/217/245
f 244/214/246 245/215/246 663/216/246
f 662/216/247 661/217/247 664/218/247
f 243/216/248 665/215/248 242/217/248
f 248/214/249 249/215/249 668/216/249
f 667/216/250 666/217/250 669/218/250
f 247/216/251 670/215/251 246/217/251
f 252/214/252 253/215/252 673/216/252
f 672/216/253 671/217/253 674/218/253
f 251/216/254 675/215/254 250/217/254
f 281/1/255 342/2/256 345/73/257
f 268/5/258 305/4/4 270/6/6
f 272/8/259 302/7/260 268/5/258
f 275/9/261 335/10/262 262/13/263
f 289/12/264 262/13/263 294/70/265
f 260/14/266 286/15/267 254/219/268
f 287/18/269 331/17/270 255/19/271
f 276/20/20 256/22/22 283/21/272
f 369/24/273 306/23/23 303/25/274
f 301/26/275 327/28/276 326/27/277
f 312/29/278 391/31/279 315/30/280
f 266/33/281 398/32/282 399/34/283
f 259/36/284 300/35/285 309/37/286
f 268/5/258 332/119/105 326/27/277
f 277/38/287 289/12/264 292/39/288
f 336/40/289 338/41/290 334/130/291
f 370/43/292 324/42/42 366/44/44
f 280/46/293 273/45/294 282/47/295
f 285/48/296 328/50/297 283/49/272
f 335/10/262 261/51/298 262/13/263
f 254/53/268 417/52/299 418/54/300
f 284/56/301 274/55/302 281/57/255
f 348/59/303 330/58/304 288/60/305
f 281/57/255 279/61/306 280/46/293
f 258/62/58 285/63/296 267/220/61
f 274/55/302 406/64/59 407/65/307
f 330/58/304 417/52/299 286/66/267
f 285/67/296 256/22/22 267/68/61
f 262/13/263 291/69/308 294/70/265
f 328/50/297 282/71/295 283/49/272
f 342/2/256 329/72/309 292/39/288
f 289/12/264 345/73/257 292/39/288
f 345/73/257 294/70/265 346/143/310
f 386/75/311 375/74/312 376/76/313
f 273/45/294 283/21/272 282/47/295
f 298/78/314 394/77/315 395/79/316
f 296/81/317 397/80/318 398/32/282
f 258/62/58 278/82/74 284/56/301
f 311/84/319 396/83/320 397/85/318
f 307/86/77 303/25/274 306/23/23
f 307/86/77 302/7/260 304/87/321
f 319/88/322 315/30/280 320/110/323
f 371/90/324 319/88/322 372/109/325
f 396/83/320 298/78/314 395/79/316
f 310/93/326 325/94/327 308/117/328
f 297/96/329 399/34/283 394/77/315
f 313/97/330 319/88/322 322/91/331
f 375/98/312 321/99/332 373/107/333
f 316/89/334 317/101/335 314/111/336
f 312/103/278 393/102/337 391/104/279
f 318/105/338 371/90/324 374/106/339
f 321/99/332 374/106/339 373/107/333
f 318/105/338 392/108/340 322/91/331
f 372/109/325 320/110/323 376/76/313
f 314/111/336 315/30/280 316/89/334
f 393/102/337 317/112/335 392/108/340
f 324/42/42 259/36/284 264/114/100
f 300/35/285 327/28/276 299/116/341
f 325/94/327 309/37/286 308/117/328
f 326/27/277 263/118/104 257/95/342
f 272/8/259 326/27/277 327/28/276
f 301/26/275 257/95/342 310/93/326
f 331/17/270 330/16/304 260/14/266
f 260/120/266 418/54/300 340/125/343
f 407/65/307 279/61/306 274/55/302
f 369/24/273 269/123/344 368/122/345
f 268/5/258 326/27/277 272/8/259
f 299/116/341 327/28/276 301/26/275
f 265/115/346 327/28/276 300/35/285
f 261/124/298 340/125/343 333/131/347
f 272/8/259 303/25/274 304/87/321
f 343/127/348 291/129/308 290/128/349
f 304/87/321 303/25/274 307/86/77
f 305/4/4 302/7/260 307/86/77
f 334/130/291 417/52/299 330/58/304
f 340/125/343 338/41/290 333/131/347
f 287/132/269 348/59/303 288/60/305
f 335/10/262 349/134/350 337/133/351
f 336/40/289 275/9/261 277/38/287
f 260/120/266 337/126/351 331/135/270
f 348/59/303 255/136/271 350/145/352
f 418/54/300 334/130/291 340/125/343
f 293/137/353 277/38/287 292/39/288
f 290/128/349 338/41/290 293/137/353
f 261/124/298 290/128/349 291/129/308
f 329/72/309 280/3/293 282/71/295
f 284/138/301 341/140/354 285/139/296
f 344/141/355 292/39/288 329/72/309
f 293/137/353 343/127/348 290/128/349
f 293/137/353 292/39/288 344/141/355
f 341/142/354 291/129/308 343/127/348
f 292/39/288 345/73/257 342/2/256
f 346/143/310 294/70/265 291/69/308
f 341/140/354 346/143/310 291/69/308
f 347/144/356 335/10/262 339/11/357
f 348/59/303 349/134/350 347/144/356
f 350/145/352 255/136/271 331/146/270
f 349/134/350 331/146/270 337/133/351
f 336/40/289 347/144/356 339/11/357
f 334/130/291 347/144/356 336/40/289
f 404/147/122 351/148/358 353/199/163
f 423/150/359 355/151/360 358/159/361
f 419/153/362 362/154/129 357/210/363
f 420/152/364 363/156/131 422/157/132
f 355/151/360 364/158/133 358/159/361
f 356/160/365 364/158/133 360/212/169
f 423/150/359 356/160/365 419/153/362
f 271/161/136 368/122/345 367/208/165
f 269/123/344 369/24/273 303/25/274
f 269/123/344 327/28/276 265/115/346
f 370/43/292 269/123/344 265/115/346
f 372/109/325 382/162/366 377/163/367
f 378/164/368 374/106/339 381/165/369
f 381/165/369 371/90/324 380/167/370
f 379/166/371 373/107/333 378/164/368
f 380/167/370 372/109/325 377/163/367
f 376/76/313 379/168/371 382/162/366
f 382/169/366 266/33/281 297/96/329
f 380/170/370 298/78/314 295/92/372
f 266/33/281 378/171/368 296/81/317
f 311/84/319 380/170/370 295/92/372
f 296/81/317 381/174/369 311/221/319
f 377/175/367 297/96/329 298/78/314
f 390/177/373 385/176/374 386/75/311
f 385/178/374 323/100/375 375/98/312
f 383/179/376 376/76/313 320/110/323
f 323/180/375 383/179/376 320/110/323
f 390/177/373 388/182/377 389/222/378
f 389/185/378 384/184/379 385/178/374
f 383/179/376 390/177/373 386/75/311
f 384/181/379 387/183/380 383/179/376
f 393/102/337 318/105/338 321/99/332
f 392/108/340 317/112/335 313/97/330
f 322/91/331 392/108/340 313/97/330
f 323/100/375 393/102/337 321/99/332
f 320/110/323 391/31/279 323/180/375
f 315/30/280 391/31/279 320/110/323
f 394/77/315 413/186/381 414/187/382
f 396/83/320 411/188/383 415/189/384
f 412/190/385 396/83/320 415/189/384
f 416/191/386 397/80/318 412/205/385
f 395/79/316 414/187/382 411/188/383
f 399/34/283 416/191/386 413/186/381
f 259/36/284 404/147/122 264/114/100
f 263/118/104 400/192/387 257/95/342
f 400/192/387 325/94/327 257/95/342
f 325/94/327 401/149/388 259/36/284
f 401/149/388 354/193/389 351/148/358
f 403/194/390 405/195/391 354/193/389
f 408/196/160 273/45/294 410/197/392
f 410/197/392 279/61/306 409/121/393
f 405/195/391 409/121/393 354/193/389
f 405/195/391 408/196/160 410/197/392
f 351/148/358 409/121/393 407/65/307
f 407/65/307 353/199/163 351/148/358
f 405/195/391 402/200/164 352/198/162
f 413/186/381 308/201/328 309/202/286
f 411/188/383 300/203/285 299/204/341
f 308/201/328 412/205/385 310/223/326
f 310/206/326 415/189/384 301/207/275
f 415/189/384 299/204/341 301/207/275
f 414/187/382 309/202/286 300/203/285
f 284/138/301 346/143/310 341/140/354
f 284/138/301 345/73/257 346/143/310
f 328/50/297 285/48/296 341/142/354
f 343/127/348 329/72/309 328/50/297
f 328/50/297 341/142/354 343/127/348
f 269/123/344 370/43/292 368/122/345
f 367/208/165 370/43/292 366/44/44
f 365/209/394 419/153/362 357/210/363
f 355/151/360 422/157/132 361/211/168
f 356/160/365 421/155/130 419/153/362
f 365/209/394 420/152/364 423/150/359
f 426/214/395 678/216/395 427/215/395
f 677/216/396 679/218/396 676/217/396
f 425/216/397 424/217/397 680/215/397
f 430/214/398 683/216/398 431/215/398
f 682/216/399 684/218/399 681/217/399
f 429/216/400 428/217/400 685/215/400
f 434/214/401 688/216/401 435/215/401
f 687/216/402 689/218/402 686/217/402
f 433/216/403 432/217/403 690/215/403
f 438/214/404 693/216/404 439/215/404
f 692/216/405 694/218/405 691/217/405
f 437/216/406 436/217/406 695/215/406
f 442/214/407 698/216/407 443/215/407
f 697/216/408 699/218/408 696/217/408
f 441/216/409 440/217/409 700/215/409
f 446/214/410 703/216/410 447/215/410
f 702/216/411 704/218/411 701/217/411
f 445/216/412 444/217/412 705/215/412
f 450/214/413 708/216/413 451/215/413
f 707/216/414 709/218/414 706/217/414
f 449/216/415 448/217/415 710/215/415
f 454/214/416 713/216/416 455/215/416
f 712/216/417 714/218/417 711/217/417
f 453/216/418 452/217/418 715/215/418
f 458/214/419 718/216/419 459/215/419
f 717/216/420 719/218/420 716/217/420
f 457/216/421 456/217/421 720/215/421
f 462/214/422 723/216/422 463/215/422
f 722/216/423 724/218/423 721/217/423
f 461/216/424 460/217/424 725/215/424
f 466/214/425 728/216/425 467/215/425
f 727/216/426 729/218/426 726/217/426
f 465/216/427 464/217/427 730/215/427
f 470/214/428 733/216/428 471/215/428
f 732/216/429 734/218/429 731/217/429
f 469/216/430 468/217/430 735/215/430
f 474/214/431 738/216/431 475/215/431
f 737/216/432 739/218/432 736/217/432
f 473/216/433 472/217/433 740/215/433
f 478/214/434 743/216/434 479/215/434
f 742/216/435 744/218/435 741/217/435
f 477/216/436 476/217/436 745/215/436
f 482/214/437 748/216/437 483/215/437
f 747/216/438 749/218/438 746/217/438
f 481/216/439 480/217/439 750/215/439
f 486/214/440 753/216/440 487/215/440
f 752/216/441 754/218/441 751/217/441
f 485/216/442 484/217/442 755/215/442
f 490/214/443 758/216/443 491/215/443
f 757/216/444 759/218/444 756/217/444
f 489/216/445 488/217/445 760/215/445
f 494/214/446 763/216/446 495/215/446
f 762/216/447 764/218/447 761/217/447
f 493/216/448 492/217/448 765/215/448
f 498/214/449 768/216/449 499/215/449
f 767/216/450 769/218/450 766/217/450
f 497/216/451 496/217/451 770/215/451
f 502/214/452 773/216/452 503/215/452
f 772/216/453 774/218/453 771/217/453
f 501/216/454 500/217/454 775/215/454
f 506/214/455 778/216/455 507/215/455
f 777/216/456 779/218/456 776/217/456
f 505/216/457 504/217/457 780/215/457
f 510/214/458 783/216/458 511/215/458
f 782/216/459 784/218/459 781/217/459
f 509/216/460 508/217/460 785/215/460
f 514/214/461 788/216/461 515/215/461
f 787/216/462 789/218/462 786/217/462
f 513/216/463 512/217/463 790/215/463
f 518/214/464 793/216/464 519/215/464
f 792/216/465 794/218/465 791/217/465
f 517/216/466 516/217/466 795/215/466
f 522/214/467 798/216/467 523/215/467
f 797/216/468 799/218/468 796/217/468
f 521/216/469 520/217/469 800/215/469
f 526/214/470 803/216/470 527/215/470
f 802/216/471 804/218/471 801/217/471
f 525/216/472 524/217/472 805/215/472
f 530/214/473 808/216/473 531/215/473
f 807/216/474 809/218/474 806/217/474
f 529/216/475 528/217/475 810/215/475
f 534/214/476 813/216/476 535/215/476
f 812/216/477 814/218/477 811/217/477
f 533/216/478 532/217/478 815/215/478
f 19/1/1 78/73/65 75/2/2
f 305/4/4 40/7/7 10/5/5
f 40/7/7 42/87/78 12/8/8
f 15/9/9 7/13/13 68/10/10
f 27/12/12 32/70/63 7/13/13
f 5/14/14 1/219/51 24/15/15
f 65/17/17 26/224/56 25/18/18
f 306/23/23 271/161/136 93/24/24
f 122/32/32 34/81/73 9/33/33
f 38/35/35 8/115/101 4/36/36
f 60/27/27 332/119/105 270/6/6
f 27/12/12 15/9/9 16/38/38
f 69/40/40 67/130/113 71/41/41
f 324/42/42 8/115/101 94/43/43
f 13/45/45 17/61/57 18/46/3
f 6/51/49 70/133/110 68/10/10
f 137/52/50 24/66/15 1/53/51
f 14/55/53 278/82/74 22/56/54
f 64/58/16 80/144/120 81/59/55
f 17/61/57 14/55/53 19/57/1
f 258/62/58 267/220/61 23/63/47
f 406/64/59 278/82/74 14/55/53
f 256/22/22 21/21/21 23/67/47
f 29/69/62 6/51/49 7/13/13
f 20/71/46 63/72/64 62/50/48
f 78/73/65 79/143/119 32/70/63
f 99/74/66 109/176/143 110/75/67
f 13/45/45 20/47/46 21/21/21
f 118/77/69 35/96/87 36/78/70
f 121/80/72 46/221/76 34/81/73
f 120/83/75 33/92/83 46/84/76
f 54/88/79 55/110/98 50/30/30
f 95/90/81 96/109/97 54/88/79
f 120/83/75 119/79/71 36/78/70
f 45/93/84 43/117/103 59/94/85
f 123/34/34 9/33/33 35/96/87
f 54/88/79 51/89/80 48/97/88
f 99/98/66 97/107/95 56/99/89
f 51/89/80 49/111/99 52/101/91
f 117/102/92 49/113/99 47/103/29
f 95/90/81 57/91/82 53/105/93
f 98/106/94 53/105/93 56/99/89
f 96/109/97 100/76/68 55/110/98
f 50/30/30 47/29/29 49/111/99
f 117/102/92 116/108/96 52/112/91
f 264/114/100 4/36/36 8/115/101
f 44/37/37 4/36/36 59/94/85
f 60/27/27 3/95/86 263/118/104
f 39/26/26 45/93/84 3/95/86
f 64/16/16 26/224/56 65/17/17
f 5/120/14 73/125/109 138/54/52
f 128/65/60 14/55/53 17/61/57
f 6/124/49 66/131/114 73/125/109
f 12/8/8 42/87/78 41/25/25
f 71/41/41 67/130/113 73/125/109
f 15/9/9 72/11/11 69/40/40
f 70/126/110 73/125/109 5/120/14
f 81/59/55 83/145/121 2/136/19
f 67/130/113 137/52/50 138/54/52
f 31/137/116 30/39/39 16/38/38
f 28/128/112 31/137/116 71/41/41
f 28/128/112 66/131/114 6/124/49
f 18/3/3 75/2/2 63/72/64
f 76/127/111 77/141/118 31/137/116
f 68/10/10 82/134/115 80/144/120
f 82/134/115 83/145/121 81/59/55
f 65/146/17 83/145/121 82/134/115
f 80/144/120 64/58/16 67/130/113
f 404/147/122 353/199/163 84/148/123
f 141/150/125 89/159/134 86/151/126
f 139/153/128 88/210/167 362/154/129
f 363/156/131 90/213/170 140/152/127
f 364/158/133 361/211/168 86/151/126
f 87/160/135 360/212/169 364/158/133
f 87/160/135 89/159/134 141/150/125
f 271/161/136 367/208/165 92/122/107
f 61/28/28 12/8/8 11/123/108
f 106/162/137 100/76/68 96/109/97
f 102/164/139 105/165/140 98/106/94
f 105/165/140 104/167/142 95/90/81
f 103/166/141 102/164/139 97/107/95
f 104/167/142 101/163/138 96/109/97
f 103/168/141 99/74/66 100/76/68
f 9/33/33 103/172/141 106/169/137
f 36/78/70 101/175/138 104/170/142
f 9/33/33 34/81/73 102/171/139
f 46/84/76 33/92/83 104/170/142
f 34/81/73 46/221/76 105/174/140
f 35/96/87 106/169/137 101/175/138
f 109/176/143 113/222/149 114/177/144
f 58/100/90 108/184/146 109/178/143
f 100/76/68 110/75/67 107/179/145
f 58/180/90 55/110/98 107/179/145
f 114/177/144 113/222/149 112/182/147
f 108/184/146 112/225/147 113/185/149
f 107/179/145 110/75/67 114/177/144
f 108/181/146 107/179/145 111/183/148
f 53/105/93 116/108/96 117/102/92
f 58/100/90 56/99/89 117/102/92
f 133/186/150 123/34/34 118/77/69
f 131/188/152 119/79/71 120/83/75
f 132/190/154 135/189/153 120/83/75
f 136/191/155 132/205/154 121/80/72
f 134/187/151 118/77/69 119/79/71
f 136/191/155 122/32/32 123/34/34
f 4/36/36 264/114/100 404/147/122
f 124/192/156 402/200/164 263/118/104
f 59/94/85 126/194/158 124/192/156
f 125/149/124 126/194/158 59/94/85
f 125/149/124 84/148/123 85/193/157
f 126/194/158 85/193/157 127/195/159
f 13/45/45 276/20/20 408/196/160
f 130/197/161 129/121/106 17/61/57
f 127/195/159 85/193/157 129/121/106
f 127/195/159 130/197/161 408/196/160
f 84/148/123 128/65/60 129/121/106
f 353/199/163 406/64/59 128/65/60
f 127/195/159 352/198/162 402/200/164
f 43/201/103 136/191/155 133/186/150
f 38/203/35 134/187/151 131/188/152
f 43/201/103 45/223/84 132/205/154
f 45/206/84 39/207/26 135/189/153
f 37/204/102 131/188/152 135/189/153
f 44/202/37 133/186/150 134/187/151
f 22/138/54 79/143/119 78/73/65
f 76/127/111 62/50/48 63/72/64
f 366/44/44 94/43/43 92/122/107
f 139/153/128 141/150/125 91/209/166
f 422/157/132 140/152/127 86/151/126
f 87/160/135 139/153/128 421/155/130
f 91/209/166 141/150/125 140/152/127
f 281/1/255 280/3/293 342/2/256
f 268/5/258 302/7/260 305/4/4
f 272/8/259 304/87/321 302/7/260
f 275/9/261 339/11/357 335/10/262
f 289/12/264 275/9/261 262/13/263
f 260/14/266 330/16/304 286/15/267
f 287/18/269 288/224/305 331/17/270
f 369/24/273 271/161/136 306/23/23
f 266/33/281 296/81/317 398/32/282
f 259/36/284 265/115/346 300/35/285
f 268/5/258 270/6/6 332/119/105
f 277/38/287 275/9/261 289/12/264
f 336/40/289 277/38/287 338/41/290
f 370/43/292 265/115/346 324/42/42
f 280/46/293 279/61/306 273/45/294
f 335/10/262 337/133/351 261/51/298
f 254/53/268 286/66/267 417/52/299
f 284/56/301 278/82/74 274/55/302
f 348/59/303 347/144/356 330/58/304
f 281/57/255 274/55/302 279/61/306
f 258/62/58 284/56/301 285/63/296
f 274/55/302 278/82/74 406/64/59
f 285/67/296 283/21/272 256/22/22
f 262/13/263 261/51/298 291/69/308
f 328/50/297 329/72/309 282/71/295
f 345/73/257 289/12/264 294/70/265
f 386/75/311 385/176/374 375/74/312
f 273/45/294 276/20/20 283/21/272
f 298/78/314 297/96/329 394/77/315
f 296/81/317 311/221/319 397/80/318
f 311/84/319 295/92/372 396/83/320
f 319/88/322 316/89/334 315/30/280
f 371/90/324 322/91/331 319/88/322
f 396/83/320 295/92/372 298/78/314
f 310/93/326 257/95/342 325/94/327
f 297/96/329 266/33/281 399/34/283
f 313/97/330 316/89/334 319/88/322
f 375/98/312 323/100/375 321/99/332
f 316/89/334 313/97/330 317/101/335
f 312/103/278 314/113/336 393/102/337
f 318/105/338 322/91/331 371/90/324
f 321/99/332 318/105/338 374/106/339
f 372/109/325 319/88/322 320/110/323
f 314/111/336 312/29/278 315/30/280
f 393/102/337 314/113/336 317/112/335
f 324/42/42 265/115/346 259/36/284
f 325/94/327 259/36/284 309/37/286
f 326/27/277 332/119/105 263/118/104
f 301/26/275 326/27/277 257/95/342
f 331/17/270 288/224/305 330/16/304
f 260/120/266 254/53/268 418/54/300
f 407/65/307 409/121/393 279/61/306
f 261/124/298 337/126/351 340/125/343
f 272/8/259 269/123/344 303/25/274
f 340/125/343 334/130/291 338/41/290
f 336/40/289 339/11/357 275/9/261
f 260/120/266 340/125/343 337/126/351
f 348/59/303 287/132/269 255/136/271
f 418/54/300 417/52/299 334/130/291
f 293/137/353 338/41/290 277/38/287
f 290/128/349 333/131/347 338/41/290
f 261/124/298 333/131/347 290/128/349
f 329/72/309 342/2/256 280/3/293
f 293/137/353 344/141/355 343/127/348
f 347/144/356 349/134/350 335/10/262
f 348/59/303 350/145/352 349/134/350
f 349/134/350 350/145/352 331/146/270
f 334/130/291 330/58/304 347/144/356
f 404/147/122 401/149/388 351/148/358
f 423/150/359 420/152/364 355/151/360
f 419/153/362 421/155/130 362/154/129
f 420/152/364 359/213/479 363/156/131
f 355/151/360 361/211/168 364/158/133
f 356/160/365 358/159/361 364/158/133
f 423/150/359 358/159/361 356/160/365
f 271/161/136 369/24/273 368/122/345
f 269/123/344 272/8/259 327/28/276
f 372/109/325 376/76/313 382/162/366
f 378/164/368 373/107/333 374/106/339
f 381/165/369 374/106/339 371/90/324
f 379/166/371 375/98/312 373/107/333
f 380/167/370 371/90/324 372/109/325
f 376/76/313 375/74/312 379/168/371
f 382/169/366 379/172/371 266/33/281
f 380/170/370 377/175/367 298/78/314
f 266/33/281 379/172/371 378/171/368
f 311/84/319 381/173/369 380/170/370
f 296/81/317 378/171/368 381/174/369
f 377/175/367 382/169/366 297/96/329
f 390/177/373 389/222/378 385/176/374
f 385/178/374 384/184/379 323/100/375
f 383/179/376 386/75/311 376/76/313
f 323/180/375 384/181/379 383/179/376
f 390/177/373 387/183/380 388/182/377
f 389/185/378 388/225/377 384/184/379
f 383/179/376 387/183/380 390/177/373
f 384/181/379 388/182/377 387/183/380
f 393/102/337 392/108/340 318/105/338
f 323/100/375 391/104/279 393/102/337
f 394/77/315 399/34/283 413/186/381
f 396/83/320 395/79/316 411/188/383
f 412/190/385 397/85/318 396/83/320
f 416/191/386 398/32/282 397/80/318
f 395/79/316 394/77/315 414/187/382
f 399/34/283 398/32/282 416/191/386
f 259/36/284 401/149/388 404/147/122
f 263/118/104 402/200/164 400/192/387
f 400/192/387 403/194/390 325/94/327
f 325/94/327 403/194/390 401/149/388
f 401/149/388 403/194/390 354/193/389
f 403/194/390 400/192/387 405/195/391
f 408/196/160 276/20/20 273/45/294
f 410/197/392 273/45/294 279/61/306
f 405/195/391 410/197/392 409/121/393
f 405/195/391 352/198/162 408/196/160
f 351/148/358 354/193/389 409/121/393
f 407/65/307 406/64/59 353/199/163
f 405/195/391 400/192/387 402/200/164
f 413/186/381 416/191/386 308/201/328
f 411/188/383 414/187/382 300/203/285
f 308/201/328 416/191/386 412/205/385
f 310/206/326 412/190/385 415/189/384
f 415/189/384 411/188/383 299/204/341
f 414/187/382 413/186/381 309/202/286
f 284/138/301 281/1/255 345/73/257
f 343/127/348 344/141/355 329/72/309
f 367/208/165 368/122/345 370/43/292
f 365/209/394 423/150/359 419/153/362
f 355/151/360 420/152/364 422/157/132
f 356/160/365 360/212/169 421/155/130
f 365/209/394 359/213/479 420/152/364
