# Blender 5.0.1
# www.blender.org
mtllib ExplosionQuad.mtl
o ExplosionQuad
v -2.500000 0.000000 2.500000
v 2.500000 0.000000 2.500000
v -2.500000 -0.000000 -2.500000
v 2.500000 -0.000000 -2.500000
vn -0.0000 1.0000 -0.0000
vt 0.000000 0.000000
vt 1.000000 0.000000
vt 1.000000 1.000000
vt 0.000000 1.000000
s 1
usemtl Material.005
f 1/1/1 2/2/1 4/3/1 3/4/1
o Plane
v -0.500000 0.000000 0.500000
v 0.500000 0.000000 0.500000
v -0.500000 -0.000000 -0.500000
v 0.500000 -0.000000 -0.500000
vn -0.0000 1.0000 -0.0000
vt 0.000000 0.000000
vt 1.000000 0.000000
vt 1.000000 1.000000
vt 0.000000 1.000000
s 1
usemtl Material.001
f 5/5/2 6/6/2 8/7/2 7/8/2
