# Blender 4.5.4 LTS
# www.blender.org
mtllib Fighter.mtl
o Fighter
v -0.531285 -0.344616 2.619355
v -0.532367 -0.347651 1.115349
v 0.063672 0.152629 0.626245
v 0.063636 0.060623 2.619455
v -0.540913 0.021705 2.619454
v -0.540912 0.021705 1.001014
v 0.107020 -0.334358 0.740676
v 0.063636 -0.347371 2.619455
v 0.152318 -0.074409 -0.177879
v -0.525852 -0.399462 1.269304
v 0.063637 -0.400068 1.269307
v 0.063637 0.152629 1.269307
v -0.540913 0.021705 1.269307
v 0.201779 -0.367521 -0.119805
v 0.248828 0.520035 0.626245
v 0.124475 0.452246 1.269307
v 0.273909 0.165689 -0.230729
v 0.270490 -0.234219 -0.622633
v 0.327231 -0.400804 -0.572589
v -0.442041 -0.210303 1.017194
v -0.038400 0.015560 0.717907
v -0.417447 -0.081132 0.966156
v 0.001070 -0.210303 0.764788
v -0.442041 -0.210303 1.452577
v -0.038400 0.015560 1.112084
v -0.417447 -0.081132 1.380246
v 0.004831 -0.210303 1.184415
v -0.094548 0.208733 2.619455
v -0.379720 0.208740 2.619454
v -0.094547 0.208733 1.679077
v -0.379720 0.208740 1.679077
v -0.367841 -0.466255 2.619455
v -0.094853 -0.466255 2.619455
v -0.367841 -0.466255 1.679077
v -0.094418 -0.466255 1.679077
v -0.427690 -0.262394 2.922992
v -0.034570 -0.022492 2.922992
v -0.421687 -0.022492 2.922992
v -0.034570 -0.262394 2.922992
v -0.127682 0.090427 2.922992
v -0.331383 0.091337 2.922992
v -0.322294 -0.341670 2.922992
v -0.139966 -0.341670 2.922992
v -0.404451 -0.242285 2.616926
v -0.057809 -0.037555 2.616925
v -0.393474 -0.037555 2.616925
v -0.057809 -0.242285 2.616926
v -0.128411 0.062965 2.616925
v -0.311700 0.062965 2.616925
v -0.311515 -0.312189 2.616926
v -0.150744 -0.312189 2.616926
v -0.525896 -0.244905 1.269307
v -2.005425 -0.517041 2.815402
v -2.005919 -0.518426 2.076791
v -2.000954 -0.558523 2.199305
v -2.015333 -0.439784 2.199091
v -1.008449 -0.402826 1.402646
v -1.019708 -0.308219 1.569516
v -1.002435 -0.450852 1.569772
v -0.750742 -0.369007 2.802664
v -0.486815 0.108186 2.510326
v -0.505203 0.078790 1.709092
v -0.468426 0.137582 1.952266
v -1.082362 0.426758 2.797977
v -1.092192 0.414194 2.296227
v -1.072532 0.439322 2.430783
v -0.700711 0.190503 1.927608
v -0.613588 0.198889 2.134605
v -0.684514 0.209032 2.840469
v 1.479493 -0.344616 2.619355
v 1.480575 -0.347651 1.115349
v 0.884536 0.152629 0.626245
v 0.884572 0.060623 2.619455
v 1.489122 0.021705 2.619455
v 1.489121 0.021705 1.001014
v 0.841188 -0.334358 0.740676
v 0.884572 -0.347371 2.619455
v 0.474104 -0.291725 2.796976
v 0.474104 -0.379150 0.626656
v 0.474104 0.076523 2.796976
v 0.795890 -0.074409 -0.177879
v 1.474060 -0.399462 1.269304
v 0.884572 -0.400068 1.269307
v 0.884572 0.152629 1.269307
v 1.489121 0.021705 1.269307
v 0.746430 -0.367521 -0.119805
v 0.474104 -0.420528 1.269307
v 0.699381 0.520035 0.626245
v 0.474104 0.558523 0.626656
v 0.823733 0.452246 1.269307
v 0.474104 0.517563 1.269307
v 0.474104 -0.404405 -0.074828
v 0.674299 0.165689 -0.230729
v 0.474104 0.204177 -0.235509
v 0.677719 -0.234219 -0.622633
v 0.620978 -0.400804 -0.572589
v 0.474104 -0.437687 -0.581943
v 1.390249 -0.210303 1.017194
v 0.474104 -0.234219 -0.632290
v 0.986608 0.015560 0.717907
v 1.365655 -0.081132 0.966157
v 0.947138 -0.210303 0.764788
v 1.390249 -0.210303 1.452577
v 0.986608 0.015560 1.112084
v 1.365655 -0.081132 1.380246
v 0.943378 -0.210303 1.184415
v 1.042756 0.208733 2.619455
v 1.327928 0.208740 2.619455
v 1.042756 0.208733 1.679077
v 1.327928 0.208740 1.679077
v 1.316049 -0.466255 2.619455
v 1.043061 -0.466255 2.619455
v 1.316049 -0.466255 1.679077
v 1.042627 -0.466255 1.679077
v 1.375898 -0.262394 2.922992
v 0.982778 -0.022492 2.922992
v 1.369895 -0.022492 2.922992
v 0.982778 -0.262394 2.922992
v 1.075890 0.090427 2.922992
v 1.279591 0.091337 2.922992
v 1.270502 -0.341670 2.922992
v 1.088174 -0.341670 2.922992
v 1.352659 -0.242285 2.616926
v 1.006017 -0.037555 2.616925
v 1.341682 -0.037555 2.616925
v 1.006017 -0.242285 2.616926
v 1.076619 0.062965 2.616925
v 1.259908 0.062965 2.616925
v 1.259723 -0.312189 2.616926
v 1.098953 -0.312189 2.616926
v 1.474104 -0.244905 1.269307
v 2.953634 -0.517041 2.815403
v 2.954127 -0.518426 2.076792
v 2.949162 -0.558523 2.199305
v 2.963542 -0.439784 2.199092
v 1.956657 -0.402826 1.402647
v 1.967916 -0.308219 1.569517
v 1.950643 -0.450852 1.569773
v 1.698950 -0.369007 2.802664
v 1.435023 0.108186 2.510326
v 1.453411 0.078790 1.709092
v 1.416634 0.137582 1.952267
v 2.030571 0.426758 2.797977
v 2.040401 0.414194 2.296227
v 2.020741 0.439322 2.430783
v 1.648919 0.190503 1.927608
v 1.561796 0.198889 2.134606
v 1.632722 0.209032 2.840469
vn 0.0983 -0.9916 0.0836
vn -0.0010 -0.9478 -0.3189
vn -0.9988 -0.0084 0.0476
vn 0.7104 0.5858 0.3902
vn -0.4731 -0.2854 -0.8335
vn -0.2117 0.9773 -0.0000
vn -0.3970 -0.0000 0.9178
vn -0.8898 0.4039 -0.2121
vn -0.9799 0.1990 0.0136
vn -0.0494 -0.9906 -0.1272
vn -0.1770 0.9474 0.2668
vn -0.8478 0.5303 -0.0000
vn -0.9996 -0.0263 -0.0059
vn 0.9514 -0.0000 0.3078
vn -0.1832 0.9807 0.0680
vn -0.8861 0.4465 -0.1243
vn -0.9881 -0.1125 -0.1045
vn -0.1834 0.9065 -0.3802
vn -0.1399 -0.9895 0.0356
vn -0.8624 0.3580 -0.3578
vn -0.2393 -0.9689 0.0636
vn -0.0338 0.6997 -0.7137
vn -0.9007 -0.3735 -0.2221
vn -0.1212 -0.2384 -0.9636
vn -0.4335 -0.2551 -0.8643
vn -0.4927 -0.2677 -0.8280
vn -0.4797 -0.2460 -0.8422
vn 0.9824 -0.1870 -0.0000
vn -0.9851 -0.1721 -0.0000
vn 0.2472 -0.9690 -0.0000
vn -0.0000 1.0000 -0.0000
vn -0.4801 -0.3495 -0.8046
vn -0.5539 -0.7364 0.3884
vn -0.0000 0.9908 -0.1356
vn 0.6835 0.7300 -0.0000
vn -0.0000 -1.0000 -0.0000
vn -0.5970 -0.8022 -0.0000
vn 0.4610 -0.8867 0.0346
vn -0.0000 -0.9870 -0.1609
vn -0.7097 0.6116 0.3496
vn 0.5537 -0.7382 0.3853
vn -0.9294 0.0233 0.3684
vn 0.0042 0.9316 0.3635
vn -0.0000 -0.9251 0.3797
vn -0.8150 -0.5724 0.0901
vn -0.9971 -0.0000 0.0757
vn -0.0000 -0.9960 0.0894
vn -0.5982 0.7953 0.0977
vn -0.0000 0.9954 0.0959
vn 0.9941 -0.0533 0.0943
vn 0.7789 -0.6179 0.1074
vn 0.5982 0.7953 0.0977
vn -0.0000 -0.0000 1.0000
vn -0.4230 0.7470 -0.5129
vn -0.0733 -0.9592 -0.2730
vn 0.1314 -0.9906 0.0389
vn -0.1150 0.9854 0.1254
vn -0.9927 -0.1202 0.0009
vn -0.0590 0.9963 0.0620
vn 0.1325 -0.9903 0.0408
vn -0.0804 -0.9457 -0.3149
vn -0.3894 0.7897 -0.4740
vn -0.7500 0.6464 0.1404
vn -0.6926 0.7212 0.0152
vn -0.7247 0.6868 -0.0564
vn 0.3374 0.9153 -0.2202
vn 0.4761 0.8783 0.0428
vn -0.4772 -0.8784 0.0263
vn -0.7876 0.6162 -0.0000
vn -0.4589 -0.8874 0.0431
vn 0.5040 0.8629 0.0382
vn 0.2339 0.9625 -0.1374
vn 0.0497 -0.9980 0.0390
vn 0.0010 -0.9478 -0.3189
vn 0.9984 -0.0562 -0.0000
vn -0.6433 0.6870 0.3380
vn 0.4818 -0.2101 -0.8507
vn 0.2117 0.9773 -0.0000
vn 0.3970 -0.0000 0.9178
vn 0.8736 0.4402 -0.2076
vn 0.9799 0.1990 0.0136
vn 0.0494 -0.9906 -0.1272
vn 0.1553 0.9491 0.2740
vn 0.8478 0.5303 -0.0000
vn 0.9996 -0.0263 -0.0059
vn -0.9514 -0.0000 0.3078
vn 0.1832 0.9807 0.0680
vn 0.9800 0.1990 -0.0001
vn 0.9881 -0.1125 -0.1045
vn 0.1554 0.9137 -0.3755
vn 0.1132 -0.9932 0.0258
vn 0.8624 0.3580 -0.3578
vn 0.1397 -0.9896 0.0340
vn 0.1452 0.6639 -0.7336
vn 0.9625 -0.1989 -0.1843
vn 0.1212 -0.2384 -0.9636
vn 0.4750 -0.2411 -0.8463
vn 0.4927 -0.2677 -0.8280
vn 0.4814 -0.2775 -0.8314
vn -0.9824 -0.1870 -0.0000
vn 0.9851 -0.1721 -0.0000
vn -0.2472 -0.9690 -0.0000
vn 0.4801 -0.3495 -0.8046
vn 0.5508 -0.7398 0.3863
vn 0.1990 0.9187 -0.3411
vn -0.4683 0.8815 0.0601
vn 0.4629 -0.8858 0.0341
vn -0.4610 -0.8867 0.0346
vn 0.0010 -0.9871 -0.1598
vn 0.7097 0.6116 0.3496
vn -0.5537 -0.7382 0.3853
vn 0.9441 -0.0249 0.3288
vn -0.0000 0.9327 0.3607
vn 0.7702 -0.6351 0.0588
vn 0.9971 -0.0000 0.0757
vn 0.0044 -0.9957 0.0920
vn -0.9969 -0.0249 0.0741
vn -0.7789 -0.6179 0.1074
vn 0.4088 0.7818 -0.4708
vn 0.0733 -0.9592 -0.2730
vn -0.1314 -0.9906 0.0389
vn 0.0882 0.9938 0.0682
vn 0.9927 -0.1202 0.0009
vn 0.0830 0.9939 0.0731
vn -0.1325 -0.9903 0.0408
vn 0.0804 -0.9457 -0.3149
vn 0.3910 0.7731 -0.4995
vn 0.7500 0.6464 0.1404
vn 0.6257 0.7800 -0.0000
vn 0.7226 0.6906 -0.0310
vn -0.3506 0.9181 -0.1848
vn -0.4818 0.8755 0.0358
vn 0.4772 -0.8784 0.0263
vn 0.7876 0.6162 -0.0000
vn 0.4589 -0.8874 0.0431
vn -0.4532 0.8893 0.0618
vn -0.2407 0.9345 -0.2623
vn -0.0497 -0.9980 0.0390
vn -0.0542 -0.9904 -0.1275
vn -0.9984 -0.0562 -0.0000
vn 0.6433 0.6870 0.3380
vn -0.4818 -0.2101 -0.8507
vn -0.8736 0.4402 -0.2076
vn -0.1403 -0.9881 -0.0636
vn -0.1553 0.9491 0.2740
vn -0.1682 0.9838 0.0627
vn -0.9800 0.1990 -0.0001
vn -0.9824 -0.1773 -0.0582
vn -0.1554 0.9137 -0.3755
vn -0.1132 -0.9932 0.0258
vn -0.1397 -0.9896 0.0340
vn -0.1452 0.6639 -0.7336
vn -0.9625 -0.1989 -0.1843
vn -0.0452 -0.3015 -0.9524
vn -0.4750 -0.2411 -0.8463
vn -0.4516 -0.2522 -0.8558
vn -0.4814 -0.2776 -0.8314
vn -0.9827 -0.1853 0.0088
vn -0.4806 -0.3570 -0.8010
vn -0.5508 -0.7398 0.3863
vn -0.1990 0.9187 -0.3411
vn 0.4683 0.8815 0.0601
vn -0.4629 -0.8858 0.0341
vn 0.6001 -0.8000 0.0003
vn -0.0010 -0.9871 -0.1598
vn -0.7278 0.5774 0.3700
vn 0.5546 -0.7373 0.3858
vn -0.9441 -0.0249 0.3288
vn -0.7702 -0.6351 0.0588
vn -0.0044 -0.9957 0.0920
vn 0.9969 -0.0249 0.0741
vn 0.7717 -0.6278 0.1020
vn -0.4088 0.7818 -0.4708
vn -0.0910 -0.9475 -0.3064
vn 0.1176 -0.9908 0.0676
vn -0.0882 0.9938 0.0682
vn -0.0830 0.9939 0.0731
vn 0.1408 -0.9893 0.0369
vn -0.0688 -0.9595 -0.2732
vn -0.3910 0.7731 -0.4995
vn -0.6257 0.7800 -0.0000
vn -0.7226 0.6906 -0.0310
vn 0.3506 0.9181 -0.1848
vn 0.4818 0.8755 0.0358
vn -0.4824 -0.8754 0.0314
vn -0.4196 -0.9073 0.0259
vn 0.4532 0.8893 0.0618
vn 0.2407 0.9345 -0.2623
vn -0.0983 -0.9916 0.0836
vn 0.0542 -0.9904 -0.1275
vn 0.9988 -0.0084 0.0476
vn -0.7104 0.5858 0.3902
vn 0.4731 -0.2854 -0.8335
vn 0.8898 0.4039 -0.2121
vn 0.1403 -0.9881 -0.0636
vn 0.1770 0.9474 0.2668
vn 0.1682 0.9838 0.0627
vn 0.8861 0.4465 -0.1243
vn 0.9824 -0.1773 -0.0582
vn 0.1834 0.9065 -0.3802
vn 0.1399 -0.9895 0.0356
vn 0.2393 -0.9689 0.0636
vn 0.0338 0.6997 -0.7137
vn 0.9007 -0.3735 -0.2221
vn 0.0452 -0.3015 -0.9524
vn 0.4335 -0.2551 -0.8643
vn 0.4516 -0.2522 -0.8558
vn 0.4797 -0.2460 -0.8422
vn 0.9827 -0.1853 0.0088
vn 0.4806 -0.3570 -0.8010
vn 0.5539 -0.7364 0.3884
vn -0.6835 0.7300 -0.0000
vn 0.5970 -0.8022 -0.0000
vn -0.6001 -0.8000 0.0003
vn 0.7278 0.5774 0.3700
vn -0.5546 -0.7373 0.3858
vn 0.9294 0.0233 0.3684
vn -0.0042 0.9316 0.3635
vn 0.8150 -0.5724 0.0901
vn -0.9941 -0.0533 0.0943
vn -0.7717 -0.6278 0.1020
vn 0.4230 0.7470 -0.5129
vn 0.0910 -0.9475 -0.3064
vn -0.1176 -0.9908 0.0676
vn 0.1150 0.9854 0.1254
vn 0.0590 0.9963 0.0620
vn -0.1408 -0.9893 0.0369
vn 0.0688 -0.9595 -0.2732
vn 0.3894 0.7897 -0.4740
vn 0.6926 0.7212 0.0152
vn 0.7247 0.6868 -0.0564
vn -0.3374 0.9153 -0.2202
vn -0.4761 0.8783 0.0428
vn 0.4824 -0.8754 0.0314
vn 0.4196 -0.9073 0.0259
vn -0.5040 0.8629 0.0382
vn -0.2339 0.9625 -0.1374
vt 0.797469 0.548982
vt 0.489466 0.456939
vt 0.838449 0.454194
vt 0.424941 0.688199
vt 0.485140 0.537725
vt 0.487720 0.687567
vt 0.539345 0.734917
vt 0.481081 0.787183
vt 0.484979 0.710888
vt 0.964389 0.157365
vt 0.912787 0.201564
vt 0.907057 0.169042
vt 0.357264 0.778383
vt 0.445755 0.759534
vt 0.855618 0.583828
vt 0.976584 0.533355
vt 0.975856 0.585506
vt 0.722607 0.857379
vt 0.838898 0.908614
vt 0.772756 0.936358
vt 0.311359 0.849254
vt 0.144765 0.897816
vt 0.138650 0.843765
vt 0.444542 0.843410
vt 0.451531 0.907092
vt 0.341051 0.549805
vt 0.447583 0.978714
vt 0.987395 0.826262
vt 0.965365 0.664222
vt 0.815288 0.804528
vt 0.819202 0.728857
vt 0.884757 0.118534
vt 0.925431 0.078532
vt 0.319409 0.926744
vt 0.333053 0.804528
vt 0.184439 0.683841
vt 0.339817 0.701304
vt 0.131327 0.940099
vt 0.341808 0.456178
vt 0.170881 0.522135
vt 0.181606 0.455042
vt 0.036280 0.851782
vt 0.067523 0.492759
vt 0.065675 0.454198
vt 0.017449 0.891457
vt 0.076790 0.706276
vt 0.088169 0.668729
vt 0.039096 0.687362
vt 0.056842 0.653095
vt 0.366056 0.734889
vt 0.458212 0.734383
vt 0.561149 0.123875
vt 0.541690 0.068067
vt 0.561149 0.068067
vt 0.623579 0.123875
vt 0.657004 0.068067
vt 0.657004 0.123875
vt 0.717511 0.123875
vt 0.717511 0.068067
vt 0.623579 0.068067
vt 0.728068 0.075542
vt 0.815669 0.099150
vt 0.728068 0.116822
vt 0.950297 0.827834
vt 0.887427 0.655297
vt 0.930709 0.661622
vt 0.951671 0.336234
vt 0.887300 0.334506
vt 0.901275 0.308849
vt 0.852427 0.829105
vt 0.900513 0.829105
vt 0.579121 0.651080
vt 0.796683 0.594287
vt 0.795265 0.656987
vt 0.794051 0.703612
vt 0.584685 0.582483
vt 0.967644 0.276535
vt 0.914020 0.237136
vt 0.973196 0.242893
vt 0.862732 0.096432
vt 0.901933 0.052219
vt 0.910758 0.267404
vt 0.971030 0.199058
vt 0.905418 0.402786
vt 0.934848 0.367081
vt 0.851992 0.209008
vt 0.848888 0.187452
vt 0.830519 0.141857
vt 0.853491 0.235454
vt 0.820350 0.125677
vt 0.865430 0.361452
vt 0.834511 0.308687
vt 0.842531 0.290648
vt 0.850851 0.256155
vt 0.821969 0.249686
vt 0.804983 0.183177
vt 0.821969 0.195953
vt 0.775600 0.183177
vt 0.760620 0.233872
vt 0.758614 0.195953
vt 0.772248 0.252459
vt 0.221618 0.166997
vt 0.279916 0.349386
vt 0.256792 0.362606
vt 0.334430 0.167117
vt 0.279036 0.145955
vt 0.524469 0.240315
vt 0.299493 0.362519
vt 0.031741 0.239602
vt 0.164415 0.428649
vt 0.236676 0.401785
vt 0.252875 0.384648
vt 0.035303 0.187261
vt 0.521045 0.187981
vt 0.320992 0.043199
vt 0.280121 0.014452
vt 0.234512 0.040516
vt 0.967805 0.804541
vt 0.954495 0.709570
vt 0.595077 0.341229
vt 0.677614 0.301052
vt 0.692690 0.321267
vt 0.679202 0.430323
vt 0.736234 0.371222
vt 0.679999 0.173972
vt 0.580694 0.291276
vt 0.704375 0.306156
vt 0.610789 0.191963
vt 0.511139 0.301555
vt 0.609252 0.411650
vt 0.540839 0.335521
vt 0.536484 0.790059
vt 0.817696 0.817493
vt 0.315518 0.978714
vt 0.169109 0.746711
vt 0.541690 0.123875
vt 0.820350 0.332754
vt 0.800072 0.255788
vt 0.857356 0.458828
vt 0.819429 0.075414
vt 0.390925 0.428649
vt 0.736234 0.232981
s 0
usemtl Plane
f 8/1/1 87/2/1 78/3/1
f 2/4/2 11/5/2 10/6/2
f 52/7/3 6/8/3 2/9/3
f 4/10/4 40/11/4 37/12/4
f 6/8/5 21/13/5 22/14/5
f 12/15/6 6/16/6 13/17/6
f 4/18/7 78/19/7 80/20/7
f 3/21/8 17/22/8 9/23/8
f 12/24/9 4/18/9 16/25/9
f 7/26/10 87/2/10 11/5/10
f 4/18/11 91/27/11 16/25/11
f 5/28/12 62/29/12 13/17/12
f 5/30/13 52/7/13 1/31/13
f 4/10/14 39/32/14 8/33/14
f 91/27/15 15/34/15 16/25/15
f 3/21/16 16/25/16 15/34/16
f 3/35/17 14/36/17 7/37/17
f 15/34/18 94/38/18 17/22/18
f 79/39/19 14/40/19 92/41/19
f 9/23/20 17/22/20 18/42/20
f 92/41/21 19/43/21 97/44/21
f 17/22/22 99/45/22 18/42/22
f 14/36/23 18/46/23 19/47/23
f 19/47/24 99/48/24 97/49/24
f 3/35/25 23/50/25 21/13/25
f 6/8/26 20/51/26 2/9/26
f 7/37/27 20/51/27 23/50/27
f 20/52/28 26/53/28 24/54/28
f 23/55/29 25/56/29 21/57/29
f 22/58/30 25/56/30 26/59/30
f 20/52/31 27/60/31 23/55/31
f 27/61/32 26/62/32 25/63/32
f 29/64/31 30/65/31 31/66/31
f 1/67/33 42/68/33 36/69/33
f 12/15/34 31/66/34 30/65/34
f 4/70/35 30/65/35 28/71/35
f 34/72/36 33/73/36 32/74/36
f 1/75/37 34/72/37 32/74/37
f 8/1/38 35/76/38 11/5/38
f 10/6/39 35/76/39 34/72/39
f 5/77/40 41/78/40 29/79/40
f 8/33/41 43/80/41 33/81/41
f 5/77/42 36/69/42 38/82/42
f 28/83/43 41/78/43 40/11/43
f 33/84/44 42/68/44 32/85/44
f 37/12/45 48/86/45 45/87/45
f 37/12/46 47/88/46 39/32/46
f 40/11/47 49/89/47 48/86/47
f 39/32/48 51/90/48 43/80/48
f 43/91/49 50/92/49 42/68/49
f 38/82/50 44/93/50 46/94/50
f 38/82/51 49/89/51 41/78/51
f 36/69/52 50/92/52 44/93/52
f 45/95/53 51/96/53 47/97/53
f 50/98/53 46/99/53 44/100/53
f 51/96/53 49/101/53 50/98/53
f 58/102/54 54/103/54 56/104/54
f 59/105/55 54/103/55 57/106/55
f 60/107/56 55/108/56 59/105/56
f 60/109/57 56/104/57 53/110/57
f 55/111/58 56/104/58 54/112/58
f 1/113/59 58/102/59 60/109/59
f 1/114/60 59/105/60 10/115/60
f 10/115/61 57/106/61 2/116/61
f 52/117/62 57/106/62 58/102/62
f 5/28/63 29/64/63 61/118/63
f 29/64/64 63/119/64 61/118/64
f 31/66/65 62/29/65 63/119/65
f 68/120/66 65/121/66 66/122/66
f 69/123/67 66/122/67 64/124/67
f 69/125/68 65/121/68 67/126/68
f 65/127/69 64/124/69 66/122/69
f 61/128/70 67/126/70 62/129/70
f 61/130/71 68/120/71 69/123/71
f 63/131/72 67/126/72 68/120/72
f 77/1/73 87/2/73 83/5/73
f 83/5/74 71/4/74 82/6/74
f 131/7/75 75/8/75 85/132/75
f 73/10/76 119/11/76 107/83/76
f 75/8/77 100/13/77 72/35/77
f 75/16/78 84/15/78 85/17/78
f 73/18/79 78/19/79 77/133/79
f 72/21/80 93/22/80 88/34/80
f 84/24/81 90/25/81 73/18/81
f 87/2/82 76/26/82 83/5/82
f 73/18/83 91/27/83 80/20/83
f 141/29/84 74/28/84 85/17/84
f 131/7/85 74/30/85 70/31/85
f 118/32/86 73/10/86 77/33/86
f 88/34/87 91/27/87 90/25/87
f 72/21/88 90/25/88 84/24/88
f 86/36/89 72/35/89 76/37/89
f 88/34/90 94/38/90 89/134/90
f 79/39/91 86/40/91 76/26/91
f 81/23/92 95/42/92 93/22/92
f 92/41/93 96/43/93 86/40/93
f 93/22/94 99/45/94 94/38/94
f 86/36/95 95/46/95 81/135/95
f 99/48/96 96/47/96 97/49/96
f 72/35/97 102/50/97 76/37/97
f 98/51/98 75/8/98 71/9/98
f 76/37/99 98/51/99 71/9/99
f 98/52/100 105/53/100 101/136/100
f 104/56/101 102/55/101 100/57/101
f 101/58/102 104/56/102 100/57/102
f 106/60/31 98/52/31 102/55/31
f 105/62/103 106/61/103 104/63/103
f 110/66/31 107/71/31 108/64/31
f 70/67/104 121/68/104 111/85/104
f 84/15/105 110/66/105 85/17/105
f 73/70/106 109/65/106 84/15/106
f 112/73/36 113/72/36 111/74/36
f 70/75/107 113/72/107 82/6/107
f 114/76/108 77/1/108 83/5/108
f 82/6/109 114/76/109 83/5/109
f 120/78/110 74/77/110 108/79/110
f 122/80/111 77/33/111 112/81/111
f 74/77/112 115/69/112 70/67/112
f 107/83/113 120/78/113 108/79/113
f 121/68/44 112/84/44 111/85/44
f 116/12/114 127/86/114 119/11/114
f 126/88/115 116/12/115 118/32/115
f 119/11/116 128/89/116 120/78/116
f 130/90/52 118/32/52 122/80/52
f 121/68/49 130/137/49 122/91/49
f 117/82/117 123/93/117 115/69/117
f 128/89/118 117/82/118 120/78/118
f 115/69/48 129/92/48 121/68/48
f 124/95/53 130/96/53 127/138/53
f 129/98/53 125/99/53 128/101/53
f 130/96/53 128/101/53 127/138/53
f 137/102/119 133/103/119 136/106/119
f 133/103/120 138/105/120 136/106/120
f 134/108/121 139/107/121 138/105/121
f 139/109/122 135/104/122 137/102/122
f 135/104/123 134/111/123 133/112/123
f 70/113/124 137/102/124 131/117/124
f 138/105/125 70/114/125 82/115/125
f 136/106/126 82/115/126 71/116/126
f 131/117/127 136/106/127 71/116/127
f 74/28/128 140/118/128 108/64/128
f 108/64/129 142/119/129 110/66/129
f 110/66/130 141/29/130 85/17/130
f 147/120/131 144/121/131 146/126/131
f 148/123/132 145/122/132 147/120/132
f 144/121/133 148/125/133 146/126/133
f 144/127/134 145/122/134 143/124/134
f 146/126/135 140/128/135 141/129/135
f 140/130/136 147/120/136 142/131/136
f 142/131/137 146/126/137 141/129/137
f 8/1/138 11/5/138 87/2/138
f 2/4/139 7/26/139 11/5/139
f 52/7/140 13/132/140 6/8/140
f 4/10/141 28/83/141 40/11/141
f 6/8/142 3/35/142 21/13/142
f 12/15/6 3/139/6 6/16/6
f 4/18/7 8/133/7 78/19/7
f 3/21/143 15/34/143 17/22/143
f 7/26/144 79/39/144 87/2/144
f 4/18/145 80/20/145 91/27/145
f 5/28/12 61/118/12 62/29/12
f 5/30/140 13/132/140 52/7/140
f 4/10/14 37/12/14 39/32/14
f 91/27/146 89/134/146 15/34/146
f 3/21/147 12/24/147 16/25/147
f 3/35/148 9/135/148 14/36/148
f 15/34/149 89/134/149 94/38/149
f 79/39/150 7/26/150 14/40/150
f 92/41/151 14/40/151 19/43/151
f 17/22/152 94/38/152 99/45/152
f 14/36/153 9/135/153 18/46/153
f 19/47/154 18/46/154 99/48/154
f 3/35/155 7/37/155 23/50/155
f 6/8/156 22/14/156 20/51/156
f 7/37/157 2/9/157 20/51/157
f 20/52/28 22/136/28 26/53/28
f 23/55/158 27/60/158 25/56/158
f 22/58/30 21/57/30 25/56/30
f 20/52/31 24/54/31 27/60/31
f 27/61/159 24/140/159 26/62/159
f 29/64/31 28/71/31 30/65/31
f 1/67/160 32/85/160 42/68/160
f 12/15/161 13/17/161 31/66/161
f 4/70/162 12/15/162 30/65/162
f 34/72/36 35/76/36 33/73/36
f 1/75/163 10/6/163 34/72/163
f 8/1/164 33/73/164 35/76/164
f 10/6/165 11/5/165 35/76/165
f 5/77/166 38/82/166 41/78/166
f 8/33/167 39/32/167 43/80/167
f 5/77/168 1/67/168 36/69/168
f 28/83/113 29/79/113 41/78/113
f 33/84/44 43/91/44 42/68/44
f 37/12/169 40/11/169 48/86/169
f 37/12/46 45/87/46 47/88/46
f 40/11/170 41/78/170 49/89/170
f 39/32/48 47/88/48 51/90/48
f 43/91/49 51/137/49 50/92/49
f 38/82/171 36/69/171 44/93/171
f 38/82/172 46/94/172 49/89/172
f 36/69/52 42/68/52 50/92/52
f 45/95/53 48/138/53 51/96/53
f 50/98/53 49/101/53 46/99/53
f 51/96/53 48/138/53 49/101/53
f 58/102/173 57/106/173 54/103/173
f 59/105/174 55/108/174 54/103/174
f 60/107/175 53/141/175 55/108/175
f 60/109/176 58/102/176 56/104/176
f 55/111/58 53/110/58 56/104/58
f 1/113/177 52/117/177 58/102/177
f 1/114/178 60/107/178 59/105/178
f 10/115/179 59/105/179 57/106/179
f 52/117/180 2/116/180 57/106/180
f 29/64/181 31/66/181 63/119/181
f 31/66/182 13/17/182 62/29/182
f 68/120/183 67/126/183 65/121/183
f 69/123/184 68/120/184 66/122/184
f 69/125/185 64/142/185 65/121/185
f 61/128/186 69/125/186 67/126/186
f 61/130/187 63/131/187 68/120/187
f 63/131/188 62/129/188 67/126/188
f 77/1/189 78/3/189 87/2/189
f 83/5/190 76/26/190 71/4/190
f 131/7/191 71/9/191 75/8/191
f 73/10/192 116/12/192 119/11/192
f 75/8/193 101/14/193 100/13/193
f 75/16/78 72/139/78 84/15/78
f 73/18/79 80/20/79 78/19/79
f 72/21/194 81/23/194 93/22/194
f 87/2/195 79/39/195 76/26/195
f 73/18/196 90/25/196 91/27/196
f 141/29/84 140/118/84 74/28/84
f 131/7/75 85/132/75 74/30/75
f 118/32/86 116/12/86 73/10/86
f 88/34/197 89/134/197 91/27/197
f 72/21/198 88/34/198 90/25/198
f 86/36/199 81/135/199 72/35/199
f 88/34/200 93/22/200 94/38/200
f 79/39/201 92/41/201 86/40/201
f 92/41/202 97/44/202 96/43/202
f 93/22/203 95/42/203 99/45/203
f 86/36/204 96/47/204 95/46/204
f 99/48/205 95/46/205 96/47/205
f 72/35/206 100/13/206 102/50/206
f 98/51/207 101/14/207 75/8/207
f 76/37/208 102/50/208 98/51/208
f 98/52/100 103/54/100 105/53/100
f 104/56/209 106/60/209 102/55/209
f 101/58/102 105/59/102 104/56/102
f 106/60/31 103/54/31 98/52/31
f 105/62/210 103/140/210 106/61/210
f 110/66/31 109/65/31 107/71/31
f 70/67/211 115/69/211 121/68/211
f 84/15/34 109/65/34 110/66/34
f 73/70/212 107/71/212 109/65/212
f 112/73/36 114/76/36 113/72/36
f 70/75/213 111/74/213 113/72/213
f 114/76/214 112/73/214 77/1/214
f 82/6/39 113/72/39 114/76/39
f 120/78/215 117/82/215 74/77/215
f 122/80/216 118/32/216 77/33/216
f 74/77/217 117/82/217 115/69/217
f 107/83/218 119/11/218 120/78/218
f 121/68/44 122/91/44 112/84/44
f 116/12/219 124/87/219 127/86/219
f 126/88/115 124/87/115 116/12/115
f 119/11/47 127/86/47 128/89/47
f 130/90/52 126/88/52 118/32/52
f 121/68/49 129/92/49 130/137/49
f 117/82/220 125/94/220 123/93/220
f 128/89/221 125/94/221 117/82/221
f 115/69/48 123/93/48 129/92/48
f 124/95/53 126/97/53 130/96/53
f 129/98/53 123/100/53 125/99/53
f 130/96/53 129/98/53 128/101/53
f 137/102/222 135/104/222 133/103/222
f 133/103/223 134/108/223 138/105/223
f 134/108/224 132/141/224 139/107/224
f 139/109/225 132/110/225 135/104/225
f 135/104/123 132/110/123 134/111/123
f 70/113/226 139/109/226 137/102/226
f 138/105/227 139/107/227 70/114/227
f 136/106/228 138/105/228 82/115/228
f 131/117/229 137/102/229 136/106/229
f 108/64/230 140/118/230 142/119/230
f 110/66/231 142/119/231 141/29/231
f 147/120/232 145/122/232 144/121/232
f 148/123/233 143/124/233 145/122/233
f 144/121/234 143/142/234 148/125/234
f 146/126/235 148/125/235 140/128/235
f 140/130/236 148/123/236 147/120/236
f 142/131/237 147/120/237 146/126/237
