# Blender 5.1.1
# www.blender.org
mtllib Turtle.mtl
o Turtle
v 0.150333 0.660745 -1.435750
v 0.201143 0.659593 1.154103
v 0.165326 0.800640 -1.434160
v 0.219507 1.169614 1.248804
v 0.610870 0.638352 -0.556949
v 0.749016 0.621569 0.029824
v 0.687851 0.561094 0.850648
v 0.592641 1.355579 -1.044045
v 0.825975 1.582201 -0.037145
v 0.590370 1.387886 0.913214
v 0.210918 0.690416 -1.458053
v 0.219507 0.821804 1.256830
v 0.607061 0.749749 -0.653786
v 0.828130 0.742106 0.020143
v 0.687851 0.690801 0.917589
v 0.329088 0.564671 1.052952
v 0.329087 1.339201 1.109882
v 0.404080 0.681379 1.073371
v 0.508469 0.523286 0.940606
v 0.508469 1.357727 1.019655
v 0.508469 0.734159 1.046678
v 0.758816 0.395403 0.933182
v 0.758816 0.410075 0.817408
v 0.653738 0.345490 0.829622
v 0.548661 0.248670 0.866793
v 0.653738 0.302368 1.040280
v 0.548661 0.216312 0.991894
v 0.841978 0.076988 0.714632
v 0.835952 0.189617 0.636407
v 0.710075 0.161819 0.604682
v 0.587252 0.118408 0.665685
v 0.720897 -0.034432 0.726818
v 0.592755 0.011964 0.736331
v 0.410426 0.499926 -0.829593
v 0.403883 1.066162 -1.199084
v 0.444115 0.604757 -0.872018
v 0.511605 0.549655 -0.670156
v 0.513979 1.209635 -1.123854
v 0.506661 0.701218 -0.796915
v 0.557655 0.306112 -0.694270
v 0.616251 0.345760 -0.573670
v 0.757853 0.410032 -0.637593
v 0.753257 0.398795 -0.780843
v 0.667837 0.349422 -0.884200
v 0.552739 0.294567 -0.833164
v 0.653703 -0.022860 -0.741739
v 0.707064 0.024615 -0.613347
v 0.886451 0.042506 -0.657588
v 0.901556 0.002113 -0.799233
v 0.811639 0.016572 -0.923833
v 0.665743 0.001404 -0.887236
v 0.201308 0.746527 -1.459877
v 0.250405 1.029468 1.278993
v 0.794302 1.026850 -0.933168
v 0.989394 1.178969 -0.008140
v 0.790870 1.028623 0.969442
v 0.502224 1.010075 1.156892
v 0.617531 1.015639 1.087458
v 0.580919 0.776396 -1.134096
v 0.686766 0.918242 -1.045987
v 0.226803 1.042338 1.435652
v 0.183462 1.233328 1.379368
v 0.225787 1.348418 1.715663
v 0.180484 0.860824 1.446496
v 0.255373 1.211771 1.631790
v 0.150279 1.373199 1.479478
v 0.150280 1.071819 1.634325
v 0.133578 1.524861 1.682606
v 0.153375 1.609762 2.279386
v 0.133578 1.192016 1.760172
v 0.229563 1.480764 1.947388
v 0.113212 1.725832 1.887311
v 0.135709 1.334973 1.956666
v 0.150278 1.686284 2.263821
v 0.150278 1.482246 2.250440
v -0.121153 0.678932 -1.447874
v -0.173048 0.711577 1.202292
v -0.135444 0.835041 -1.446645
v -0.191412 1.179409 1.239073
v 0.014048 0.580584 -1.445822
v 0.014047 0.615765 1.160837
v 0.014989 0.900842 -1.441177
v 0.014047 1.259990 1.242897
v -0.575803 0.467231 -0.940448
v -0.724890 0.431760 0.015464
v -0.659756 0.524058 0.976600
v -0.576350 1.352053 -0.743319
v -0.804660 1.446943 0.025552
v -0.562275 1.366068 0.808715
v 0.011251 1.448428 -0.860642
v 0.012943 1.594170 0.011874
v 0.014047 1.466664 0.864080
v 0.014047 0.463597 0.815612
v 0.013271 0.414532 0.014847
v 0.018099 0.475127 -0.762955
v -0.181033 0.721134 -1.475873
v -0.191413 0.848565 1.261985
v 0.014048 0.761114 -1.578652
v 0.014047 0.777060 1.259179
v -0.575803 0.604763 -0.904905
v -0.804660 0.560040 0.015656
v -0.659756 0.683855 0.984408
v -0.300993 0.618695 1.161329
v -0.300993 1.347483 1.081345
v 0.014047 1.429293 1.098237
v 0.014047 0.503392 1.071462
v -0.375986 0.736964 1.142935
v 0.014047 0.482073 0.946474
v -0.480374 0.534294 1.063713
v -0.480374 1.360805 0.937196
v 0.014047 1.447501 0.980787
v -0.480374 0.777416 1.095083
v -0.733870 0.456680 1.134743
v -0.733870 0.382547 1.020959
v -0.624353 0.318889 1.084627
v -0.514836 0.291777 1.205888
v -0.624353 0.452550 1.291675
v -0.514836 0.353110 1.312775
v -0.820546 0.065175 1.091757
v -0.814265 0.147229 0.984878
v -0.683070 0.114164 0.950801
v -0.555057 0.083885 1.048781
v -0.694349 -0.048975 1.147179
v -0.560793 0.006132 1.153937
v 0.017389 0.477873 -1.084319
v -0.365249 0.604514 -1.206119
v -0.393368 1.213520 -1.053266
v 0.013875 1.224510 -1.134171
v -0.403708 0.717411 -1.178454
v -0.470526 0.510209 -1.085668
v -0.492652 1.283135 -0.899232
v 0.011808 1.336242 -1.004857
v -0.470526 0.698746 -1.029324
v 0.018037 0.471420 -0.948387
v -0.505659 0.320311 -1.158856
v -0.568578 0.291608 -1.050497
v -0.711486 0.392418 -1.075783
v -0.703185 0.425884 -1.213678
v -0.613341 0.415740 -1.327019
v -0.497103 0.356134 -1.294783
v -0.586195 0.077593 -1.394629
v -0.644490 0.039105 -1.262979
v -0.823435 0.074583 -1.293328
v -0.833532 0.127836 -1.438675
v -0.741522 0.206568 -1.519505
v -0.595972 0.174779 -1.490105
v -0.171415 0.779279 -1.475090
v -0.222310 1.045056 1.271974
v 0.014048 0.773084 -1.513736
v -0.769784 1.003435 -0.857481
v -0.967202 1.024694 0.027528
v -0.762775 1.024472 0.919180
v -0.474129 1.056249 1.121894
v -0.609759 1.080988 1.030650
v -0.543259 0.985581 -1.174495
v -0.656213 1.013297 -1.010447
v -0.198709 1.045728 1.434578
v -0.155368 1.233663 1.379042
v 0.014047 1.264993 1.378946
v -0.197692 1.348424 1.715650
v 0.014047 0.808429 1.434745
v -0.152389 0.871052 1.447150
v -0.227278 1.211772 1.631791
v -0.122185 1.373198 1.479477
v 0.014047 1.372799 1.448877
v 0.014047 1.071814 1.634310
v -0.122185 1.071820 1.634327
v -0.105483 1.524880 1.682603
v 0.014047 1.543236 1.663194
v -0.125281 1.609763 2.279386
v 0.014047 1.192063 1.760101
v -0.105483 1.192018 1.760155
v -0.201469 1.480773 1.947404
v -0.085117 1.725834 1.887306
v 0.014047 1.761221 1.867191
v 0.014047 1.335229 1.957238
v -0.107615 1.334972 1.956667
v -0.122183 1.686284 2.263821
v 0.014518 1.733585 2.351105
v 0.014047 1.591770 2.348683
v 0.014047 1.468393 2.323404
v -0.122184 1.482262 2.250444
v 0.113827 0.534049 -1.692779
v 0.034849 0.479175 -1.683305
v 0.148806 0.554031 -1.711918
v 0.034849 0.546799 -1.741199
v -0.044128 0.533655 -1.692566
v -0.079107 0.554474 -1.712101
vn 0.4913 0.0039 0.8710
vn 0.6320 0.5463 0.5496
vn 0.8042 0.0490 0.5923
vn 0.0035 0.8425 -0.5387
vn -0.7181 -0.2738 -0.6398
vn -0.7061 -0.1949 -0.6807
vn -0.0204 0.9134 0.4066
vn 0.7353 0.6020 -0.3113
vn 0.2793 0.6656 0.6921
vn 0.2324 -0.5452 0.8054
vn -0.0033 -0.8839 0.4676
vn 0.1980 -0.6732 0.7124
vn -0.4706 -0.5739 0.6702
vn 0.0916 -0.9957 -0.0146
vn 0.0111 -0.9999 -0.0033
vn 0.8097 -0.4923 0.3195
vn 0.1124 -0.9933 -0.0254
vn 0.8441 -0.2733 -0.4614
vn 0.6101 -0.7877 -0.0850
vn -0.1054 0.7643 -0.6362
vn 0.4257 0.6458 -0.6339
vn 0.3037 0.3230 -0.8963
vn -0.1014 0.9154 -0.3895
vn 0.5842 0.8116 0.0030
vn -0.0741 0.9972 0.0039
vn 0.5071 0.7592 0.4080
vn 0.9095 -0.1125 -0.4002
vn 0.7881 -0.2775 -0.5494
vn 0.9993 0.0350 -0.0087
vn 0.8401 0.0650 0.5385
vn 0.9013 -0.4248 -0.0847
vn 0.9442 -0.2373 -0.2283
vn 0.8079 0.4199 -0.4136
vn 0.8527 -0.2529 -0.4571
vn -0.0091 -0.7862 0.6179
vn 0.0669 -0.5653 0.8222
vn 0.4954 0.3038 -0.8138
vn 0.0108 0.8204 -0.5718
vn 0.2984 -0.3001 0.9060
vn 0.8864 0.1488 0.4385
vn 0.6110 0.4930 -0.6194
vn 0.0019 -0.9796 0.2008
vn -0.3051 -0.6267 -0.7171
vn -0.0075 0.9828 0.1847
vn 0.4011 0.6653 0.6297
vn 0.5472 0.0253 0.8366
vn -0.0237 0.9866 0.1615
vn 0.0309 -0.9947 0.0976
vn -0.4430 0.3777 -0.8131
vn -0.7249 -0.0371 -0.6879
vn -0.9279 0.0524 -0.3691
vn -0.6538 -0.7455 -0.1295
vn -0.5691 -0.5579 0.6041
vn 0.3433 -0.2442 0.9070
vn 0.4392 -0.1539 0.8851
vn 0.8694 -0.0966 0.4846
vn 0.2067 -0.9738 -0.0950
vn -0.0988 0.1245 -0.9873
vn 0.8702 -0.4867 -0.0764
vn 0.7042 0.2279 -0.6724
vn 0.4673 -0.8838 -0.0214
vn 0.6626 -0.3833 -0.6435
vn -0.1938 -0.9437 -0.2682
vn 0.3494 0.3538 -0.8676
vn 0.7514 -0.4255 -0.5043
vn 0.0272 0.5834 -0.8117
vn 0.2893 0.5080 -0.8113
vn 0.0496 -0.9655 -0.2555
vn -0.0680 -0.9957 0.0627
vn -0.8817 -0.3243 0.3427
vn -0.0428 0.7031 -0.7098
vn 0.7555 -0.3335 0.5639
vn 0.8366 -0.5189 -0.1757
vn -0.7751 -0.3237 -0.5426
vn -0.5352 -0.8308 0.1527
vn 0.1890 0.2267 -0.9554
vn -0.3101 -0.1590 0.9373
vn 0.8284 0.2397 0.5062
vn -0.2035 -0.5674 0.7979
vn 0.3831 -0.4231 -0.8211
vn -0.4840 -0.6287 -0.6087
vn 0.7301 -0.4117 -0.5455
vn 0.9816 -0.0966 0.1645
vn 0.4966 -0.5410 0.6788
vn 0.0010 0.8667 -0.4988
vn 0.5591 0.6148 -0.5562
vn 0.6003 -0.6383 0.4819
vn -0.0032 -0.6875 0.7262
vn -0.0235 -0.8771 0.4797
vn 0.4238 -0.6503 0.6305
vn -0.0001 -0.7677 0.6408
vn 0.9963 0.0674 0.0539
vn 0.9734 -0.1034 0.2044
vn 0.4267 -0.6381 0.6409
vn 0.0001 0.9515 -0.3076
vn 0.6236 0.7345 -0.2676
vn 0.6123 0.6526 -0.4463
vn -0.0000 -0.8618 0.5072
vn 0.0001 0.9511 -0.3089
vn 0.9987 -0.0268 0.0444
vn 0.7412 0.5335 0.4074
vn 0.7636 0.0152 0.6455
vn 0.6794 -0.5056 0.5317
vn 0.4777 -0.7606 0.4397
vn -0.0002 -0.0884 0.9961
vn -0.0000 -0.6045 0.7966
vn -0.0000 0.9256 -0.3786
vn -0.5239 0.1625 0.8361
vn -0.6138 0.5840 0.5312
vn -0.3505 0.7062 0.6151
vn -0.4945 -0.8599 -0.1264
vn -0.4837 -0.8642 -0.1382
vn -0.7364 0.6094 -0.2938
vn -0.0130 0.8824 0.4703
vn 0.1451 -0.4176 0.8970
vn -0.1426 -0.3877 0.9107
vn 0.5800 -0.8143 0.0227
vn -0.3892 -0.7819 0.4870
vn -0.5215 -0.8526 -0.0322
vn -0.7308 -0.5301 -0.4300
vn -0.4254 0.7136 -0.5566
vn -0.5237 0.7759 -0.3517
vn -0.5464 0.7862 0.2886
vn -0.6696 0.7427 -0.0022
vn -0.9045 0.0991 -0.4149
vn -0.7743 0.1765 -0.6078
vn -0.9990 0.0455 0.0053
vn -0.9065 -0.4209 -0.0338
vn -0.9681 -0.0031 -0.2506
vn -0.8672 0.1114 -0.4854
vn -0.8654 0.0569 0.4979
vn -0.5535 -0.4505 0.7005
vn -0.4287 0.2617 -0.8647
vn -0.2477 0.1173 0.9617
vn -0.9118 0.3366 0.2351
vn -0.9088 0.1100 0.4024
vn 0.3479 -0.8938 -0.2828
vn -0.4583 0.7620 0.4575
vn -0.5836 0.2798 0.7623
vn -0.8632 0.1620 0.4782
vn 0.5535 -0.0669 -0.8302
vn 0.7624 -0.2817 -0.5826
vn 0.9423 -0.2595 -0.2113
vn 0.6324 -0.7099 0.3099
vn 0.3151 -0.2669 0.9108
vn -0.4178 0.2558 0.8718
vn -0.4730 0.2098 0.8557
vn -0.1936 -0.9401 0.2806
vn 0.1105 -0.1746 -0.9784
vn -0.8837 -0.4546 0.1112
vn -0.7517 0.0017 -0.6595
vn -0.5462 0.0740 -0.8344
vn -0.0359 -0.5031 -0.8635
vn -0.6977 0.1657 -0.6969
vn -0.2245 0.5782 -0.7844
vn 0.8796 -0.0240 -0.4752
vn -0.3197 0.7073 -0.6305
vn -0.7933 0.5826 -0.1768
vn -0.7502 -0.6099 0.2554
vn 0.5600 -0.7556 -0.3398
vn 0.9163 -0.3464 0.2010
vn -0.1161 0.6390 -0.7604
vn -0.7537 0.0105 -0.6572
vn 0.2826 -0.5861 0.7593
vn -0.8115 -0.3184 -0.4901
vn -0.3243 0.1259 -0.9375
vn 0.5175 -0.1545 -0.8417
vn 0.2086 -0.9136 0.3490
vn -0.8243 0.0708 0.5617
vn -0.5590 0.6154 -0.5557
vn -0.6213 -0.6327 0.4622
vn -0.4238 -0.6503 0.6305
vn -0.4261 -0.6450 0.6343
vn -0.9963 0.0674 0.0539
vn -0.9733 -0.1046 0.2042
vn -0.9824 -0.1029 0.1558
vn -0.6236 0.7345 -0.2676
vn -0.6123 0.6526 -0.4463
vn -0.0000 0.6610 -0.7504
vn -0.9987 -0.0268 0.0444
vn -0.7404 0.5343 0.4079
vn -0.6794 -0.5056 0.5317
vn -0.4777 -0.7606 0.4397
vn -0.7636 0.0152 0.6455
vn 0.0001 0.9491 -0.3150
vn -0.6223 0.6351 -0.4576
vn 0.6223 0.6350 -0.4576
vn 0.4737 -0.8744 -0.1047
vn 0.0055 -0.0785 -0.9969
vn 0.7601 -0.2338 -0.6063
vn 0.0185 -0.9865 -0.1625
vn 0.0020 0.6449 0.7642
vt 0.095614 0.748744
vt 0.034791 0.782517
vt 0.036611 0.749214
vt 0.827976 0.116103
vt 0.843683 0.078681
vt 0.877082 0.112548
vt 0.892965 0.988681
vt 0.876114 0.946276
vt 0.907602 0.947707
vt 0.078741 0.814662
vt 0.000272 0.823028
vt 0.052217 0.665314
vt 0.044002 0.604265
vt 0.088906 0.658457
vt 0.454048 0.670563
vt 0.487644 0.571115
vt 0.514617 0.591453
vt 0.423841 0.670369
vt 0.286872 0.500356
vt 0.157756 0.672978
vt 0.284917 0.667338
vt 0.498355 0.911976
vt 0.407230 0.831998
vt 0.439762 0.824385
vt 0.467559 0.935800
vt 0.275140 0.828643
vt 0.262892 0.999728
vt 0.143444 0.812482
vt 0.412285 0.765316
vt 0.442164 0.764616
vt 0.278969 0.765486
vt 0.153267 0.748862
vt 0.283587 0.691926
vt 0.752486 0.439335
vt 0.790409 0.385947
vt 0.780320 0.452848
vt 0.000272 0.663435
vt 0.023766 0.630256
vt 0.745259 0.109798
vt 0.789424 0.123875
vt 0.780348 0.133088
vt 0.092662 0.685484
vt 0.658249 0.583797
vt 0.640423 0.554106
vt 0.659585 0.551394
vt 0.065509 0.585204
vt 0.128839 0.662078
vt 0.051668 0.887189
vt 0.118200 0.808930
vt 0.119927 0.749234
vt 0.072330 0.905142
vt 0.086664 0.567809
vt 0.679969 0.544769
vt 0.690437 0.591258
vt 0.700082 0.546284
vt 0.725439 0.512009
vt 0.725548 0.544570
vt 0.737572 0.513079
vt 0.744308 0.548788
vt 0.756299 0.618015
vt 0.764250 0.553672
vt 0.775129 0.618014
vt 0.641835 0.606176
vt 0.612722 0.545585
vt 0.708207 0.591354
vt 0.737838 0.608903
vt 0.748870 0.496684
vt 0.710471 0.496696
vt 0.646474 0.504339
vt 0.671474 0.495077
vt 0.658859 0.510435
vt 0.578820 0.707614
vt 0.478958 0.701302
vt 0.487541 0.678059
vt 0.573416 0.736766
vt 0.476890 0.817614
vt 0.475044 0.757624
vt 0.597883 0.787419
vt 0.575467 0.752769
vt 0.540259 0.613124
vt 0.601461 0.674896
vt 0.671459 0.424055
vt 0.692829 0.374319
vt 0.700680 0.412634
vt 0.527944 0.885215
vt 0.767506 0.338089
vt 0.781215 0.321212
vt 0.669341 0.376888
vt 0.681345 0.319899
vt 0.648497 0.377631
vt 0.656528 0.439507
vt 0.624146 0.377673
vt 0.716199 0.409725
vt 0.740886 0.378550
vt 0.744444 0.417237
vt 0.766724 0.385463
vt 0.738805 0.321212
vt 0.749149 0.341035
vt 0.651865 0.331063
vt 0.665724 0.335977
vt 0.719427 0.371530
vt 0.454066 0.704239
vt 0.573572 0.723828
vt 0.148770 0.695823
vt 0.110676 0.699465
vt 0.743265 0.125663
vt 0.760708 0.159777
vt 0.423641 0.694579
vt 0.889073 0.904461
vt 0.917530 0.920924
vt 0.035320 0.701226
vt 0.868100 0.981940
vt 0.839891 0.954388
vt 0.906844 0.874339
vt 0.850099 0.851790
vt 0.912929 0.841840
vt 0.940755 0.887576
vt 0.948005 0.845628
vt 0.818666 0.880121
vt 0.816281 0.856221
vt 0.808382 0.916667
vt 0.838734 0.908146
vt 0.854020 0.878593
vt 0.788189 0.977250
vt 0.739266 0.952836
vt 0.790548 0.953021
vt 0.768647 0.859542
vt 0.789309 0.977213
vt 0.758333 0.911284
vt 0.700813 0.913474
vt 0.704958 0.902636
vt 0.716645 0.887876
vt 0.770305 0.882395
vt 0.681808 0.887932
vt 0.698308 0.868684
vt 0.732140 0.970741
vt 0.098809 0.244443
vt 0.039499 0.208561
vt 0.084273 0.178204
vt 0.886235 0.098607
vt 0.845094 0.072001
vt 0.874135 0.712694
vt 0.895444 0.672337
vt 0.905599 0.714652
vt 0.038716 0.123653
vt 0.088181 0.333926
vt 0.022215 0.359258
vt 0.051998 0.325585
vt 0.453311 0.336709
vt 0.483014 0.438148
vt 0.423100 0.335082
vt 0.284198 0.332881
vt 0.082214 0.424077
vt 0.157319 0.322259
vt 0.444957 0.181651
vt 0.476366 0.071174
vt 0.506259 0.095887
vt 0.412725 0.172815
vt 0.274342 0.000272
vt 0.148642 0.182579
vt 0.280517 0.171396
vt 0.415275 0.239890
vt 0.445218 0.241793
vt 0.282003 0.234668
vt 0.283829 0.308267
vt 0.423629 0.311185
vt 0.821782 0.453985
vt 0.845275 0.389381
vt 0.851320 0.444773
vt 0.000272 0.325252
vt 0.036743 0.289187
vt 0.831487 0.128292
vt 0.872634 0.124639
vt 0.093016 0.307208
vt 0.927000 0.577525
vt 0.947935 0.554080
vt 0.943243 0.601204
vt 0.061871 0.405872
vt 0.128060 0.331954
vt 0.059844 0.105134
vt 0.123291 0.185314
vt 0.126486 0.239758
vt 0.156027 0.246183
vt 0.080945 0.088004
vt 0.906193 0.542493
vt 0.894367 0.585539
vt 0.860704 0.502202
vt 0.891243 0.537873
vt 0.863789 0.538052
vt 0.847424 0.504536
vt 0.843602 0.544455
vt 0.823127 0.552333
vt 0.839555 0.610838
vt 0.820855 0.612985
vt 0.978332 0.546670
vt 0.980806 0.613826
vt 0.884975 0.579605
vt 0.857128 0.599982
vt 0.833843 0.488358
vt 0.875478 0.484695
vt 0.917121 0.488318
vt 0.944097 0.499147
vt 0.929920 0.505338
vt 0.927461 0.549841
vt 0.487602 0.330350
vt 0.576189 0.286217
vt 0.580194 0.302819
vt 0.478062 0.250118
vt 0.578922 0.257141
vt 0.576541 0.273120
vt 0.534873 0.123359
vt 0.602268 0.223063
vt 0.538173 0.397832
vt 0.905105 0.420540
vt 0.930539 0.380522
vt 0.935462 0.427376
vt 0.479568 0.191588
vt 0.821783 0.386327
vt 0.851566 0.342420
vt 0.909110 0.326443
vt 0.906978 0.381742
vt 0.951451 0.377924
vt 0.953085 0.438563
vt 0.975325 0.373200
vt 0.980662 0.441430
vt 0.871855 0.386397
vt 0.891617 0.420905
vt 0.862567 0.424122
vt 0.882463 0.330012
vt 0.840527 0.323687
vt 0.939839 0.332316
vt 0.927156 0.339493
vt 0.869278 0.348071
vt 0.894121 0.382656
vt 0.454660 0.302838
vt 0.484859 0.305630
vt 0.149260 0.299113
vt 0.111472 0.294078
vt 0.866928 0.139247
vt 0.912596 0.742350
vt 0.838987 0.700739
vt 0.869995 0.676370
vt 0.838122 0.803853
vt 0.896967 0.787524
vt 0.899528 0.820494
vt 0.932109 0.778003
vt 0.934813 0.820494
vt 0.809909 0.772308
vt 0.844898 0.777623
vt 0.803606 0.734865
vt 0.832872 0.746596
vt 0.882531 0.755664
vt 0.738756 0.691495
vt 0.790021 0.672452
vt 0.789773 0.696801
vt 0.757966 0.787397
vt 0.804971 0.795815
vt 0.791138 0.672612
vt 0.844606 0.674059
vt 0.753268 0.734852
vt 0.696353 0.726506
vt 0.709322 0.753640
vt 0.762070 0.764856
vt 0.674699 0.749823
vt 0.699300 0.737716
vt 0.733580 0.672926
vt 0.513704 0.500510
vt 0.491559 0.495532
vt 0.535849 0.495532
vt 0.790051 0.075166
vt 0.807808 0.076745
vt 0.788819 0.081510
vt 0.827976 0.065882
vt 0.749581 0.050707
vt 0.743265 0.080092
vt 0.890670 0.069362
vt 0.842976 0.054632
vt 0.747155 0.096801
vt 0.031079 0.867862
vt 0.604196 0.615938
vt 0.631866 0.484367
vt 0.634181 0.445914
vt 0.638751 0.312751
vt 0.842614 0.981512
vt 0.672413 0.915606
vt 0.040043 0.241643
vt 0.006605 0.167138
vt 0.041256 0.385988
vt 0.511239 0.418791
vt 0.279173 0.499811
vt 0.961068 0.478255
vt 0.602268 0.336779
vt 0.949506 0.312120
vt 0.835926 0.160490
vt 0.668229 0.721306
vt 0.689025 0.770741
vt 0.798591 0.060375
s 1
usemtl Material.002
f 57/1/1 4/2/2 53/3/3
f 98/4/4 188/5/5 96/6/6
f 83/7/7 62/8/8 4/9/2
f 17/10/9 83/11/7 4/2/2
f 2/12/10 106/13/11 16/14/12
f 37/15/13 95/16/14 134/17/15
f 5/18/16 94/19/17 95/16/14
f 7/20/18 94/19/17 6/21/19
f 132/22/20 8/23/21 38/24/22
f 90/25/23 9/26/24 8/23/21
f 91/27/25 10/28/26 9/26/24
f 38/24/22 54/29/27 60/30/28
f 54/29/27 9/26/24 55/31/29
f 55/31/29 10/28/26 56/32/30
f 14/33/31 7/20/18 6/21/19
f 5/18/16 14/33/31 6/21/19
f 13/34/32 43/35/33 39/36/34
f 2/12/10 99/37/35 81/38/36
f 52/39/37 98/40/4 149/41/38
f 18/42/39 2/12/10 16/14/12
f 7/43/18 22/44/40 23/45/41
f 16/14/12 108/46/42 19/47/43
f 111/48/44 17/10/9 20/49/45
f 20/49/45 57/1/1 58/50/46
f 10/28/26 58/50/46 56/32/30
f 92/51/47 20/49/45 10/28/26
f 19/47/43 93/52/48 7/20/18
f 7/43/18 24/53/49 19/54/43
f 24/55/49 31/56/50 25/57/51
f 25/57/51 33/58/52 27/59/53
f 18/60/39 26/61/54 21/62/55
f 15/63/56 26/64/54 22/44/40
f 19/65/43 25/57/51 16/66/12
f 18/60/39 25/57/51 27/59/53
f 32/67/57 31/56/50 30/68/58
f 28/69/59 30/70/58 29/71/60
f 24/53/49 29/71/60 30/70/58
f 27/59/53 32/67/57 26/61/54
f 23/45/41 28/69/59 29/71/60
f 26/64/54 28/69/59 22/44/40
f 1/72/61 36/73/62 34/74/63
f 52/75/37 35/76/64 59/77/65
f 82/78/66 35/76/64 3/79/67
f 1/72/61 125/80/68 80/81/69
f 34/82/63 40/83/70 37/84/13
f 35/76/64 60/30/28 59/77/65
f 128/85/71 38/24/22 35/76/64
f 34/74/63 134/17/15 125/80/68
f 43/35/33 48/86/72 49/87/73
f 45/88/74 46/89/75 40/83/70
f 34/82/63 44/90/76 45/88/74
f 36/91/62 43/92/33 44/90/76
f 37/93/13 41/94/77 5/95/16
f 5/95/16 42/96/78 13/34/32
f 46/97/75 48/86/72 47/98/79
f 50/99/80 46/89/75 51/100/81
f 40/101/70 47/98/79 41/94/77
f 43/92/33 50/99/80 44/90/76
f 44/90/76 51/100/81 45/88/74
f 42/96/78 47/98/79 48/86/72
f 59/77/65 39/102/34 36/73/62
f 11/103/82 59/77/65 36/73/62
f 15/104/56 58/50/46 21/105/55
f 21/105/55 57/1/1 18/42/39
f 3/106/67 149/41/38 82/107/66
f 14/33/31 56/32/30 15/104/56
f 13/108/32 55/31/29 14/33/31
f 60/30/28 13/108/32 39/102/34
f 4/9/2 61/109/83 53/110/3
f 57/1/1 12/111/84 18/42/39
f 159/112/85 66/113/86 62/8/8
f 64/114/87 166/115/88 161/116/89
f 53/110/3 64/114/87 12/117/84
f 99/118/35 64/114/87 161/116/89
f 166/115/88 70/119/90 171/120/91
f 66/113/86 63/121/92 65/122/93
f 61/109/83 67/123/94 64/114/87
f 62/8/8 65/122/93 61/109/83
f 169/124/95 72/125/96 68/126/97
f 70/119/90 176/127/98 171/120/91
f 66/113/86 169/128/99 68/126/97
f 65/122/93 70/119/90 67/123/94
f 71/129/100 74/130/101 69/131/102
f 71/129/100 75/132/103 73/133/104
f 63/121/92 73/133/104 70/119/90
f 68/126/97 71/129/100 63/121/92
f 74/130/101 180/134/105 69/131/102
f 75/132/103 180/134/105 181/135/106
f 176/127/98 75/132/103 181/135/106
f 175/136/107 74/130/101 72/125/96
f 153/137/108 79/138/109 104/139/110
f 76/140/111 188/5/5 187/141/112
f 158/142/113 83/143/7 79/144/109
f 79/138/109 105/145/114 104/139/110
f 103/146/115 81/147/36 77/148/116
f 130/149/117 95/150/14 84/151/118
f 95/150/14 85/152/119 84/151/118
f 85/152/119 93/153/48 86/154/120
f 131/155/121 90/156/23 132/157/20
f 87/158/122 91/159/25 90/156/23
f 89/160/123 91/159/25 88/161/124
f 150/162/125 131/155/121 156/163/126
f 151/164/127 87/158/122 150/162/125
f 151/164/127 89/160/123 88/161/124
f 86/154/120 101/165/128 85/152/119
f 85/152/119 100/166/129 84/151/118
f 133/167/130 137/168/131 100/169/129
f 77/148/116 99/170/35 97/171/132
f 149/172/38 96/6/6 147/173/133
f 77/148/116 107/174/134 103/146/115
f 86/175/120 113/176/135 102/177/136
f 108/178/42 103/146/115 109/179/137
f 104/139/110 111/180/44 110/181/138
f 153/137/108 110/181/138 154/182/139
f 154/182/139 89/160/123 152/183/140
f 110/181/138 92/184/47 89/160/123
f 93/153/48 109/179/137 86/154/120
f 115/185/141 86/175/120 109/186/137
f 122/187/142 115/188/141 116/189/143
f 124/190/144 116/189/143 118/191/145
f 117/192/146 107/193/134 112/194/147
f 102/177/136 117/195/146 112/196/147
f 116/189/143 109/197/137 103/198/115
f 118/191/145 103/198/115 107/193/134
f 122/187/142 123/199/148 121/200/149
f 121/201/149 119/202/150 120/203/151
f 115/185/141 120/203/151 114/204/152
f 117/192/146 124/190/144 118/191/145
f 114/204/152 119/202/150 113/176/135
f 119/202/150 117/195/146 113/176/135
f 126/205/153 96/206/6 76/207/111
f 155/208/154 78/209/155 147/210/133
f 78/209/155 128/211/71 82/212/66
f 76/207/111 125/213/68 126/205/153
f 130/214/117 140/215/156 126/216/153
f 156/163/126 127/217/157 155/208/154
f 127/217/157 132/157/20 128/211/71
f 125/213/68 130/149/117 126/205/153
f 138/218/158 143/219/159 137/168/131
f 141/220/160 140/215/156 135/221/161
f 126/216/153 139/222/162 129/223/163
f 129/223/163 138/224/158 133/225/130
f 136/226/164 130/227/117 84/228/118
f 137/168/131 84/228/118 100/169/129
f 141/229/160 143/219/159 144/230/165
f 141/220/160 145/231/166 146/232/167
f 142/233/168 135/234/161 136/226/164
f 145/231/166 138/224/158 139/222/162
f 146/232/167 139/222/162 140/215/156
f 137/168/131 142/233/168 136/226/164
f 133/235/130 155/208/154 129/236/163
f 129/236/163 147/210/133 96/206/6
f 102/237/136 154/182/139 152/183/140
f 112/238/147 153/137/108 154/182/139
f 78/239/155 149/172/38 147/173/133
f 101/165/128 152/183/140 151/164/127
f 101/165/128 150/162/125 100/166/129
f 100/166/129 156/163/126 133/235/130
f 148/240/169 158/142/113 79/144/109
f 97/171/132 153/137/108 107/174/134
f 164/241/170 159/242/85 158/142/113
f 166/243/88 162/244/171 161/245/89
f 162/244/171 148/240/169 97/246/132
f 99/247/35 162/244/171 97/246/132
f 166/243/88 172/248/172 167/249/173
f 160/250/174 164/241/170 163/251/175
f 167/249/173 157/252/176 162/244/171
f 163/251/175 158/142/113 157/252/176
f 174/253/177 169/254/95 168/255/178
f 176/256/98 172/248/172 171/257/91
f 164/241/170 169/258/99 165/259/179
f 172/248/172 163/251/175 167/249/173
f 173/260/180 178/261/181 174/253/177
f 182/262/182 173/260/180 177/263/183
f 177/263/183 160/250/174 172/248/172
f 173/260/180 168/255/178 160/250/174
f 180/264/105 178/261/181 170/265/184
f 182/262/182 180/264/105 170/265/184
f 176/256/98 182/262/182 177/263/183
f 178/261/181 175/266/107 174/253/177
f 169/267/185 168/268/186 68/269/187
f 183/270/188 186/271/189 185/272/190
f 186/273/189 187/141/112 188/5/5
f 80/274/69 183/270/188 1/275/61
f 80/276/69 187/141/112 184/277/191
f 1/275/61 185/272/190 11/278/82
f 98/40/4 185/272/190 186/271/189
f 57/1/1 17/10/9 4/2/2
f 98/4/4 186/273/189 188/5/5
f 83/7/7 159/112/85 62/8/8
f 17/10/9 105/279/114 83/11/7
f 2/12/10 81/38/36 106/13/11
f 37/15/13 5/18/16 95/16/14
f 5/18/16 6/21/19 94/19/17
f 7/20/18 93/52/48 94/19/17
f 132/22/20 90/25/23 8/23/21
f 90/25/23 91/27/25 9/26/24
f 91/27/25 92/51/47 10/28/26
f 38/24/22 8/23/21 54/29/27
f 54/29/27 8/23/21 9/26/24
f 55/31/29 9/26/24 10/28/26
f 14/33/31 15/104/56 7/20/18
f 5/18/16 13/108/32 14/33/31
f 13/34/32 42/96/78 43/35/33
f 2/12/10 12/111/84 99/37/35
f 52/39/37 11/278/82 98/40/4
f 18/42/39 12/111/84 2/12/10
f 7/43/18 15/63/56 22/44/40
f 16/14/12 106/13/11 108/46/42
f 111/48/44 105/279/114 17/10/9
f 20/49/45 17/10/9 57/1/1
f 10/28/26 20/49/45 58/50/46
f 92/51/47 111/48/44 20/49/45
f 19/47/43 108/46/42 93/52/48
f 7/43/18 23/45/41 24/53/49
f 24/55/49 30/68/58 31/56/50
f 25/57/51 31/56/50 33/58/52
f 18/60/39 27/59/53 26/61/54
f 15/63/56 21/280/55 26/64/54
f 19/65/43 24/55/49 25/57/51
f 18/60/39 16/66/12 25/57/51
f 32/67/57 33/58/52 31/56/50
f 28/69/59 32/281/57 30/70/58
f 24/53/49 23/45/41 29/71/60
f 27/59/53 33/58/52 32/67/57
f 23/45/41 22/44/40 28/69/59
f 26/64/54 32/281/57 28/69/59
f 1/72/61 11/103/82 36/73/62
f 52/75/37 3/79/67 35/76/64
f 82/78/66 128/85/71 35/76/64
f 1/72/61 34/74/63 125/80/68
f 34/82/63 45/88/74 40/83/70
f 35/76/64 38/24/22 60/30/28
f 128/85/71 132/22/20 38/24/22
f 34/74/63 37/15/13 134/17/15
f 43/35/33 42/96/78 48/86/72
f 45/88/74 51/100/81 46/89/75
f 34/82/63 36/91/62 44/90/76
f 36/91/62 39/282/34 43/92/33
f 37/93/13 40/101/70 41/94/77
f 5/95/16 41/94/77 42/96/78
f 46/97/75 49/87/73 48/86/72
f 50/99/80 49/283/73 46/89/75
f 40/101/70 46/97/75 47/98/79
f 43/92/33 49/283/73 50/99/80
f 44/90/76 50/99/80 51/100/81
f 42/96/78 41/94/77 47/98/79
f 59/77/65 60/30/28 39/102/34
f 11/103/82 52/75/37 59/77/65
f 15/104/56 56/32/30 58/50/46
f 21/105/55 58/50/46 57/1/1
f 3/106/67 52/39/37 149/41/38
f 14/33/31 55/31/29 56/32/30
f 13/108/32 54/29/27 55/31/29
f 60/30/28 54/29/27 13/108/32
f 4/9/2 62/8/8 61/109/83
f 57/1/1 53/3/3 12/111/84
f 159/112/85 165/284/179 66/113/86
f 64/114/87 67/123/94 166/115/88
f 53/110/3 61/109/83 64/114/87
f 99/118/35 12/117/84 64/114/87
f 166/115/88 67/123/94 70/119/90
f 66/113/86 68/126/97 63/121/92
f 61/109/83 65/122/93 67/123/94
f 62/8/8 66/113/86 65/122/93
f 169/124/95 175/136/107 72/125/96
f 70/119/90 73/133/104 176/127/98
f 66/113/86 165/284/179 169/128/99
f 65/122/93 63/121/92 70/119/90
f 71/129/100 72/125/96 74/130/101
f 71/129/100 69/131/102 75/132/103
f 63/121/92 71/129/100 73/133/104
f 68/126/97 72/125/96 71/129/100
f 74/130/101 179/285/192 180/134/105
f 75/132/103 69/131/102 180/134/105
f 176/127/98 73/133/104 75/132/103
f 175/136/107 179/285/192 74/130/101
f 153/137/108 148/286/169 79/138/109
f 76/140/111 96/6/6 188/5/5
f 158/142/113 159/242/85 83/143/7
f 79/138/109 83/287/7 105/145/114
f 103/146/115 106/288/11 81/147/36
f 130/149/117 134/289/15 95/150/14
f 95/150/14 94/290/17 85/152/119
f 85/152/119 94/290/17 93/153/48
f 131/155/121 87/158/122 90/156/23
f 87/158/122 88/161/124 91/159/25
f 89/160/123 92/184/47 91/159/25
f 150/162/125 87/158/122 131/155/121
f 151/164/127 88/161/124 87/158/122
f 151/164/127 152/183/140 89/160/123
f 86/154/120 102/237/136 101/165/128
f 85/152/119 101/165/128 100/166/129
f 133/167/130 138/218/158 137/168/131
f 77/148/116 81/147/36 99/170/35
f 149/172/38 98/4/4 96/6/6
f 77/148/116 97/171/132 107/174/134
f 86/175/120 114/204/152 113/176/135
f 108/178/42 106/288/11 103/146/115
f 104/139/110 105/145/114 111/180/44
f 153/137/108 104/139/110 110/181/138
f 154/182/139 110/181/138 89/160/123
f 110/181/138 111/180/44 92/184/47
f 93/153/48 108/178/42 109/179/137
f 115/185/141 114/204/152 86/175/120
f 122/187/142 121/200/149 115/188/141
f 124/190/144 122/187/142 116/189/143
f 117/192/146 118/191/145 107/193/134
f 102/177/136 113/176/135 117/195/146
f 116/189/143 115/188/141 109/197/137
f 118/191/145 116/189/143 103/198/115
f 122/187/142 124/190/144 123/199/148
f 121/201/149 123/291/148 119/202/150
f 115/185/141 121/201/149 120/203/151
f 117/192/146 123/199/148 124/190/144
f 114/204/152 120/203/151 119/202/150
f 119/202/150 123/291/148 117/195/146
f 126/205/153 129/236/163 96/206/6
f 155/208/154 127/217/157 78/209/155
f 78/209/155 127/217/157 128/211/71
f 76/207/111 80/292/69 125/213/68
f 130/214/117 135/221/161 140/215/156
f 156/163/126 131/155/121 127/217/157
f 127/217/157 131/155/121 132/157/20
f 125/213/68 134/289/15 130/149/117
f 138/218/158 144/230/165 143/219/159
f 141/220/160 146/232/167 140/215/156
f 126/216/153 140/215/156 139/222/162
f 129/223/163 139/222/162 138/224/158
f 136/226/164 135/234/161 130/227/117
f 137/168/131 136/226/164 84/228/118
f 141/229/160 142/233/168 143/219/159
f 141/220/160 144/293/165 145/231/166
f 142/233/168 141/229/160 135/234/161
f 145/231/166 144/293/165 138/224/158
f 146/232/167 145/231/166 139/222/162
f 137/168/131 143/219/159 142/233/168
f 133/235/130 156/163/126 155/208/154
f 129/236/163 155/208/154 147/210/133
f 102/237/136 112/238/147 154/182/139
f 112/238/147 107/174/134 153/137/108
f 78/239/155 82/294/66 149/172/38
f 101/165/128 102/237/136 152/183/140
f 101/165/128 151/164/127 150/162/125
f 100/166/129 150/162/125 156/163/126
f 148/240/169 157/252/176 158/142/113
f 97/171/132 148/286/169 153/137/108
f 164/241/170 165/259/179 159/242/85
f 166/243/88 167/249/173 162/244/171
f 162/244/171 157/252/176 148/240/169
f 99/247/35 161/245/89 162/244/171
f 166/243/88 171/257/91 172/248/172
f 160/250/174 168/255/178 164/241/170
f 167/249/173 163/251/175 157/252/176
f 163/251/175 164/241/170 158/142/113
f 174/253/177 175/266/107 169/254/95
f 176/256/98 177/263/183 172/248/172
f 164/241/170 168/255/178 169/258/99
f 172/248/172 160/250/174 163/251/175
f 173/260/180 170/265/184 178/261/181
f 182/262/182 170/265/184 173/260/180
f 177/263/183 173/260/180 160/250/174
f 173/260/180 174/253/177 168/255/178
f 180/264/105 179/295/192 178/261/181
f 182/262/182 181/296/106 180/264/105
f 176/256/98 181/296/106 182/262/182
f 178/261/181 179/295/192 175/266/107
f 183/270/188 184/297/191 186/271/189
f 186/273/189 184/277/191 187/141/112
f 80/274/69 184/297/191 183/270/188
f 80/276/69 76/140/111 187/141/112
f 1/275/61 183/270/188 185/272/190
f 98/40/4 11/278/82 185/272/190
