# Blender 4.5.4 LTS
# www.blender.org
mtllib YellowBullet.mtl
o YellowBullet
v 0.000000 -0.504030 -3.499998
v 0.000000 -0.504030 -3.499998
v 0.000000 -0.504030 -3.499998
v 0.000000 -0.504030 -3.499998
v 0.000000 -0.498273 1.499999
v 0.000000 -0.498273 1.499999
v 0.000000 -0.498273 1.499999
v 0.000000 -0.498273 1.499999
v 0.000000 -1.499424 0.501151
v 0.000000 -1.499424 0.501151
v 0.000000 -1.499424 0.501151
v 0.000000 -1.499424 0.501151
v -1.000001 -0.499424 0.500000
v -1.000001 -0.499424 0.500000
v -1.000001 -0.499424 0.500000
v -1.000001 -0.499424 0.500000
v 0.000000 0.500575 0.498848
v 0.000000 0.500575 0.498848
v 0.000000 0.500575 0.498848
v 0.000000 0.500575 0.498848
v 1.000001 -0.499424 0.500000
v 1.000001 -0.499424 0.500000
v 1.000001 -0.499424 0.500000
v 1.000001 -0.499424 0.500000
vn -0.5774 -0.5767 0.5780
vn -0.6963 -0.6965 -0.1733
vn -0.5773 0.5780 0.5767
vn -0.6963 0.6961 -0.1749
vn 0.5773 0.5780 0.5767
vn 0.6963 0.6961 -0.1749
vn 0.5773 -0.5767 0.5780
vn 0.6963 -0.6965 -0.1733
vt 0.500000 1.000000
vt 1.006250 0.753125
vt -0.006250 0.753125
vt 0.500000 0.000000
s 1
usemtl Red
f 6/1/1 14/2/1 9/3/1
f 2/4/2 10/3/2 16/2/2
f 5/1/3 17/2/3 13/3/3
f 1/4/4 15/3/4 18/2/4
f 7/1/5 21/2/5 19/3/5
f 3/4/6 20/3/6 23/2/6
f 8/1/7 11/2/7 22/3/7
f 4/4/8 24/3/8 12/2/8
